<svg xmlns="http://www.w3.org/2000/svg" width="22" height="22" viewBox="0 0 22 22" fill="none">
  <path d="M20.586 10.6028C20.5581 10.5399 19.8837 9.04386 18.3845 7.54462C16.3868 5.54697 13.8637 4.49121 11.0866 4.49121C8.30944 4.49121 5.78629 5.54697 3.78864 7.54462C2.2894 9.04386 1.61184 10.5423 1.58716 10.6028C1.55094 10.6843 1.53223 10.7724 1.53223 10.8616C1.53223 10.9507 1.55094 11.0389 1.58716 11.1203C1.61502 11.1832 2.2894 12.6785 3.78864 14.1777C5.78629 16.1746 8.30944 17.2303 11.0866 17.2303C13.8637 17.2303 16.3868 16.1746 18.3845 14.1777C19.8837 12.6785 20.5581 11.1832 20.586 11.1203C20.6222 11.0389 20.6409 10.9507 20.6409 10.8616C20.6409 10.7724 20.6222 10.6843 20.586 10.6028ZM11.0866 15.9564C8.63588 15.9564 6.49491 15.0655 4.72257 13.3091C3.99537 12.5859 3.37668 11.7612 2.88575 10.8608C3.37654 9.96023 3.99525 9.13556 4.72257 8.41247C6.49491 6.65607 8.63588 5.76512 11.0866 5.76512C13.5373 5.76512 15.6782 6.65607 17.4506 8.41247C18.1792 9.13539 18.7992 9.96005 19.2914 10.8608C18.7173 11.9325 16.2165 15.9564 11.0866 15.9564ZM11.0866 7.03904C10.3307 7.03904 9.5918 7.26318 8.96332 7.68312C8.33484 8.10305 7.845 8.69993 7.55574 9.39826C7.26648 10.0966 7.1908 10.865 7.33826 11.6064C7.48572 12.3477 7.84971 13.0287 8.38419 13.5632C8.91867 14.0976 9.59964 14.4616 10.341 14.6091C11.0823 14.7565 11.8508 14.6809 12.5491 14.3916C13.2474 14.1023 13.8443 13.6125 14.2642 12.984C14.6842 12.3555 14.9083 11.6166 14.9083 10.8608C14.9073 9.84751 14.5043 8.87605 13.7878 8.15956C13.0713 7.44308 12.0998 7.04009 11.0866 7.03904ZM11.0866 13.4086C10.5827 13.4086 10.0901 13.2592 9.67107 12.9792C9.25208 12.6993 8.92552 12.3013 8.73268 11.8358C8.53984 11.3702 8.48939 10.858 8.5877 10.3637C8.68601 9.86949 8.92866 9.41551 9.28498 9.05919C9.6413 8.70287 10.0953 8.46021 10.5895 8.36191C11.0837 8.2636 11.596 8.31405 12.0616 8.50689C12.5271 8.69973 12.925 9.02629 13.205 9.44528C13.485 9.86427 13.6344 10.3569 13.6344 10.8608C13.6344 11.5365 13.366 12.1846 12.8882 12.6624C12.4103 13.1402 11.7623 13.4086 11.0866 13.4086Z" fill="#F0F0F0"/>
</svg>
