<svg width="96" height="103" viewBox="0 0 96 103" fill="none" xmlns="http://www.w3.org/2000/svg">
<g id="Group 624984">
<g id="Group">
<path id="Vector" d="M31.6514 91.0546C29.9205 90.5936 28.0656 90.5223 26.3316 90.0422C24.6595 89.5787 23.0338 89.0558 21.4607 88.4213C20.9003 88.1955 20.7083 87.9507 20.7176 87.4706C20.7516 85.1296 20.7331 82.7886 20.7331 80.4475C20.7331 72.8018 20.7454 65.156 20.7083 57.5079C20.7052 56.8519 20.9684 56.5192 21.7116 56.2197C25.7866 54.5751 30.1032 53.7076 34.7108 53.71C36.8908 53.71 38.3833 54.8127 38.3864 56.4717C38.3988 67.0811 38.3895 77.6906 38.3988 88.3024C38.3988 89.7071 37.3057 90.4771 35.8317 91.0546C34.4383 91.0546 33.0449 91.0546 31.6514 91.0546Z" fill="#FF4387"/>
<path id="Vector_2" d="M59.5083 91.0544C57.5017 90.358 56.901 89.1531 56.9103 87.5013C56.9784 77.3077 56.9443 67.1118 56.9443 56.9159C56.9443 54.6675 58.2696 53.667 61.2051 53.7145C65.7261 53.7906 69.9621 54.6747 73.9288 56.3479C74.514 56.595 74.6162 56.8802 74.6162 57.3294C74.6038 67.3756 74.6038 77.4218 74.6224 87.4704C74.6224 87.9457 74.4428 88.1953 73.8854 88.4258C70.6558 89.7639 67.2589 90.6646 63.5833 90.8952C63.4223 90.9047 63.2798 90.9189 63.2241 91.0544C61.9824 91.0544 60.7438 91.0544 59.5083 91.0544Z" fill="#FF4387"/>
<path id="Vector_3" d="M95.2574 59.1313C95.2574 64.9993 95.2636 70.8697 95.2574 76.7377C95.2512 81.7524 90.8139 85.1606 84.2833 85.1796C81.5708 85.1867 81.5708 85.1867 81.5708 83.0667C81.5708 75.5374 81.5863 68.0105 81.546 60.4812C81.5429 59.7444 81.7597 59.521 82.7382 59.5638C84.3205 59.6327 85.909 59.5733 87.4944 59.5876C88.0208 59.5923 88.3243 59.5709 88.3119 59.0362C88.1664 52.5788 88.7206 46.1047 88.0394 39.6616C87.256 32.244 83.1345 25.9339 76.3407 20.6315C75.9475 20.3249 75.6533 20.3012 75.1548 20.4628C71.5814 21.6131 68.1659 21.3065 64.8495 19.814C54.0953 14.9727 43.1459 14.7303 32.0758 19.1295C28.5829 20.5175 25.1086 20.7551 21.5136 19.5169C20.9841 19.3339 20.693 19.4052 20.3059 19.6809C13.2768 24.7004 8.96023 30.818 7.48628 38.1096C6.91961 40.9093 7.05586 43.7233 7.04657 46.5373C7.03109 50.599 7.06205 54.6584 7.0249 58.7201C7.0187 59.3737 7.16114 59.647 8.12416 59.6042C9.74365 59.5329 11.3724 59.6018 12.9981 59.5757C13.5926 59.5662 13.7846 59.6874 13.7815 60.1627C13.7629 68.3147 13.7691 76.4643 13.7629 84.6163C13.7629 84.8564 13.9116 85.1701 13.3294 85.1844C10.044 85.2652 6.83291 85.1653 4.10177 83.4636C1.58429 81.895 0.116537 79.8915 0.110344 77.415C0.0700886 65.2916 -0.162152 53.1658 0.200142 41.0495C0.481926 31.5714 5.51379 23.4645 14.2708 16.7457C15.3205 15.94 15.3329 15.9471 14.2088 15.2389C13.5833 14.8443 12.9486 14.4546 12.3293 14.0505C10.3691 12.7695 10.3506 10.9442 12.3323 9.70596C19.4915 5.22593 27.589 2.25272 36.6618 0.869491C49.4814 -1.08651 61.7065 0.270569 73.3371 4.81002C77.1737 6.30732 80.7037 8.16588 83.9675 10.3144C85.748 11.4861 85.8347 13.1403 84.2028 14.4379C83.3977 15.0772 82.6019 15.7285 81.7318 16.3155C81.1651 16.6981 81.2797 16.912 81.7535 17.2804C85.7511 20.3915 88.8848 23.9565 91.1948 27.9469C93.7463 32.3557 95.1552 36.9735 95.2234 41.7934C95.307 47.5735 95.2419 53.3536 95.2419 59.1336C95.2481 59.1313 95.2543 59.1313 95.2574 59.1313Z" fill="#FF4387"/>
</g>
<path id="Vector 199" d="M90.2085 80.3174V93.1657C90.2085 95.9272 87.9699 98.1657 85.2085 98.1657H53.0244" stroke="#FF4387" stroke-width="3"/>
<path id="Rectangle 4143" d="M44.1003 98.166C44.1003 95.4963 46.2646 93.332 48.9343 93.332H62.3205V103H48.9343C46.2646 103 44.1003 100.836 44.1003 98.166Z" fill="#FF4387"/>
</g>
</svg>
