<svg width="148" height="78" viewBox="0 0 148 78" fill="none" xmlns="http://www.w3.org/2000/svg">
<g id="nft logo">
<g id="NFT">
<path d="M61.4538 43.4532H58.8477V32.1689H61.6276L65.3978 37.8279L66.3708 39.3437H66.5446L66.5098 37.8279V32.1689H69.116V43.4532H66.3361L62.7222 38.1142L61.5928 36.3795H61.4191L61.4538 38.1142V43.4532Z" fill="#0ED4FF"/>
<path d="M73.3988 43.4532H70.7926V32.1689H79.532V34.4426H73.3988V37.0195H79.2714V39.2763H73.3988V43.4532Z" fill="#0ED4FF"/>
<path d="M86.4824 43.4532H83.8762V34.4426H80.1233V32.1689H90.2353V34.4426H86.4824V43.4532Z" fill="#0ED4FF"/>
</g>
<path id="Rectangle 4142" d="M49.8564 14.3174H97.4796V62.9529H49.8564V14.3174Z" stroke="#0ED4FF" stroke-width="3"/>
<path id="Vector" d="M22.2891 27.6126L48.3562 27.6126M22.2891 45.1907L48.3562 45.1907M10.9556 5.85938H43.5056L57.0453 14.2822M10.9556 71.0445H43.5056L57.0453 62.6217" stroke="#0ED4FF" stroke-width="3"/>
<path id="Vector_2" d="M125.047 27.6126L98.9796 27.6126M125.047 45.1907L98.9796 45.1907M136.38 5.85938H103.83L90.2905 14.2822M136.38 71.0445H103.83L90.2905 62.6217" stroke="#0ED4FF" stroke-width="3"/>
<path id="Vector_3" d="M10.9669 6.04245C10.9669 8.50752 8.89199 10.5849 6.23344 10.5849C3.57489 10.5849 1.5 8.50752 1.5 6.04245C1.5 3.57738 3.57489 1.5 6.23344 1.5C8.89199 1.5 10.9669 3.57738 10.9669 6.04245ZM23.4338 27.2826C23.4338 29.7477 21.3589 31.825 18.7003 31.825C16.0418 31.825 13.9669 29.7477 13.9669 27.2826C13.9669 24.8175 16.0418 22.7401 18.7003 22.7401C21.3589 22.7401 23.4338 24.8175 23.4338 27.2826ZM23.4338 45.2267C23.4338 47.6918 21.3589 49.7691 18.7003 49.7691C16.0418 49.7691 13.9669 47.6918 13.9669 45.2267C13.9669 42.7616 16.0418 40.6842 18.7003 40.6842C21.3589 40.6842 23.4338 42.7616 23.4338 45.2267ZM10.9669 71.2275C10.9669 73.6926 8.89199 75.77 6.23344 75.77C3.57489 75.77 1.5 73.6926 1.5 71.2275C1.5 68.7625 3.57489 66.6851 6.23344 66.6851C8.89199 66.6851 10.9669 68.7625 10.9669 71.2275Z" stroke="#0ED4FF" stroke-width="3"/>
<path id="Vector_4" d="M141.102 10.5849C138.444 10.5849 136.369 8.50752 136.369 6.04245C136.369 3.57738 138.444 1.5 141.102 1.5C143.761 1.5 145.836 3.57738 145.836 6.04245C145.836 8.50752 143.761 10.5849 141.102 10.5849ZM128.636 31.825C125.977 31.825 123.902 29.7477 123.902 27.2826C123.902 24.8175 125.977 22.7401 128.636 22.7401C131.294 22.7401 133.369 24.8175 133.369 27.2826C133.369 29.7477 131.294 31.825 128.636 31.825ZM128.636 49.7691C125.977 49.7691 123.902 47.6918 123.902 45.2267C123.902 42.7616 125.977 40.6842 128.636 40.6842C131.294 40.6842 133.369 42.7616 133.369 45.2267C133.369 47.6918 131.294 49.7691 128.636 49.7691ZM141.102 75.77C138.444 75.77 136.369 73.6926 136.369 71.2275C136.369 68.7625 138.444 66.6851 141.102 66.6851C143.761 66.6851 145.836 68.7625 145.836 71.2275C145.836 73.6926 143.761 75.77 141.102 75.77Z" stroke="#0ED4FF" stroke-width="3"/>
</g>
</svg>
