<svg width="114" height="81" viewBox="0 0 114 81" fill="none" xmlns="http://www.w3.org/2000/svg">
<g id="Group 624984">
<g id="Group 624981">
<path id="Vector 196" d="M36.4276 2L19.0189 8.75561C19.0189 8.75561 7.05989 31.7926 3.94873 47.8602C2.80151 53.7851 2 63.1903 2 63.1903C2 63.1903 5.28689 75.1421 11.4838 78.3904C22.4328 84.1295 37.2071 59.9424 37.2071 59.9424H79.9494C79.9494 59.9424 93.4348 84.0684 103.724 78.3904C109.669 75.1095 112.168 63.1903 112.168 63.1903C112.168 63.1903 111.24 53.7913 110.09 47.8602C107.001 31.9324 96.0589 8.75561 96.0589 8.75561L78.9101 2L72.5442 4.98806H41.1046L36.4276 2Z" stroke="#B0EB10" stroke-width="3"/>
<g id="Vector">
<path d="M80.5939 21.996C80.5939 23.9296 79.0264 25.4971 77.0928 25.4971C75.1593 25.4971 73.5918 23.9296 73.5918 21.996C73.5918 20.0625 75.1593 18.495 77.0928 18.495C79.0264 18.495 80.5939 20.0625 80.5939 21.996Z" fill="#B0EB10"/>
<path d="M86.5019 15.8692C86.5019 17.8028 84.9344 19.3702 83.0008 19.3702C81.0673 19.3702 79.4998 17.8028 79.4998 15.8692C79.4998 13.9356 81.0673 12.3682 83.0008 12.3682C84.9344 12.3682 86.5019 13.9356 86.5019 15.8692Z" fill="#B0EB10"/>
<path d="M86.9395 28.1228C86.9395 30.0564 85.372 31.6239 83.4385 31.6239C81.5049 31.6239 79.9374 30.0564 79.9374 28.1228C79.9374 26.1893 81.5049 24.6218 83.4385 24.6218C85.372 24.6218 86.9395 26.1893 86.9395 28.1228Z" fill="#B0EB10"/>
<path d="M92.8475 21.996C92.8475 23.9296 91.2801 25.4971 89.3465 25.4971C87.4129 25.4971 85.8454 23.9296 85.8454 21.996C85.8454 20.0625 87.4129 18.495 89.3465 18.495C91.2801 18.495 92.8475 20.0625 92.8475 21.996Z" fill="#B0EB10"/>
</g>
<path id="Ellipse 210" d="M37.0064 23.8256C37.0064 28.1632 33.4901 31.6795 29.1525 31.6795C24.8149 31.6795 21.2986 28.1632 21.2986 23.8256C21.2986 19.488 24.8149 15.9717 29.1525 15.9717C33.4901 15.9717 37.0064 19.488 37.0064 23.8256Z" stroke="#B0EB10" stroke-width="3"/>
<path id="Ellipse 211" d="M79.6185 42.5336C79.6185 46.8712 76.1022 50.3875 71.7646 50.3875C67.427 50.3875 63.9106 46.8712 63.9106 42.5336C63.9106 38.196 67.427 34.6797 71.7646 34.6797C76.1022 34.6797 79.6185 38.196 79.6185 42.5336Z" stroke="#B0EB10" stroke-width="3"/>
<path id="Vector 198" d="M40.9018 29.2826V35.6038C40.9018 36.3213 40.3202 36.903 39.6027 36.903H32.66C31.9425 36.903 31.3608 37.4846 31.3608 38.2021V44.1356C31.3608 44.8531 31.9425 45.4348 32.66 45.4348H39.6027C40.3202 45.4348 40.9018 46.0164 40.9018 46.7339V52.6674C40.9018 53.3849 41.4835 53.9665 42.201 53.9665H47.5535C48.271 53.9665 48.8527 53.3849 48.8527 52.6674V46.7339C48.8527 46.0164 49.4343 45.4348 50.1518 45.4348H56.5645C57.282 45.4348 57.8636 44.8531 57.8636 44.1356V38.2021C57.8636 37.4846 57.282 36.903 56.5645 36.903H50.1518C49.4343 36.903 48.8527 36.3213 48.8527 35.6038V29.2826C48.8527 28.5651 48.271 27.9834 47.5535 27.9834H42.201C41.4835 27.9834 40.9018 28.5651 40.9018 29.2826Z" stroke="#B0EB10" stroke-width="3"/>
<path id="Ellipse 212" d="M64.6611 5.18848C64.5626 5.68589 64.4152 6.1736 64.2202 6.64433L65.606 7.21835L64.2202 6.64433C63.832 7.58145 63.2631 8.43294 62.5458 9.15018C61.8286 9.86742 60.9771 10.4364 60.04 10.8245C59.1028 11.2127 58.0984 11.4125 57.0841 11.4125C56.0698 11.4125 55.0654 11.2127 54.1283 10.8245C53.1911 10.4364 52.3397 9.86742 51.6224 9.15018C50.9052 8.43294 50.3362 7.58145 49.9481 6.64433C49.7531 6.1736 49.6056 5.68589 49.5072 5.18848L64.6611 5.18848Z" stroke="#B0EB10" stroke-width="3"/>
</g>
</g>
</svg>
