<svg width="131" height="81" viewBox="0 0 131 81" fill="none" xmlns="http://www.w3.org/2000/svg">
<g id="Group 624986">
<g id="Group 624977">
<g id="Group 624966">
<path id="Vector" d="M34.6762 46.6783C29.6009 49.6505 24.6786 52.5308 19.763 55.4214C19.4029 55.6357 19.1142 55.6663 18.7303 55.4384C13.8181 52.541 8.89574 49.6607 3.89185 46.7259C4.05491 46.5864 4.15342 46.4708 4.27911 46.396C9.05541 43.5972 13.8351 40.8053 18.608 37.9997C18.9919 37.7753 19.2908 37.646 19.7494 37.9181C24.6582 40.8223 29.584 43.6959 34.6762 46.6783Z" fill="#7700FF"/>
<path id="Vector_2" d="M15.4248 80.3952C10.3224 77.4128 5.434 74.5563 0.538804 71.7099C0.154934 71.4854 0.0598145 71.1828 0.0598145 70.7679C0.0734028 65.0922 0.0734001 59.413 0.0835913 53.7373C0.0835913 53.6693 0.151535 53.6046 0.239859 53.4414C2.82504 54.9581 5.40002 56.4714 7.9818 57.9813C10.2069 59.2838 12.4388 60.5794 14.6673 61.8785C15.0681 62.1132 15.435 62.3036 15.4316 62.9055C15.4146 68.6629 15.4248 74.4202 15.4248 80.3952Z" fill="#7700FF"/>
<path id="Vector_3" d="M23.0647 80.2806C23.0647 77.0636 23.0647 73.9417 23.0647 70.8233C23.0647 68.283 23.0647 65.7393 23.0647 63.199C23.0647 62.7433 23.0138 62.3386 23.5573 62.0257C28.4525 59.193 33.3239 56.3194 38.3924 53.3506C38.3924 54.2994 38.3924 55.0781 38.3924 55.8569C38.3924 60.7267 38.389 65.5999 38.3992 70.4696C38.3992 71.0342 38.3754 71.466 37.7639 71.8197C33.0386 74.5437 28.3438 77.322 23.6389 80.0766C23.4996 80.1548 23.3331 80.1854 23.0647 80.2806Z" fill="#7700FF"/>
</g>
<g id="Group 624967">
<path id="Vector_4" d="M126.302 46.6783C121.227 49.6505 116.304 52.5308 111.389 55.4214C111.029 55.6357 110.74 55.6663 110.356 55.4384C105.444 52.541 100.521 49.6607 95.5176 46.7259C95.6806 46.5864 95.7792 46.4708 95.9048 46.396C100.681 43.5972 105.461 40.8053 110.234 37.9997C110.618 37.7753 110.917 37.646 111.375 37.9181C116.284 40.8223 121.21 43.6959 126.302 46.6783Z" fill="#7700FF"/>
<path id="Vector_5" d="M107.051 80.3952C101.948 77.4128 97.06 74.5563 92.1648 71.7099C91.7809 71.4854 91.6858 71.1828 91.6858 70.7679C91.6994 65.0922 91.6994 59.413 91.7096 53.7373C91.7096 53.6693 91.7775 53.6046 91.8658 53.4414C94.451 54.9581 97.026 56.4714 99.6078 57.9813C101.833 59.2838 104.065 60.5794 106.293 61.8785C106.694 62.1132 107.061 62.3036 107.058 62.9055C107.041 68.6629 107.051 74.4202 107.051 80.3952Z" fill="#7700FF"/>
</g>
<g id="Group 624965">
<path id="Vector_6" d="M80.1969 46.6783C75.1217 49.6505 70.1993 52.5308 65.2838 55.4214C64.9237 55.6357 64.6349 55.6663 64.251 55.4384C59.3389 52.541 54.4165 49.6607 49.4126 46.7259C49.5757 46.5864 49.6742 46.4708 49.7999 46.396C54.5762 43.5972 59.3559 40.8053 64.1288 37.9997C64.5126 37.7753 64.8116 37.646 65.2702 37.9181C70.1789 40.8223 75.1047 43.6959 80.1969 46.6783Z" fill="#7700FF"/>
<path id="Vector_7" d="M60.9458 80.3855C55.8434 77.4031 50.955 74.5465 46.0598 71.7001C45.6759 71.4757 45.5808 71.173 45.5808 70.7581C45.5944 65.0824 45.5944 59.4032 45.6046 53.7275C45.6046 53.6595 45.6725 53.5949 45.7609 53.4316C48.346 54.9483 50.921 56.4617 53.5028 57.9716C55.7279 59.274 57.9598 60.5697 60.1883 61.8687C60.5891 62.1034 60.956 62.2938 60.9526 62.8957C60.9356 68.6531 60.9458 74.4105 60.9458 80.3855Z" fill="#7700FF"/>
<path id="Vector_8" d="M68.586 80.2806C68.586 77.0636 68.586 73.9417 68.586 70.8233C68.586 68.283 68.586 65.7393 68.586 63.199C68.586 62.7433 68.535 62.3386 69.0786 62.0257C73.9738 59.193 78.8452 56.3194 83.9136 53.3506C83.9136 54.2994 83.9136 55.0781 83.9136 55.8569C83.9136 60.7267 83.9102 65.5999 83.9204 70.4696C83.9204 71.0342 83.8966 71.466 83.2852 71.8197C78.5598 74.5437 73.8651 77.322 69.1601 80.0766C69.0208 80.1548 68.8544 80.1854 68.586 80.2806Z" fill="#7700FF"/>
</g>
<path id="Vector_9" d="M114.99 80.2816C114.99 77.0646 114.99 73.9427 114.99 70.8243C114.99 68.284 114.99 65.7403 114.99 63.2C114.99 62.7443 114.939 62.3396 115.482 62.0267C120.377 59.1939 125.249 56.3204 130.317 53.3516C130.317 54.3004 130.317 55.0791 130.317 55.8579C130.317 60.7277 130.314 65.6008 130.324 70.4706C130.324 71.0351 130.3 71.467 129.689 71.8207C124.963 74.5446 120.269 77.323 115.564 80.0776C115.424 80.1558 115.258 80.1864 114.99 80.2816Z" fill="#7700FF"/>
</g>
<g id="WEB 3">
<path d="M14.0426 28.9469H6.97631L0 0.425689H5.58105L9.31674 16.4742L10.622 24.3494H10.9821L12.9174 16.4742L17.9134 0.425689H24.7096L29.7056 16.4742L31.6409 24.3494H32.001L33.3062 16.4742L37.0869 0.425689H42.578L35.5567 28.9469H28.4903L23.8995 14.4309L21.469 5.57653H21.0639L18.6335 14.4309L14.0426 28.9469Z" fill="#7700FF"/>
<path d="M66.6912 28.9469H45.1322V0.425689H66.6912V4.55487H49.9931V12.5153H66.0161V16.687H49.9931V24.8177H66.6912V28.9469Z" fill="#7700FF"/>
<path d="M85.0279 28.9469H70.6253V0.425689H84.4879C90.384 0.425689 93.9396 2.72441 93.9396 7.5347C93.9396 10.8551 91.9592 13.1112 88.0885 13.6646V14.0052C92.6794 14.5586 95.0198 17.3681 95.0198 21.1142C95.0198 25.967 91.3741 28.9469 85.0279 28.9469ZM75.4862 4.55487V12.2598H84.0378C87.6834 12.2598 89.1237 11.3233 89.1237 8.42864C89.1237 5.49139 87.8185 4.55487 84.1728 4.55487H75.4862ZM75.4862 16.091V24.8177H84.8929C88.5386 24.8177 90.1139 23.8386 90.1139 20.4756C90.1139 17.0701 88.5386 16.091 84.8929 16.091H75.4862Z" fill="#7700FF"/>
<path d="M118.664 29.3725C110.068 29.3725 106.782 25.6691 106.782 20.2202V19.5391H111.553V20.1777C111.553 23.7534 112.813 25.1582 118.754 25.1582C123.525 25.1582 125.416 24.0514 125.416 20.7311C125.416 17.1553 123.75 16.091 119.565 16.091H113.533V12.2598H118.889C122.85 12.2598 124.38 11.3233 124.38 8.3435C124.38 5.36368 122.58 4.21432 118.349 4.21432C113.128 4.21432 111.553 5.61909 111.553 9.19488V9.53543H106.782V9.15231C106.782 3.70349 110.833 0 118.394 0C125.191 0 129.241 2.63927 129.241 7.61983C129.241 10.8976 127.486 13.3241 123.66 13.8349V14.0052C127.801 14.5586 130.322 17.1127 130.322 21.1993C130.322 26.6907 125.641 29.3725 118.664 29.3725Z" fill="#7700FF"/>
</g>
</g>
</svg>
