<svg width="688" height="46" viewBox="0 0 688 46" fill="none" xmlns="http://www.w3.org/2000/svg">
<path d="M24.2907 45.6508V14.3248H12.0404V45.6508H24.2907ZM29.1909 36.7005H38.9912L53.6916 23.2751L38.9912 9.84969H9.59029L0 0.899414H43.8913L68.3921 23.2751L43.8913 45.6508H29.1909V36.7005Z" fill="#0ED4FF"/>
<path d="M117.383 9.84969L127.183 0.899414H58.9308L68.3811 9.84969H117.383ZM70.8312 14.3248H83.0816V16.5624H107.582L97.782 25.5127H83.0816V36.7005H105.132L114.933 45.6508H70.8312V14.3248Z" fill="#0ED4FF"/>
<path d="M173.759 9.84969H122.307L132.108 0.899414H183.559L173.759 9.84969ZM132.108 36.7005H171.309L161.509 45.6508H122.307L132.108 36.7005ZM122.307 14.3248L137.008 27.7502H151.708L156.608 32.2254H171.309L156.608 18.8H141.908L137.008 14.3248H122.307Z" fill="#0ED4FF"/>
<path d="M220.335 9.84969L230.135 0.899414H161.883L171.333 9.84969H220.335ZM173.783 14.3248H186.034V16.5624H210.535L200.734 25.5127H186.034V36.7005H208.085L217.885 45.6508H173.783V14.3248Z" fill="#0ED4FF"/>
<path d="M232.588 45.6508H220.338V14.3248H232.588V45.6508ZM217.888 9.84969L208.437 0.899414H244.838L259.539 14.3248L252.189 21.0375H237.488L244.838 14.3248L239.938 9.84969H217.888ZM237.488 25.5127V34.4629H247.288L259.539 45.6508H274.239L252.189 25.5127H237.488Z" fill="#0ED4FF"/>
<path d="M288.921 45.6508H276.67V14.3248H288.921V45.6508ZM306.071 9.84969H259.52L249.999 0.899414H315.871L306.071 9.84969Z" fill="#0ED4FF"/>
<path d="M366.951 36.7005H359.601L352.25 29.9878V0.899414H340V32.2254L354.7 45.6508H376.751L366.951 36.7005ZM366.951 0.899414H379.201V29.9878L386.551 36.7005H393.902V0.899414H406.152V45.6508H381.651L366.951 32.2254V0.899414Z" fill="#0ED4FF"/>
<path d="M420.885 9.8497H406.185L396.595 0.899414H425.785L474.787 45.6508H460.086L420.885 9.8497ZM408.635 14.3248V45.6508H420.885V34.4629H442.936L433.136 25.5127H420.885V14.3248H408.635Z" fill="#0ED4FF"/>
<path d="M474.822 45.6508H462.572V14.3248H474.822V45.6508ZM460.122 9.8497L450.672 0.899414H487.073L501.773 14.3248L494.423 21.0375H479.723L487.073 14.3248L482.173 9.8497H460.122ZM479.723 25.5127V34.4629H489.523L501.773 45.6508H516.474L494.423 25.5127H479.723Z" fill="#0ED4FF"/>
<path d="M516.455 45.6508H504.204V14.3248H516.455V45.6508ZM516.455 9.8497H504.204V0.899414H516.455V9.8497Z" fill="#0ED4FF"/>
<path d="M538.502 9.8497L548.303 0.899414H567.903L582.604 14.3248V43.4132L570.353 32.2254V16.5624L563.003 9.8497H538.502ZM518.902 27.7502L533.602 14.3248H548.303L533.602 27.7502L543.403 36.7005H570.353L580.154 45.6508H538.502L518.902 27.7502Z" fill="#0ED4FF"/>
<path d="M597.326 45.6508H585.076V14.3248H597.326V45.6508ZM582.626 9.8497L573.175 0.899414H609.576L624.277 14.3248L616.927 21.0375H602.226L609.576 14.3248L604.676 9.8497H582.626ZM602.226 25.5127V34.4629H612.027L624.277 45.6508H638.977L616.927 25.5127H602.226Z" fill="#0ED4FF"/>
<path d="M678.159 9.8497H626.708L636.508 0.899414H687.96L678.159 9.8497ZM636.508 36.7005H675.709L665.909 45.6508H626.708L636.508 36.7005ZM626.708 14.3248L641.408 27.7502H656.109L661.009 32.2254H675.709L661.009 18.8H646.308L641.408 14.3248H626.708Z" fill="#0ED4FF"/>
</svg>
