<svg width="1060" height="47" viewBox="0 0 1060 47" fill="none" xmlns="http://www.w3.org/2000/svg">
<path d="M666.488 0.368164H715.736C717.976 0.368164 719.704 0.816166 720.92 1.71217C722.136 2.60817 722.968 3.76016 723.416 5.16816C723.864 6.51216 724.024 8.04816 723.896 9.77616C723.768 11.5042 723.48 13.2322 723.032 14.9602L721.688 19.7602C721.432 20.6562 720.888 21.6802 720.056 22.8322C719.224 23.9842 718.232 25.0722 717.08 26.0962C715.928 27.0562 714.648 27.8882 713.24 28.5922C711.896 29.2962 710.584 29.6482 709.304 29.6482H702.392L714.488 46.7362H698.648L686.84 29.6482H671L666.488 46.7362H654.2L666.488 0.368164ZM675.608 12.3682L674.264 17.6482H708.824L710.456 16.4962L711.416 13.0402L710.36 12.3682H675.608Z" fill="#F0F0F0"/>
<path d="M718.95 46.7362L754.182 7.95216C755.014 7.12016 755.942 6.25616 756.966 5.36016C757.99 4.46416 759.046 3.66416 760.134 2.96016C761.286 2.19216 762.438 1.58416 763.59 1.13616C764.806 0.624163 766.022 0.368164 767.238 0.368164H794.79L782.502 46.7362H770.502L773.574 35.1202H744.102L733.158 46.7362H718.95ZM779.622 12.5602H765.126C764.934 12.5602 764.326 13.0402 763.302 14.0002C762.342 14.8962 761.286 15.9522 760.134 17.1682C759.046 18.3202 757.99 19.4722 756.966 20.6242C755.942 21.7122 755.27 22.4802 754.95 22.9282H776.838L779.622 12.5602Z" fill="#F0F0F0"/>
<path d="M800.551 0.368164H861.031C860.903 0.944162 860.583 1.90416 860.071 3.24816C859.559 4.59216 859.015 5.93617 858.439 7.28017C857.927 8.62417 857.415 9.80816 856.903 10.8322C856.455 11.8562 856.199 12.3682 856.135 12.3682H809.671L804.103 33.3922L804.487 34.7362H850.183C850.311 34.7362 850.311 35.2482 850.183 36.2722C850.119 37.2962 849.991 38.4802 849.799 39.8242C849.607 41.1682 849.415 42.5122 849.223 43.8562C849.031 45.1362 848.871 46.0962 848.743 46.7362H799.495C798.151 46.7362 796.871 46.4162 795.655 45.7762C794.503 45.1362 793.543 44.3042 792.775 43.2802C792.007 42.1922 791.463 40.9762 791.143 39.6322C790.823 38.2882 790.855 36.9122 791.239 35.5042L800.551 0.368164Z" fill="#F0F0F0"/>
<path d="M866.832 0.368164H927.312C927.184 0.944162 926.864 1.90416 926.352 3.24816C925.84 4.59216 925.296 5.93617 924.72 7.28017C924.208 8.62417 923.696 9.80816 923.184 10.8322C922.736 11.8562 922.48 12.3682 922.416 12.3682H875.952L874.608 17.6482H919.056C918.928 18.2242 918.608 19.1842 918.096 20.5282C917.584 21.8082 917.04 23.1522 916.464 24.5602C915.888 25.9042 915.376 27.0882 914.928 28.1122C914.48 29.1362 914.224 29.6482 914.16 29.6482H871.344L870.384 33.3922L870.768 34.7362H916.464C916.592 34.7362 916.592 35.2482 916.464 36.2722C916.4 37.2962 916.272 38.4802 916.08 39.8242C915.888 41.1682 915.696 42.5122 915.504 43.8562C915.312 45.1362 915.152 46.0962 915.024 46.7362H865.776C864.432 46.7362 863.152 46.4162 861.936 45.7762C860.784 45.1362 859.824 44.3042 859.056 43.2802C858.288 42.1922 857.744 40.9762 857.424 39.6322C857.104 38.2882 857.136 36.9122 857.52 35.5042L866.832 0.368164Z" fill="#F0F0F0"/>
<path d="M933.113 0.368164H982.361C984.601 0.368164 986.329 0.816166 987.545 1.71217C988.761 2.60817 989.593 3.76016 990.041 5.16816C990.489 6.51216 990.649 8.04816 990.521 9.77616C990.393 11.5042 990.105 13.2322 989.657 14.9602L988.313 19.7602C988.057 20.6562 987.513 21.6802 986.681 22.8322C985.849 23.9842 984.857 25.0722 983.705 26.0962C982.553 27.0562 981.273 27.8882 979.865 28.5922C978.521 29.2962 977.209 29.6482 975.929 29.6482H969.017L981.113 46.7362H965.273L953.465 29.6482H937.625L933.113 46.7362H920.825L933.113 0.368164ZM942.233 12.3682L940.889 17.6482H975.449L977.081 16.4962L978.041 13.0402L976.985 12.3682H942.233Z" fill="#F0F0F0"/>
<path d="M1038.09 34.7362L1039.24 30.4162L1038.47 29.6482H1001.22C1000.07 29.6482 999.047 29.3282 998.151 28.6882C997.255 27.9842 996.487 27.1522 995.847 26.1922C995.207 25.1682 994.727 24.0802 994.407 22.9282C994.151 21.7762 994.055 20.7202 994.119 19.7602L995.463 14.9602C995.911 13.2322 996.551 11.5042 997.383 9.77616C998.279 8.04816 999.335 6.51216 1000.55 5.16816C1001.83 3.76016 1003.27 2.60817 1004.87 1.71217C1006.53 0.816166 1008.39 0.368164 1010.44 0.368164H1059.59L1059.21 1.80817C1058.89 2.64017 1058.47 3.66417 1057.96 4.88017C1057.45 6.03217 1056.97 7.18417 1056.52 8.33617C1056.07 9.42417 1055.65 10.3842 1055.27 11.2162C1054.95 11.9842 1054.79 12.3682 1054.79 12.3682H1009.38L1008.23 13.0402L1006.98 17.5522H1043.75C1044.9 17.5522 1046.05 17.8402 1047.21 18.4162C1048.36 18.9922 1049.35 19.7602 1050.18 20.7202C1051.08 21.6802 1051.72 22.7362 1052.1 23.8882C1052.55 25.0402 1052.65 26.1922 1052.39 27.3442L1049.8 37.0402C1049.48 38.1282 1048.84 39.2482 1047.88 40.4002C1046.98 41.5522 1045.93 42.6082 1044.71 43.5682C1043.49 44.4642 1042.25 45.2322 1040.97 45.8722C1039.69 46.4482 1038.53 46.7362 1037.51 46.7362H988.839C988.967 46.1602 989.255 45.2322 989.703 43.9522C990.215 42.6082 990.759 41.2642 991.335 39.9202C991.911 38.5762 992.423 37.3922 992.871 36.3682C993.319 35.2802 993.575 34.7362 993.639 34.7362H1038.09Z" fill="#F0F0F0"/>
<path d="M49.248 34.368L50.4 30.048L49.632 29.28H12.384C11.232 29.28 10.208 28.96 9.312 28.32C8.416 27.616 7.648 26.784 7.008 25.824C6.368 24.8 5.888 23.712 5.568 22.56C5.312 21.408 5.216 20.352 5.28 19.392L6.624 14.592C7.072 12.864 7.712 11.136 8.544 9.408C9.44 7.68 10.496 6.144 11.712 4.8C12.992 3.392 14.432 2.24 16.032 1.344C17.696 0.448 19.552 0 21.6 0H70.752L70.368 1.44C70.048 2.272 69.632 3.296 69.12 4.512C68.608 5.664 68.128 6.816 67.68 7.968C67.232 9.056 66.816 10.016 66.432 10.848C66.112 11.616 65.952 12 65.952 12H20.544L19.392 12.672L18.144 17.184H54.912C56.064 17.184 57.216 17.472 58.368 18.048C59.52 18.624 60.512 19.392 61.344 20.352C62.24 21.312 62.88 22.368 63.264 23.52C63.712 24.672 63.808 25.824 63.552 26.976L60.96 36.672C60.64 37.76 60 38.88 59.04 40.032C58.144 41.184 57.088 42.24 55.872 43.2C54.656 44.096 53.408 44.864 52.128 45.504C50.848 46.08 49.696 46.368 48.672 46.368H0C0.128 45.792 0.416 44.864 0.864 43.584C1.376 42.24 1.92 40.896 2.496 39.552C3.072 38.208 3.584 37.024 4.032 36C4.48 34.912 4.736 34.368 4.8 34.368H49.248Z" fill="#F0F0F0"/>
<path d="M62.9235 46.368L98.1555 7.584C98.9875 6.752 99.9155 5.888 100.94 4.992C101.964 4.096 103.02 3.296 104.108 2.592C105.26 1.824 106.412 1.216 107.564 0.767999C108.78 0.256 109.996 0 111.212 0H138.764L126.476 46.368H114.476L117.548 34.752H88.0755L77.1315 46.368H62.9235ZM123.596 12.192H109.1C108.908 12.192 108.3 12.672 107.276 13.632C106.316 14.528 105.26 15.584 104.108 16.8C103.02 17.952 101.964 19.104 100.94 20.256C99.9155 21.344 99.2435 22.112 98.9235 22.56H120.812L123.596 12.192Z" fill="#F0F0F0"/>
<path d="M144.524 0H156.62L184.94 30.048L192.908 0H204.812L192.524 46.368H180.236L152.492 16.32L144.524 46.368H132.236L144.524 0Z" fill="#F0F0F0"/>
<path d="M210.618 0H261.21C262.17 0 263.13 0.287999 264.09 0.863997C265.114 1.44 265.978 2.176 266.682 3.072C267.45 3.968 268.026 4.96 268.41 6.048C268.794 7.072 268.858 8.096 268.602 9.12L261.21 36.672C260.89 37.952 260.186 39.2 259.098 40.416C258.074 41.568 256.89 42.592 255.546 43.488C254.202 44.384 252.794 45.088 251.322 45.6C249.85 46.112 248.538 46.368 247.386 46.368H198.33L210.618 0ZM213.786 34.368H249.498L255.45 12.288H219.738L213.786 34.368Z" fill="#F0F0F0"/>
<path d="M315.592 34.368L316.744 30.048L315.976 29.28H278.728C277.576 29.28 276.552 28.96 275.656 28.32C274.76 27.616 273.992 26.784 273.352 25.824C272.712 24.8 272.232 23.712 271.912 22.56C271.656 21.408 271.56 20.352 271.624 19.392L272.968 14.592C273.416 12.864 274.056 11.136 274.888 9.408C275.784 7.68 276.84 6.144 278.056 4.8C279.336 3.392 280.776 2.24 282.376 1.344C284.04 0.448 285.896 0 287.944 0H337.096L336.712 1.44C336.392 2.272 335.976 3.296 335.464 4.512C334.952 5.664 334.472 6.816 334.024 7.968C333.576 9.056 333.16 10.016 332.776 10.848C332.456 11.616 332.296 12 332.296 12H286.888L285.736 12.672L284.488 17.184H321.256C322.408 17.184 323.56 17.472 324.712 18.048C325.864 18.624 326.856 19.392 327.688 20.352C328.584 21.312 329.224 22.368 329.608 23.52C330.056 24.672 330.152 25.824 329.896 26.976L327.304 36.672C326.984 37.76 326.344 38.88 325.384 40.032C324.488 41.184 323.432 42.24 322.216 43.2C321 44.096 319.752 44.864 318.472 45.504C317.192 46.08 316.04 46.368 315.016 46.368H266.344C266.472 45.792 266.76 44.864 267.208 43.584C267.72 42.24 268.264 40.896 268.84 39.552C269.416 38.208 269.928 37.024 270.376 36C270.824 34.912 271.08 34.368 271.144 34.368H315.592Z" fill="#F0F0F0"/>
<path d="M363.539 12H339.731L342.899 0H403.187L400.019 12H375.827L366.707 46.368H354.419L363.539 12Z" fill="#F0F0F0"/>
<path d="M408.993 0H459.585C460.545 0 461.505 0.287999 462.465 0.863997C463.489 1.44 464.353 2.176 465.057 3.072C465.825 3.968 466.401 4.96 466.785 6.048C467.169 7.072 467.233 8.096 466.977 9.12L459.585 36.672C459.265 37.952 458.561 39.2 457.473 40.416C456.449 41.568 455.265 42.592 453.921 43.488C452.577 44.384 451.169 45.088 449.697 45.6C448.225 46.112 446.913 46.368 445.761 46.368H407.937C406.657 46.368 405.441 46.08 404.289 45.504C403.137 44.928 402.145 44.192 401.313 43.296C400.481 42.336 399.873 41.248 399.489 40.032C399.105 38.816 399.073 37.536 399.393 36.192L408.993 0ZM412.449 33.312L413.217 34.368H447.873L453.825 12.288H418.113L412.449 33.312Z" fill="#F0F0F0"/>
<path d="M475.087 0H524.335C526.575 0 528.303 0.448 529.519 1.344C530.735 2.24 531.567 3.392 532.015 4.8C532.463 6.144 532.623 7.68 532.495 9.408C532.367 11.136 532.079 12.864 531.631 14.592L530.287 19.392C530.031 20.288 529.487 21.312 528.655 22.464C527.823 23.616 526.831 24.704 525.679 25.728C524.527 26.688 523.247 27.52 521.839 28.224C520.495 28.928 519.183 29.28 517.903 29.28H510.991L523.087 46.368H507.247L495.439 29.28H479.599L475.087 46.368H462.799L475.087 0ZM484.207 12L482.863 17.28H517.423L519.055 16.128L520.015 12.672L518.959 12H484.207Z" fill="#F0F0F0"/>
<path d="M541.181 0H554.237L567.293 34.848L598.589 0H611.645L599.357 46.368H587.357L594.077 21.408L571.229 46.368H557.117L547.708 21.408L540.989 46.368H528.893L541.181 0Z" fill="#F0F0F0"/>
</svg>
