<svg xmlns="http://www.w3.org/2000/svg" width="547" height="44" viewBox="0 0 547 44" fill="none">
  <path d="M540.702 11.4528C543.816 12.2331 546.001 15.0322 546.001 18.243V34.9542C546.001 38.1661 543.815 40.9659 540.699 41.7451L536.517 42.7909C535.961 42.9298 535.391 43 534.819 43H49.8385C49.2647 43 48.6931 42.9295 48.1366 42.79L7.27416 32.5477C4.16002 31.7671 1.97607 28.9682 1.97607 25.7577V7.51588C1.97607 4.5269 4.00971 1.92122 6.90918 1.19516C7.42679 1.06554 7.95836 1 8.49196 1H498.116C498.689 1 499.261 1.07048 499.817 1.20985L540.702 11.4528Z" stroke="url(#paint0_linear_252_12364)" stroke-width="2"/>
  <defs>
    <linearGradient id="paint0_linear_252_12364" x1="74.7009" y1="4.99999" x2="417.208" y2="177.893" gradientUnits="userSpaceOnUse">
      <stop stop-color="white"/>
      <stop offset="1" stop-color="#0ED4FF"/>
    </linearGradient>
  </defs>
</svg>
