<svg xmlns="http://www.w3.org/2000/svg" width="547" height="64" viewBox="0 0 547 64" fill="none">
  <path d="M542.102 9.93946C545.07 11.188 547 14.0938 547 17.3134V55.8828C547 59.1043 545.067 62.0115 542.097 63.2588L541.818 63.376C540.837 63.7879 539.784 64 538.721 64H31.0987C30.0327 64 28.9775 63.787 27.995 63.3734L5.87143 54.061C2.9045 52.8121 0.975098 49.9066 0.975098 46.6876V4.9151C0.975098 2.93674 2.16123 1.15121 3.9849 0.384311C4.58809 0.130658 5.23585 0 5.8902 0H516.863C517.929 0 518.983 0.212849 519.966 0.626053L542.102 9.93946Z" fill="#0ED4FF"/>
</svg>
