<svg width="343" height="44" viewBox="0 0 343 44" fill="none" xmlns="http://www.w3.org/2000/svg">
<path d="M125.367 27C124.956 27 124.625 26.8833 124.373 26.65C124.13 26.4073 124.009 26.09 124.009 25.698V17.2H125.941V25.32H131.261V27H125.367ZM135.328 27.112C134.591 27.112 133.937 26.958 133.368 26.65C132.808 26.3327 132.369 25.894 132.052 25.334C131.744 24.7647 131.59 24.1067 131.59 23.36V20.84C131.59 20.0933 131.744 19.44 132.052 18.88C132.369 18.3107 132.808 17.872 133.368 17.564C133.937 17.2467 134.591 17.088 135.328 17.088H136.812C137.549 17.088 138.198 17.2467 138.758 17.564C139.327 17.872 139.766 18.3107 140.074 18.88C140.391 19.44 140.55 20.0933 140.55 20.84V23.36C140.55 24.1067 140.391 24.7647 140.074 25.334C139.766 25.894 139.327 26.3327 138.758 26.65C138.198 26.958 137.549 27.112 136.812 27.112H135.328ZM136.812 25.404C137.353 25.404 137.787 25.208 138.114 24.816C138.45 24.424 138.618 23.9107 138.618 23.276V20.924C138.618 20.2893 138.45 19.776 138.114 19.384C137.787 18.992 137.353 18.796 136.812 18.796H135.328C134.787 18.796 134.348 18.992 134.012 19.384C133.685 19.776 133.522 20.2893 133.522 20.924V23.276C133.522 23.9107 133.685 24.424 134.012 24.816C134.348 25.208 134.787 25.404 135.328 25.404H136.812ZM145.361 27.112C144.642 27.112 144.007 26.958 143.457 26.65C142.906 26.342 142.477 25.908 142.169 25.348C141.87 24.7787 141.721 24.1253 141.721 23.388V20.812C141.721 20.0747 141.87 19.426 142.169 18.866C142.477 18.2967 142.906 17.858 143.457 17.55C144.017 17.242 144.661 17.088 145.389 17.088H146.957C147.657 17.088 148.273 17.228 148.805 17.508C149.337 17.788 149.747 18.1847 150.037 18.698C150.335 19.2113 150.485 19.804 150.485 20.476H148.581C148.581 19.972 148.431 19.566 148.133 19.258C147.834 18.95 147.442 18.796 146.957 18.796H145.389C144.866 18.796 144.446 18.992 144.129 19.384C143.811 19.7667 143.653 20.2707 143.653 20.896V23.304C143.653 23.9293 143.807 24.438 144.115 24.83C144.432 25.2127 144.847 25.404 145.361 25.404H147.013C147.489 25.404 147.881 25.2313 148.189 24.886C148.506 24.5407 148.665 24.1113 148.665 23.598V23.29H145.949V21.61H150.569V23.598C150.569 24.2793 150.419 24.886 150.121 25.418C149.822 25.95 149.402 26.3653 148.861 26.664C148.319 26.9627 147.703 27.112 147.013 27.112H145.361ZM152.108 17.2H154.04V27H152.108V17.2ZM155.919 17.2H157.641L162.345 23.864V17.2H164.235V27H162.513L157.809 20.336V27H155.919V17.2ZM172.339 27C172.021 27 171.755 26.9207 171.541 26.762C171.326 26.6033 171.177 26.3187 171.093 25.908L169.357 17.2H171.317L172.521 24.158H172.549L174.579 17.718H175.279C175.512 17.718 175.713 17.7787 175.881 17.9C176.058 18.0213 176.193 18.2407 176.287 18.558L177.995 24.144H178.023L179.227 17.2H181.187L179.437 25.908C179.362 26.2813 179.222 26.5567 179.017 26.734C178.821 26.9113 178.55 27 178.205 27H177.393L175.307 20.28H175.279L173.151 27H172.339ZM182.418 17.2H184.35V27H182.418V17.2ZM188.637 18.88H185.529V17.2H193.677V18.88H190.569V27H188.637V18.88ZM194.72 17.2H196.652V21.246H201.216V17.2H203.148V27H201.216V22.926H196.652V27H194.72V17.2ZM214.651 24.718H210.983L210.115 27H208.099L211.935 17.2H212.803C213.41 17.2 213.82 17.48 214.035 18.04L217.521 27H215.505L214.651 24.718ZM211.501 23.094H214.133L212.831 19.566H212.817L211.501 23.094ZM218.44 17.2H223.606C224.176 17.2 224.68 17.312 225.118 17.536C225.557 17.7507 225.898 18.0633 226.14 18.474C226.383 18.8753 226.504 19.3373 226.504 19.86V21.162C226.504 21.7033 226.378 22.184 226.126 22.604C225.874 23.0147 225.52 23.3367 225.062 23.57C224.614 23.794 224.092 23.906 223.494 23.906H220.372V27H218.44V17.2ZM223.466 22.226C223.793 22.226 224.059 22.1233 224.264 21.918C224.47 21.7033 224.572 21.4233 224.572 21.078V19.944C224.572 19.6173 224.479 19.3607 224.292 19.174C224.115 18.978 223.877 18.88 223.578 18.88H220.372V22.226H223.466ZM227.573 17.2H232.739C233.308 17.2 233.812 17.312 234.251 17.536C234.69 17.7507 235.03 18.0633 235.273 18.474C235.516 18.8753 235.637 19.3373 235.637 19.86V21.162C235.637 21.7033 235.511 22.184 235.259 22.604C235.007 23.0147 234.652 23.3367 234.195 23.57C233.747 23.794 233.224 23.906 232.627 23.906H229.505V27H227.573V17.2ZM232.599 22.226C232.926 22.226 233.192 22.1233 233.397 21.918C233.602 21.7033 233.705 21.4233 233.705 21.078V19.944C233.705 19.6173 233.612 19.3607 233.425 19.174C233.248 18.978 233.01 18.88 232.711 18.88H229.505V22.226H232.599ZM238.064 27C237.653 27 237.322 26.8833 237.07 26.65C236.827 26.4073 236.706 26.09 236.706 25.698V17.2H238.638V25.32H243.958V27H238.064ZM246.294 27C245.893 27 245.566 26.8787 245.314 26.636C245.062 26.3933 244.936 26.076 244.936 25.684V17.2H252.412V18.88H246.868V21.148H251.992V22.828H246.868V25.32H252.412V27H246.294Z" fill="white"/>
<path d="M337.593 10.9202C340.254 11.9815 342 14.5573 342 17.4222V35.7741C342 38.6406 340.252 41.2175 337.589 42.2777L337.022 42.5036C336.198 42.8316 335.319 43 334.433 43H31.6111C30.7226 43 29.8422 42.8308 29.0169 42.5015L5.40579 33.0803C2.74526 32.0187 1 29.4433 1 26.5788V5.12253C1 3.43504 2.02844 1.91792 3.59598 1.29305C4.08164 1.09945 4.5997 1 5.12253 1H311.375C312.263 1 313.143 1.16902 313.968 1.49803L337.593 10.9202Z" stroke="url(#paint0_linear_8_134)" stroke-width="2"/>
<g clip-path="url(#clip0_8_134)">
<path d="M103.4 17.1328C103.348 17.1334 103.296 17.1237 103.248 17.1043C103.2 17.0849 103.156 17.0563 103.119 17.0199C103.082 16.9836 103.052 16.9403 103.032 16.8925C103.011 16.8447 103.001 16.7933 103 16.7413C103 15.2267 104.254 14 105.799 14C105.851 13.9993 105.903 14.0089 105.951 14.0282C105.999 14.0475 106.043 14.0762 106.08 14.1126C106.117 14.1489 106.147 14.1923 106.167 14.2402C106.188 14.288 106.199 14.3395 106.199 14.3915C106.199 15.9061 104.946 17.1328 103.4 17.1328Z" fill="white"/>
<path d="M103.4 17.1328C103.348 17.1334 103.297 17.1237 103.248 17.1043C103.2 17.0849 103.156 17.0563 103.119 17.0199C103.082 16.9836 103.052 16.9403 103.032 16.8925C103.011 16.8447 103.001 16.7933 103 16.7413C103 15.2267 104.254 14 105.799 14C105.851 13.9993 105.903 14.0089 105.951 14.0282C105.999 14.0475 106.043 14.0762 106.08 14.1126C106.118 14.1489 106.147 14.1923 106.168 14.2402C106.188 14.288 106.199 14.3395 106.199 14.3915C106.199 15.9061 104.946 17.1328 103.4 17.1328ZM109.24 25.3792C109.395 25.4923 109.445 25.6992 109.357 25.8677C107.949 28.6261 106.826 30 105.8 30C105.322 30 104.853 29.8485 104.395 29.5541C104.067 29.3433 103.687 29.2273 103.296 29.219C102.906 29.2107 102.521 29.3105 102.184 29.5072C101.629 29.8325 101.101 30 100.6 30C99.0908 30 96.6001 25.4485 96.6001 22.9515C96.6001 20.2848 98.0284 18.2517 100.2 18.2517C101.222 18.2517 102.104 18.3989 102.845 18.6987C103.159 18.8245 103.514 18.816 103.82 18.672C104.422 18.3883 105.216 18.2517 106.199 18.2517C107.401 18.2517 108.45 18.8384 109.32 19.9744C109.352 20.0154 109.375 20.0622 109.388 20.1122C109.401 20.1622 109.403 20.2143 109.396 20.2654C109.389 20.3166 109.371 20.3657 109.344 20.4099C109.317 20.454 109.282 20.4924 109.24 20.5227C108.268 21.2373 107.8 22.0384 107.8 22.9515C107.8 23.8635 108.268 24.6656 109.24 25.3792Z" fill="white"/>
<path d="M109.24 25.3792C109.395 25.4923 109.445 25.6992 109.357 25.8677C107.949 28.6261 106.826 30 105.8 30C105.322 30 104.853 29.8485 104.395 29.5541C104.067 29.3433 103.687 29.2273 103.296 29.219C102.906 29.2107 102.521 29.3105 102.184 29.5072C101.629 29.8325 101.101 30 100.6 30C99.0908 30 96.6001 25.4485 96.6001 22.9515C96.6001 20.2848 98.0284 18.2517 100.2 18.2517C101.222 18.2517 102.104 18.3989 102.845 18.6987C103.159 18.8245 103.514 18.816 103.82 18.672C104.422 18.3883 105.216 18.2517 106.199 18.2517C107.401 18.2517 108.45 18.8384 109.32 19.9744C109.352 20.0154 109.375 20.0622 109.388 20.1122C109.401 20.1622 109.403 20.2143 109.396 20.2654C109.389 20.3166 109.371 20.3657 109.344 20.4099C109.317 20.454 109.282 20.4924 109.24 20.5227C108.268 21.2373 107.8 22.0384 107.8 22.9515C107.8 23.8635 108.268 24.6656 109.24 25.3792Z" fill="white"/>
</g>
<defs>
<linearGradient id="paint0_linear_8_134" x1="46.3122" y1="4.99999" x2="291.625" y2="82.7875" gradientUnits="userSpaceOnUse">
<stop stop-color="white"/>
<stop offset="0.34" stop-color="#DCBFFC"/>
<stop offset="1" stop-color="#7700FF"/>
</linearGradient>
<clipPath id="clip0_8_134">
<rect width="16" height="16" fill="white" transform="translate(95 14)"/>
</clipPath>
</defs>
</svg>
