<svg width="343" height="44" viewBox="0 0 343 44" fill="none" xmlns="http://www.w3.org/2000/svg">
<path d="M118.666 27C118.256 27 117.924 26.8833 117.672 26.65C117.43 26.4073 117.308 26.09 117.308 25.698V17.2H119.24V25.32H124.56V27H118.666ZM128.628 27.112C127.89 27.112 127.237 26.958 126.668 26.65C126.108 26.3327 125.669 25.894 125.352 25.334C125.044 24.7647 124.89 24.1067 124.89 23.36V20.84C124.89 20.0933 125.044 19.44 125.352 18.88C125.669 18.3107 126.108 17.872 126.668 17.564C127.237 17.2467 127.89 17.088 128.628 17.088H130.112C130.849 17.088 131.498 17.2467 132.058 17.564C132.627 17.872 133.066 18.3107 133.374 18.88C133.691 19.44 133.85 20.0933 133.85 20.84V23.36C133.85 24.1067 133.691 24.7647 133.374 25.334C133.066 25.894 132.627 26.3327 132.058 26.65C131.498 26.958 130.849 27.112 130.112 27.112H128.628ZM130.112 25.404C130.653 25.404 131.087 25.208 131.414 24.816C131.75 24.424 131.918 23.9107 131.918 23.276V20.924C131.918 20.2893 131.75 19.776 131.414 19.384C131.087 18.992 130.653 18.796 130.112 18.796H128.628C128.086 18.796 127.648 18.992 127.312 19.384C126.985 19.776 126.822 20.2893 126.822 20.924V23.276C126.822 23.9107 126.985 24.424 127.312 24.816C127.648 25.208 128.086 25.404 128.628 25.404H130.112ZM138.661 27.112C137.942 27.112 137.307 26.958 136.757 26.65C136.206 26.342 135.777 25.908 135.469 25.348C135.17 24.7787 135.021 24.1253 135.021 23.388V20.812C135.021 20.0747 135.17 19.426 135.469 18.866C135.777 18.2967 136.206 17.858 136.757 17.55C137.317 17.242 137.961 17.088 138.689 17.088H140.257C140.957 17.088 141.573 17.228 142.105 17.508C142.637 17.788 143.047 18.1847 143.337 18.698C143.635 19.2113 143.785 19.804 143.785 20.476H141.881C141.881 19.972 141.731 19.566 141.433 19.258C141.134 18.95 140.742 18.796 140.257 18.796H138.689C138.166 18.796 137.746 18.992 137.429 19.384C137.111 19.7667 136.953 20.2707 136.953 20.896V23.304C136.953 23.9293 137.107 24.438 137.415 24.83C137.732 25.2127 138.147 25.404 138.661 25.404H140.313C140.789 25.404 141.181 25.2313 141.489 24.886C141.806 24.5407 141.965 24.1113 141.965 23.598V23.29H139.249V21.61H143.869V23.598C143.869 24.2793 143.719 24.886 143.421 25.418C143.122 25.95 142.702 26.3653 142.161 26.664C141.619 26.9627 141.003 27.112 140.313 27.112H138.661ZM145.407 17.2H147.339V27H145.407V17.2ZM149.219 17.2H150.941L155.645 23.864V17.2H157.535V27H155.813L151.109 20.336V27H149.219V17.2ZM165.639 27C165.321 27 165.055 26.9207 164.841 26.762C164.626 26.6033 164.477 26.3187 164.393 25.908L162.657 17.2H164.617L165.821 24.158H165.849L167.879 17.718H168.579C168.812 17.718 169.013 17.7787 169.181 17.9C169.358 18.0213 169.493 18.2407 169.587 18.558L171.295 24.144H171.323L172.527 17.2H174.487L172.737 25.908C172.662 26.2813 172.522 26.5567 172.317 26.734C172.121 26.9113 171.85 27 171.505 27H170.693L168.607 20.28H168.579L166.451 27H165.639ZM175.718 17.2H177.65V27H175.718V17.2ZM181.937 18.88H178.829V17.2H186.977V18.88H183.869V27H181.937V18.88ZM188.019 17.2H189.951V21.246H194.515V17.2H196.447V27H194.515V22.926H189.951V27H188.019V17.2ZM205.571 27.112C204.852 27.112 204.217 26.958 203.667 26.65C203.116 26.342 202.687 25.908 202.379 25.348C202.08 24.7787 201.931 24.1253 201.931 23.388V20.812C201.931 20.0747 202.08 19.426 202.379 18.866C202.687 18.2967 203.116 17.858 203.667 17.55C204.227 17.242 204.871 17.088 205.599 17.088H207.167C207.867 17.088 208.483 17.228 209.015 17.508C209.547 17.788 209.957 18.1847 210.247 18.698C210.545 19.2113 210.695 19.804 210.695 20.476H208.791C208.791 19.972 208.641 19.566 208.343 19.258C208.044 18.95 207.652 18.796 207.167 18.796H205.599C205.076 18.796 204.656 18.992 204.339 19.384C204.021 19.7667 203.863 20.2707 203.863 20.896V23.304C203.863 23.9293 204.017 24.438 204.325 24.83C204.642 25.2127 205.057 25.404 205.571 25.404H207.223C207.699 25.404 208.091 25.2313 208.399 24.886C208.716 24.5407 208.875 24.1113 208.875 23.598V23.29H206.159V21.61H210.779V23.598C210.779 24.2793 210.629 24.886 210.331 25.418C210.032 25.95 209.612 26.3653 209.071 26.664C208.529 26.9627 207.913 27.112 207.223 27.112H205.571ZM215.636 27.112C214.898 27.112 214.245 26.958 213.676 26.65C213.116 26.3327 212.677 25.894 212.36 25.334C212.052 24.7647 211.898 24.1067 211.898 23.36V20.84C211.898 20.0933 212.052 19.44 212.36 18.88C212.677 18.3107 213.116 17.872 213.676 17.564C214.245 17.2467 214.898 17.088 215.636 17.088H217.12C217.857 17.088 218.506 17.2467 219.066 17.564C219.635 17.872 220.074 18.3107 220.382 18.88C220.699 19.44 220.858 20.0933 220.858 20.84V23.36C220.858 24.1067 220.699 24.7647 220.382 25.334C220.074 25.894 219.635 26.3327 219.066 26.65C218.506 26.958 217.857 27.112 217.12 27.112H215.636ZM217.12 25.404C217.661 25.404 218.095 25.208 218.422 24.816C218.758 24.424 218.926 23.9107 218.926 23.276V20.924C218.926 20.2893 218.758 19.776 218.422 19.384C218.095 18.992 217.661 18.796 217.12 18.796H215.636C215.094 18.796 214.656 18.992 214.32 19.384C213.993 19.776 213.83 20.2893 213.83 20.924V23.276C213.83 23.9107 213.993 24.424 214.32 24.816C214.656 25.208 215.094 25.404 215.636 25.404H217.12ZM225.766 27.112C225.029 27.112 224.376 26.958 223.806 26.65C223.246 26.3327 222.808 25.894 222.49 25.334C222.182 24.7647 222.028 24.1067 222.028 23.36V20.84C222.028 20.0933 222.182 19.44 222.49 18.88C222.808 18.3107 223.246 17.872 223.806 17.564C224.376 17.2467 225.029 17.088 225.766 17.088H227.25C227.988 17.088 228.636 17.2467 229.196 17.564C229.766 17.872 230.204 18.3107 230.512 18.88C230.83 19.44 230.988 20.0933 230.988 20.84V23.36C230.988 24.1067 230.83 24.7647 230.512 25.334C230.204 25.894 229.766 26.3327 229.196 26.65C228.636 26.958 227.988 27.112 227.25 27.112H225.766ZM227.25 25.404C227.792 25.404 228.226 25.208 228.552 24.816C228.888 24.424 229.056 23.9107 229.056 23.276V20.924C229.056 20.2893 228.888 19.776 228.552 19.384C228.226 18.992 227.792 18.796 227.25 18.796H225.766C225.225 18.796 224.786 18.992 224.45 19.384C224.124 19.776 223.96 20.2893 223.96 20.924V23.276C223.96 23.9107 224.124 24.424 224.45 24.816C224.786 25.208 225.225 25.404 225.766 25.404H227.25ZM235.799 27.112C235.081 27.112 234.446 26.958 233.895 26.65C233.345 26.342 232.915 25.908 232.607 25.348C232.309 24.7787 232.159 24.1253 232.159 23.388V20.812C232.159 20.0747 232.309 19.426 232.607 18.866C232.915 18.2967 233.345 17.858 233.895 17.55C234.455 17.242 235.099 17.088 235.827 17.088H237.395C238.095 17.088 238.711 17.228 239.243 17.508C239.775 17.788 240.186 18.1847 240.475 18.698C240.774 19.2113 240.923 19.804 240.923 20.476H239.019C239.019 19.972 238.87 19.566 238.571 19.258C238.273 18.95 237.881 18.796 237.395 18.796H235.827C235.305 18.796 234.885 18.992 234.567 19.384C234.25 19.7667 234.091 20.2707 234.091 20.896V23.304C234.091 23.9293 234.245 24.438 234.553 24.83C234.871 25.2127 235.286 25.404 235.799 25.404H237.451C237.927 25.404 238.319 25.2313 238.627 24.886C238.945 24.5407 239.103 24.1113 239.103 23.598V23.29H236.387V21.61H241.007V23.598C241.007 24.2793 240.858 24.886 240.559 25.418C240.261 25.95 239.841 26.3653 239.299 26.664C238.758 26.9627 238.142 27.112 237.451 27.112H235.799ZM243.764 27C243.353 27 243.022 26.8833 242.77 26.65C242.527 26.4073 242.406 26.09 242.406 25.698V17.2H244.338V25.32H249.658V27H243.764ZM251.995 27C251.593 27 251.267 26.8787 251.015 26.636C250.763 26.3933 250.637 26.076 250.637 25.684V17.2H258.113V18.88H252.569V21.148H257.693V22.828H252.569V25.32H258.113V27H251.995Z" fill="white"/>
<path d="M337.593 10.9202C340.254 11.9815 342 14.5573 342 17.4222V35.7741C342 38.6406 340.252 41.2175 337.589 42.2777L337.022 42.5036C336.198 42.8316 335.319 43 334.433 43H31.6111C30.7226 43 29.8422 42.8308 29.0169 42.5015L5.40579 33.0803C2.74526 32.0187 1 29.4433 1 26.5788V5.12253C1 3.43504 2.02844 1.91792 3.59598 1.29305C4.08164 1.09945 4.5997 1 5.12253 1H311.375C312.263 1 313.143 1.16902 313.968 1.49803L337.593 10.9202Z" stroke="url(#paint0_linear_8_130)" stroke-width="2"/>
<g clip-path="url(#clip0_8_130)">
<path d="M93.5739 14.5262C91.9752 15.0808 90.5965 16.1335 89.6404 17.5295C88.6842 18.9255 88.2009 20.5914 88.2614 22.2825C88.322 23.9735 88.9232 25.6005 89.9768 26.9246C91.0304 28.2486 92.4809 29.1999 94.1151 29.6387C95.44 29.9806 96.8281 29.9956 98.1601 29.6825C99.3668 29.4115 100.482 28.8317 101.398 28C102.35 27.1079 103.042 25.9731 103.398 24.7175C103.784 23.3521 103.853 21.9162 103.599 20.52H96.1589V23.6062H100.468C100.382 24.0985 100.197 24.5683 99.9251 24.9875C99.6531 25.4068 99.2994 25.7669 98.8851 26.0462C98.359 26.3944 97.7659 26.6286 97.1439 26.7337C96.52 26.8498 95.8802 26.8498 95.2564 26.7337C94.6241 26.6032 94.0259 26.3422 93.5001 25.9675C92.6553 25.3695 92.021 24.5199 91.6876 23.54C91.3487 22.5417 91.3487 21.4595 91.6876 20.4612C91.9249 19.7615 92.3172 19.1244 92.8351 18.5975C93.4279 17.9834 94.1783 17.5445 95.0041 17.3288C95.8298 17.1132 96.6991 17.1292 97.5164 17.375C98.1549 17.5709 98.7387 17.9133 99.2214 18.375C99.7072 17.8917 100.192 17.4071 100.676 16.9212C100.926 16.66 101.199 16.4112 101.445 16.1437C100.708 15.4581 99.8434 14.9246 98.9001 14.5737C97.1822 13.95 95.3026 13.9332 93.5739 14.5262Z" fill="white"/>
<path d="M93.5737 14.5262C95.3023 13.9328 97.182 13.9491 98.9 14.5725C99.8435 14.9258 100.708 15.4618 101.444 16.15C101.194 16.4175 100.93 16.6675 100.675 16.9275C100.19 17.4117 99.7054 17.8942 99.2212 18.375C98.7386 17.9133 98.1547 17.5709 97.5162 17.375C96.6992 17.1283 95.83 17.1114 95.004 17.3262C94.178 17.5409 93.4271 17.9791 92.8337 18.5925C92.3158 19.1194 91.9235 19.7565 91.6862 20.4562L89.095 18.45C90.0225 16.6107 91.6284 15.2038 93.5737 14.5262Z" fill="#E33629"/>
<path d="M88.4074 20.4375C88.5466 19.7472 88.7778 19.0787 89.0949 18.45L91.6862 20.4612C91.3473 21.4595 91.3473 22.5417 91.6862 23.54C90.8229 24.2067 89.9591 24.8767 89.0949 25.55C88.3014 23.9704 88.0594 22.1706 88.4074 20.4375Z" fill="#F8BD00"/>
<path d="M96.1588 20.5188H103.599C103.853 21.9149 103.784 23.3508 103.398 24.7163C103.042 25.9719 102.35 27.1067 101.398 27.9988C100.561 27.3463 99.7213 26.6988 98.885 26.0463C99.2996 25.7666 99.6535 25.4061 99.9254 24.9864C100.197 24.5667 100.382 24.0964 100.468 23.6038H96.1588C96.1575 22.5763 96.1588 21.5475 96.1588 20.5188Z" fill="#587DBD"/>
<path d="M89.0938 25.55C89.9579 24.8833 90.8217 24.2133 91.685 23.54C92.019 24.5202 92.6543 25.3699 93.5 25.9675C94.0274 26.3405 94.6269 26.5993 95.26 26.7275C95.8838 26.8435 96.5237 26.8435 97.1475 26.7275C97.7695 26.6224 98.3627 26.3882 98.8888 26.04C99.725 26.6925 100.565 27.34 101.401 27.9925C100.486 28.8247 99.3705 29.4048 98.1637 29.6762C96.8318 29.9894 95.4437 29.9744 94.1188 29.6325C93.0709 29.3527 92.0921 28.8595 91.2438 28.1837C90.3459 27.4708 89.6125 26.5724 89.0938 25.55Z" fill="#319F43"/>
</g>
<defs>
<linearGradient id="paint0_linear_8_130" x1="46.3122" y1="4.99999" x2="291.625" y2="82.7875" gradientUnits="userSpaceOnUse">
<stop stop-color="white"/>
<stop offset="0.34" stop-color="#CC9FFF"/>
<stop offset="1" stop-color="#7700FF"/>
</linearGradient>
<clipPath id="clip0_8_130">
<rect width="16" height="16" fill="white" transform="translate(88 14)"/>
</clipPath>
</defs>
</svg>
