<svg width="767" height="81" viewBox="0 0 767 81" fill="none" xmlns="http://www.w3.org/2000/svg">
<path d="M0.404297 70.9036V46.4789C0.404297 46.3415 0.47293 46.1354 0.610197 45.8606C0.747464 45.5171 0.884731 45.2766 1.022 45.1392C1.022 45.0705 1.12495 44.9331 1.33085 44.727C1.39948 44.6582 1.50243 44.5895 1.6397 44.5208C1.91423 44.4521 2.42898 44.3491 3.18395 44.2117C4.00755 44.0743 4.55662 43.9712 4.83115 43.9025V43.2841L0.404297 41.9444V9.89352H10.2875V0H65.8806V21.3329H26.1418V28.65C25.8673 28.5126 25.2839 28.2034 24.3917 27.7225C23.5681 27.1728 22.9847 26.8293 22.6415 26.6919H22.0238H21.4061C21.2689 26.6919 20.9943 26.7262 20.5825 26.7949C20.2394 26.8637 19.8619 26.9324 19.4501 27.0011C19.0383 27.0698 18.6265 27.1385 18.2147 27.2072C17.8715 27.2759 17.6656 27.3102 17.597 27.3102C17.3911 27.3789 17.0479 27.4476 16.5675 27.5164C16.1557 27.5851 15.7096 27.6538 15.2291 27.7225C14.7487 27.7912 14.3026 27.8599 13.8908 27.9286C13.479 27.9973 13.2044 28.0316 13.0672 28.0316H12.7583H12.4495C12.2436 28.0316 11.8661 27.9973 11.317 27.9286C10.7679 27.8599 10.1846 27.7912 9.56686 27.7225C9.01779 27.6538 8.46873 27.5851 7.91966 27.5164C7.37059 27.4476 6.99311 27.3789 6.78721 27.3102L6.16951 28.0316C6.16951 28.1003 6.23814 28.2034 6.37541 28.3408C6.51267 28.4782 6.64994 28.5813 6.78721 28.65C6.92447 28.65 7.30196 28.753 7.91966 28.9592C8.53736 29.0966 8.98348 29.1996 9.25801 29.2683C9.46391 29.2683 9.73844 29.3027 10.0816 29.3714C10.4934 29.4401 10.9052 29.5088 11.317 29.5775C11.7288 29.6462 12.1063 29.7149 12.4495 29.7836C12.7926 29.8523 12.9985 29.8867 13.0672 29.8867C13.4103 29.8867 14.028 29.921 14.9203 29.9897C15.8811 30.0584 16.842 30.1271 17.8029 30.1958C18.8324 30.2646 19.7932 30.3333 20.6855 30.402C21.6463 30.4707 22.2984 30.505 22.6415 30.505L26.1418 33.6998V59.4642H65.8806V80.7971H49.3056C49.237 80.7971 49.0311 80.7284 48.6879 80.591C48.4134 80.4536 48.2075 80.3161 48.0702 80.1787C47.9329 80.0413 47.6927 79.8352 47.3496 79.5604C47.075 79.2169 46.9034 78.9764 46.8348 78.839C46.8348 78.6329 46.8005 78.3237 46.7319 77.9115C46.6632 77.4305 46.5946 76.9152 46.526 76.3656C46.4573 75.816 46.3887 75.3007 46.3201 74.8197C46.2514 74.3388 46.1828 73.9953 46.1142 73.7892C46.1142 73.6518 46.0455 73.4113 45.9083 73.0678C45.771 72.7242 45.6337 72.5525 45.4965 72.5525C45.4965 72.4838 45.3935 72.4494 45.1876 72.4494C45.0503 72.3807 44.9131 72.3464 44.7758 72.3464C44.7072 72.3464 44.6042 72.3807 44.467 72.4494C44.3297 72.4494 44.2611 72.4838 44.2611 72.5525L42.305 80.7971H10.2875V70.9036H0.404297ZM83.7014 55.3419C83.5641 55.2732 83.2553 55.1701 82.7748 55.0327C82.2944 54.8953 81.9512 54.7922 81.7453 54.7235C81.6081 54.7235 81.2649 54.6548 80.7158 54.5174C80.1668 54.38 79.5491 54.2426 78.8627 54.1052C78.245 53.9678 77.6616 53.8647 77.1126 53.796C76.5635 53.6586 76.2203 53.5555 76.0831 53.4868L73.5093 50.9104C73.3721 50.773 73.2348 50.5669 73.0975 50.2921C72.9603 49.9485 72.8916 49.7424 72.8916 49.6737V0H134.559V46.1698H127.559V49.9829H134.559V80.7971H108.204V51.5287H99.2469V80.7971H89.2607C89.2607 80.6597 89.2607 80.3505 89.2607 79.8696C89.3293 79.3886 89.3636 79.0451 89.3636 78.839C89.4323 78.7703 89.5695 78.4955 89.7754 78.0145C89.9813 77.4649 90.0843 77.1214 90.0843 76.9839V73.3769V69.3577C90.0843 69.0829 90.05 68.5332 89.9813 67.7088C89.9127 66.8843 89.8441 66.0599 89.7754 65.2354C89.7068 64.3422 89.6382 63.5178 89.5695 62.762C89.5009 61.9376 89.4323 61.3879 89.3636 61.1131C89.3636 60.9757 89.295 60.5635 89.1577 59.8764C89.0205 59.1894 88.8832 58.7428 88.7459 58.5367C88.7459 58.3992 88.643 58.1931 88.4371 57.9183C88.2998 57.5748 88.1969 57.3687 88.1282 57.3V73.7892C88.1282 73.9266 88.0596 74.3045 87.9223 74.9228C87.7851 75.5411 87.6478 76.0221 87.5105 76.3656C87.4419 76.503 87.339 76.7435 87.2017 77.087C87.0644 77.3618 86.9615 77.5336 86.8928 77.6023C86.6869 77.8084 86.4124 78.1176 86.0692 78.5298C85.7261 78.8733 85.3829 79.2169 85.0397 79.5604C84.6966 79.9039 84.3877 80.2131 84.1132 80.4879C83.8387 80.694 83.7014 80.7971 83.7014 80.7971H72.8916V57.9183C72.8916 57.8496 73.1318 57.7465 73.6123 57.6091C74.0927 57.4717 74.5045 57.3687 74.8477 57.3C74.9163 57.3 75.1222 57.2656 75.4654 57.1969C75.8772 57.1282 76.289 57.0595 76.7008 56.9908C77.1126 56.8534 77.4901 56.7503 77.8332 56.6816C78.245 56.6129 78.5196 56.5786 78.6568 56.5786C78.8627 56.5786 79.2059 56.5099 79.6863 56.3724C80.1668 56.235 80.6472 56.0976 81.1276 55.9602C81.6767 55.8228 82.1914 55.7198 82.6719 55.651C83.1523 55.5136 83.4955 55.4106 83.7014 55.3419ZM99.5557 29.2683H108.204V25.7644H120.558C120.352 25.627 119.837 25.4552 119.013 25.2491C118.19 24.9743 117.641 24.8369 117.366 24.8369C117.229 24.8369 116.92 24.8025 116.44 24.7338C115.959 24.6651 115.41 24.5964 114.792 24.5277C114.243 24.459 113.729 24.3903 113.248 24.3216C112.768 24.2529 112.459 24.2185 112.322 24.2185C111.978 24.1498 111.567 24.1155 111.086 24.1155C110.606 24.0467 110.16 23.9437 109.748 23.8063C109.267 23.7376 108.753 23.6345 108.204 23.4971V21.6421H99.5557V29.2683ZM150.692 44.2117V36.5854H142.147V29.5775H153.575C153.369 29.4401 152.854 29.2683 152.03 29.0622C151.207 28.7874 150.658 28.65 150.383 28.65C150.246 28.65 149.937 28.6156 149.456 28.5469C148.976 28.4782 148.427 28.4095 147.809 28.3408C147.26 28.2721 146.745 28.2034 146.265 28.1347C145.785 28.066 145.476 28.0316 145.339 28.0316C144.858 27.8942 144.206 27.7568 143.382 27.6194C142.559 27.482 142.147 27.3789 142.147 27.3102V0H168.502V29.2683H177.15C177.15 29.0622 177.15 28.6843 177.15 28.1347C177.219 27.5851 177.287 27.0011 177.356 26.3827C177.425 25.7644 177.493 25.1804 177.562 24.6307C177.631 24.0811 177.699 23.7032 177.768 23.4971C177.768 23.3597 177.836 23.1536 177.974 22.8788C178.18 22.5352 178.317 22.3291 178.385 22.2604C178.454 22.1917 178.626 22.0887 178.9 21.9512C179.243 21.8138 179.484 21.7108 179.621 21.6421C179.827 21.5734 180.239 21.6077 180.856 21.7451C181.543 21.8138 181.989 21.8482 182.195 21.8482V20.4054C181.989 20.3367 181.543 20.2336 180.856 20.0962C180.239 19.9588 179.827 19.8214 179.621 19.684C179.484 19.684 179.312 19.6496 179.106 19.5809C178.9 19.5122 178.694 19.4435 178.488 19.3748C178.214 19.3061 177.974 19.203 177.768 19.0656V0H203.814V5.97733C203.677 5.97733 203.437 5.94298 203.094 5.87428C202.819 5.80557 202.613 5.77122 202.476 5.77122C202.407 5.70251 202.098 5.4964 201.549 5.15287C201.069 4.74064 200.76 4.50017 200.623 4.43147C200.485 4.36276 200.348 4.29406 200.211 4.22535C200.142 4.15665 200.039 4.08794 199.902 4.01924C199.696 3.95053 199.525 3.88183 199.387 3.81312C199.25 3.81312 198.976 3.84747 198.564 3.91618C198.221 3.98488 197.843 4.05359 197.431 4.1223C197.019 4.191 196.608 4.25971 196.196 4.32841C195.853 4.39711 195.647 4.43147 195.578 4.43147C195.235 4.50017 194.823 4.56888 194.343 4.63758C193.862 4.70629 193.382 4.775 192.901 4.8437C192.421 4.91241 192.009 4.98111 191.666 5.04982C191.323 5.04982 191.117 5.04982 191.048 5.04982C190.774 5.04982 190.259 5.08417 189.504 5.15287C188.818 5.15287 188.063 5.15287 187.239 5.15287C186.416 5.15287 185.626 5.15287 184.871 5.15287C184.185 5.08417 183.705 5.04982 183.43 5.04982C183.499 5.18723 183.602 5.32464 183.739 5.46205C183.876 5.59946 183.979 5.70251 184.048 5.77122C184.185 5.83992 184.494 5.94298 184.974 6.08039C185.455 6.2178 185.798 6.32086 186.004 6.38955C186.141 6.45827 186.381 6.52697 186.724 6.59568C187.068 6.66438 187.411 6.73309 187.754 6.80179C188.097 6.8705 188.406 6.9392 188.681 7.00791C188.955 7.00791 189.127 7.00791 189.195 7.00791C189.607 7.00791 190.293 7.04226 191.254 7.11097C192.284 7.17967 193.382 7.24838 194.549 7.31708C195.715 7.38579 196.814 7.45449 197.843 7.5232C198.873 7.5919 199.593 7.62625 200.005 7.62625C200.142 7.76366 200.348 7.96978 200.623 8.2446C200.966 8.51942 201.275 8.82859 201.549 9.17212C201.892 9.51564 202.201 9.85917 202.476 10.2027C202.819 10.4775 203.059 10.6836 203.196 10.821C203.265 10.9584 203.368 11.1646 203.505 11.4394C203.711 11.7142 203.814 11.9203 203.814 12.0577V36.5854H195.166V44.2117H186.93V80.7971H178.385L177.768 80.1787C177.699 80.11 177.493 79.8696 177.15 79.4573C176.876 79.0451 176.532 78.6329 176.121 78.2206C175.777 77.8084 175.434 77.4305 175.091 77.087C174.817 76.6748 174.645 76.4343 174.576 76.3656C174.508 76.2969 174.439 76.2282 174.37 76.1595C174.37 76.0908 174.336 76.0221 174.267 75.9534C174.199 75.8847 174.096 75.816 173.959 75.7473H173.65C173.581 75.7473 173.513 75.7816 173.444 75.8503C173.444 75.9877 173.41 76.1938 173.341 76.4687C173.272 76.6748 173.238 76.8465 173.238 76.9839C173.307 77.2588 173.41 77.7397 173.547 78.4268C173.684 79.0451 173.821 79.423 173.959 79.5604L174.576 80.1787V80.4879V80.694C174.576 80.7627 174.611 80.7971 174.679 80.7971H160.266V44.2117H150.692ZM221.538 55.3419C221.4 55.2732 221.091 55.1701 220.611 55.0327C220.131 54.8953 219.787 54.7922 219.581 54.7235C219.444 54.7235 219.101 54.6548 218.552 54.5174C218.003 54.38 217.385 54.2426 216.699 54.1052C216.081 53.9678 215.498 53.8647 214.949 53.796C214.4 53.6586 214.056 53.5555 213.919 53.4868L211.345 50.9104C211.208 50.773 211.071 50.5669 210.934 50.2921C210.796 49.9485 210.728 49.7424 210.728 49.6737V0H272.395V57.6091H237.083V80.7971H227.097C227.097 80.6597 227.097 80.3505 227.097 79.8696C227.165 79.3886 227.2 79.0451 227.2 78.839C227.268 78.7703 227.406 78.4955 227.612 78.0145C227.817 77.4649 227.92 77.1214 227.92 76.9839V73.3769V69.3577C227.92 69.0829 227.886 68.5332 227.817 67.7088C227.749 66.8843 227.68 66.0599 227.612 65.2354C227.543 64.3422 227.474 63.5178 227.406 62.762C227.337 61.9376 227.268 61.3879 227.2 61.1131C227.2 60.9757 227.131 60.5635 226.994 59.8764C226.857 59.1894 226.719 58.7428 226.582 58.5367C226.582 58.3992 226.479 58.1931 226.273 57.9183C226.136 57.5748 226.033 57.3687 225.964 57.3V73.7892C225.964 73.9266 225.896 74.3045 225.758 74.9228C225.621 75.5411 225.484 76.0221 225.347 76.3656C225.278 76.503 225.175 76.7435 225.038 77.087C224.901 77.3618 224.798 77.5336 224.729 77.6023C224.523 77.8084 224.249 78.1176 223.905 78.5298C223.562 78.8733 223.219 79.2169 222.876 79.5604C222.533 79.9039 222.224 80.2131 221.949 80.4879C221.675 80.694 221.538 80.7971 221.538 80.7971H210.728V57.9183C210.728 57.8496 210.968 57.7465 211.448 57.6091C211.929 57.4717 212.341 57.3687 212.684 57.3C212.752 57.3 212.958 57.2656 213.302 57.1969C213.713 57.1282 214.125 57.0595 214.537 56.9908C214.949 56.8534 215.326 56.7503 215.669 56.6816C216.081 56.6129 216.356 56.5786 216.493 56.5786C216.699 56.5786 217.042 56.5099 217.522 56.3724C218.003 56.235 218.483 56.0976 218.964 55.9602C219.513 55.8228 220.028 55.7198 220.508 55.651C220.988 55.5136 221.332 55.4106 221.538 55.3419ZM237.392 38.1313H246.04V25.7644H258.394C258.188 25.627 257.673 25.4552 256.849 25.2491C256.026 24.9743 255.477 24.8369 255.202 24.8369C255.065 24.8369 254.756 24.8025 254.276 24.7338C253.795 24.6651 253.246 24.5964 252.628 24.5277C252.079 24.459 251.565 24.3903 251.084 24.3216C250.604 24.2529 250.295 24.2185 250.158 24.2185C249.815 24.1498 249.403 24.1155 248.922 24.1155C248.442 24.0467 247.996 23.9437 247.584 23.8063C247.104 23.7376 246.589 23.6345 246.04 23.4971V19.0656H237.392V38.1313ZM301.015 34.3181C301.084 34.3181 301.118 34.2151 301.118 34.009V33.9059C301.118 33.8372 301.084 33.7685 301.015 33.6998C300.946 33.6998 300.672 33.6311 300.191 33.4937C299.711 33.2876 299.368 33.1502 299.162 33.0815C298.887 33.0128 298.373 32.9097 297.618 32.7723C296.931 32.5662 296.485 32.4631 296.279 32.4631V21.3329H278.778V0H340.445V21.0237H334.062C333.993 21.0237 333.856 20.7833 333.65 20.3023C333.513 19.8214 333.444 19.4092 333.444 19.0656C333.444 18.9969 333.444 18.8252 333.444 18.5503C333.444 18.2068 333.444 17.8633 333.444 17.5198C333.444 17.1075 333.444 16.764 333.444 16.4892C333.444 16.1457 333.444 15.9396 333.444 15.8709L333.135 15.5617C332.93 15.493 332.827 15.3899 332.827 15.2525C332.758 15.1838 332.655 14.9777 332.518 14.6342C332.381 14.2906 332.278 14.0845 332.209 14.0158C332.072 13.9471 331.831 13.8441 331.488 13.7066C331.145 13.5692 330.939 13.4662 330.871 13.3975C330.802 13.2601 330.699 13.054 330.562 12.7791C330.424 12.4356 330.322 12.1951 330.253 12.0577C330.184 12.0577 330.047 11.989 329.841 11.8516C329.704 11.6455 329.635 11.5081 329.635 11.4394C329.567 11.302 329.361 10.9928 329.017 10.5119C328.674 9.96222 328.434 9.65305 328.297 9.58435C328.16 9.37823 327.988 9.13776 327.782 8.86294C327.576 8.58812 327.37 8.3133 327.164 8.03848C326.89 7.76366 326.65 7.42014 326.444 7.00791H325.826C325.826 7.21402 325.895 7.66061 326.032 8.34766C326.238 8.966 326.375 9.37823 326.444 9.58435C326.512 9.58435 326.615 9.6874 326.753 9.89352C326.958 10.0309 327.061 10.134 327.061 10.2027C327.13 10.2714 327.233 10.4775 327.37 10.821C327.576 11.1646 327.679 11.3707 327.679 11.4394L328.297 12.0577C328.365 12.1951 328.365 12.5387 328.297 13.0883C328.297 13.5692 328.297 13.8784 328.297 14.0158C328.434 14.1532 328.743 14.4968 329.223 15.0464C329.772 15.5273 330.116 15.8021 330.253 15.8709C330.39 16.0083 330.527 16.2487 330.665 16.5923C330.802 16.8671 330.871 17.0732 330.871 17.2106C330.939 17.5541 331.008 18.2412 331.077 19.2718C331.145 20.3023 331.179 20.9894 331.179 21.3329H322.943V80.7971H317.59C317.521 80.4536 317.418 79.8352 317.281 78.942C317.144 77.9802 317.007 77.3275 316.869 76.9839C316.869 76.8465 316.766 76.4687 316.561 75.8503C316.423 75.1633 316.32 74.6823 316.252 74.4075C316.183 74.1327 316.08 73.7548 315.943 73.2739C315.806 72.7929 315.703 72.5525 315.634 72.5525L315.428 72.4494C315.359 72.4494 315.291 72.4838 315.222 72.5525C315.222 72.5525 315.188 72.5525 315.119 72.5525H315.016C314.948 72.5525 314.81 72.6555 314.604 72.8616C314.467 72.9991 314.399 73.1021 314.399 73.1708C314.399 73.3769 314.364 73.7205 314.296 74.2014C314.227 74.6823 314.158 75.1976 314.09 75.7473C314.021 76.2282 313.952 76.7091 313.884 77.1901C313.815 77.671 313.781 78.0145 313.781 78.2206C313.781 78.358 313.678 78.5985 313.472 78.942C313.335 79.2169 313.197 79.423 313.06 79.5604C313.06 79.6291 312.957 79.7321 312.751 79.8696C312.614 80.007 312.511 80.11 312.443 80.1787C312.305 80.3161 312.065 80.4536 311.722 80.591C311.447 80.7284 311.276 80.7971 311.207 80.7971H296.588V36.2762C296.588 36.1388 296.725 35.9327 297 35.6579C297.343 35.3144 297.618 35.1083 297.824 35.0396C298.098 34.9021 298.613 34.7647 299.368 34.6273C300.191 34.4212 300.741 34.3181 301.015 34.3181ZM351.785 69.3577C351.785 69.3577 351.82 69.289 351.888 69.1516V69.0485C351.888 68.8424 351.854 68.7393 351.785 68.7393C351.785 68.6706 351.545 68.5676 351.065 68.4302C350.584 68.2928 350.207 68.1897 349.932 68.121C349.726 67.9836 349.28 67.8462 348.594 67.7088C347.976 67.5714 347.564 67.4683 347.359 67.3996V0H377.832C377.969 0 378.175 0.171762 378.45 0.515287C378.793 0.858812 379.033 1.09928 379.17 1.23669C379.239 1.3741 379.342 1.68327 379.479 2.16421C379.616 2.64514 379.719 2.98866 379.788 3.19478C379.788 3.33219 379.822 3.60701 379.891 4.01924C379.959 4.43147 380.028 4.91241 380.097 5.46205C380.165 5.94298 380.234 6.42392 380.303 6.90485C380.371 7.31708 380.406 7.55755 380.406 7.62625C380.406 7.69496 380.474 7.83237 380.611 8.03848C380.749 8.17589 380.886 8.2446 381.023 8.2446L381.332 8.34766H381.538C381.607 8.34766 381.641 8.3133 381.641 8.2446C381.71 8.03848 381.778 7.69496 381.847 7.21403C381.984 6.73309 382.121 6.25215 382.259 5.77122C382.465 5.22158 382.602 4.70629 382.67 4.22535C382.808 3.74442 382.911 3.40089 382.979 3.19478C383.048 2.98866 383.151 2.47338 383.288 1.64892C383.425 0.82446 383.528 0.27482 383.597 0H393.068L398.216 4.43147C398.285 4.50017 398.559 4.50017 399.04 4.43147C399.589 4.29406 400.206 4.1223 400.893 3.91618C401.579 3.71007 402.265 3.50395 402.952 3.29784C403.638 3.02302 404.187 2.78255 404.599 2.57643C404.667 2.50773 404.839 2.37032 405.114 2.16421C405.388 1.88939 405.663 1.61457 405.937 1.33975C406.212 1.06493 406.452 0.82446 406.658 0.618345C406.864 0.343513 407.001 0.13741 407.07 0H417.262V35.0396L416.644 35.6579C416.507 35.7953 416.267 35.9327 415.923 36.0701C415.649 36.2075 415.443 36.2762 415.306 36.2762C415.237 36.3449 414.928 36.3449 414.379 36.2762C413.899 36.2075 413.59 36.2075 413.453 36.2762C413.384 36.3449 413.247 36.448 413.041 36.5854C412.904 36.7228 412.835 36.8259 412.835 36.8946C412.972 36.9633 413.178 37.1007 413.453 37.3068C413.727 37.4442 413.933 37.5129 414.07 37.5129C414.208 37.5816 414.619 37.6847 415.306 37.8221C416.061 37.9595 416.507 38.0626 416.644 38.1313C416.781 38.2 416.919 38.303 417.056 38.4404C417.193 38.5779 417.262 38.7153 417.262 38.8527V80.7971H347.359V71.2127C347.359 71.144 347.53 70.9723 347.873 70.6974C348.216 70.3539 348.457 70.1134 348.594 69.976C348.868 69.8386 349.383 69.7012 350.138 69.5638C350.962 69.4264 351.511 69.3577 351.785 69.3577ZM373.405 59.155H391.524V52.3532C391.593 52.3532 391.73 52.3189 391.936 52.2501C392.211 52.1814 392.382 52.1471 392.451 52.1471C392.588 52.2158 393 52.4563 393.686 52.8685C394.441 53.212 394.887 53.4181 395.024 53.4868H396.157H397.598C397.667 53.4868 397.873 53.4525 398.216 53.3838C398.628 53.2464 399.04 53.1433 399.451 53.0746C399.863 53.0059 400.241 52.9372 400.584 52.8685C400.996 52.7998 401.27 52.7654 401.407 52.7654C401.819 52.7654 402.506 52.7654 403.466 52.7654C404.427 52.6967 405.457 52.6624 406.555 52.6624C407.722 52.6624 408.785 52.6624 409.746 52.6624C410.707 52.5937 411.394 52.5593 411.805 52.5593C411.805 52.4219 411.702 52.2845 411.496 52.1471C411.428 52.0784 411.222 51.9753 410.879 51.8379C410.604 51.7005 410.398 51.5975 410.261 51.5287C409.987 51.46 409.438 51.357 408.614 51.2196C407.79 51.0135 407.276 50.9104 407.07 50.9104C406.658 50.9104 405.903 50.876 404.805 50.8073C403.775 50.7386 402.643 50.6699 401.407 50.6012C400.172 50.5325 399.005 50.4638 397.907 50.3951C396.809 50.3264 396.054 50.2921 395.642 50.2921L391.524 46.4789V21.6421H373.405V59.155ZM425.476 70.9036V46.4789C425.476 46.3415 425.544 46.1354 425.682 45.8606C425.819 45.5171 425.956 45.2766 426.093 45.1392C426.093 45.0705 426.196 44.9331 426.402 44.727C426.471 44.6582 426.574 44.5895 426.711 44.5208C426.986 44.4521 427.5 44.3491 428.255 44.2117C429.079 44.0743 429.628 43.9712 429.903 43.9025V43.2841L425.476 41.9444V9.89352H435.359V0H490.952V21.3329H451.213V28.65C450.939 28.5126 450.355 28.2034 449.463 27.7225C448.639 27.1728 448.056 26.8293 447.713 26.6919H447.095H446.477C446.34 26.6919 446.066 26.7262 445.654 26.7949C445.311 26.8637 444.933 26.9324 444.521 27.0011C444.11 27.0698 443.698 27.1385 443.286 27.2072C442.943 27.2759 442.737 27.3102 442.668 27.3102C442.462 27.3789 442.119 27.4476 441.639 27.5164C441.227 27.5851 440.781 27.6538 440.301 27.7225C439.82 27.7912 439.374 27.8599 438.962 27.9286C438.55 27.9973 438.276 28.0316 438.139 28.0316H437.83H437.521C437.315 28.0316 436.937 27.9973 436.388 27.9286C435.839 27.8599 435.256 27.7912 434.638 27.7225C434.089 27.6538 433.54 27.5851 432.991 27.5164C432.442 27.4476 432.064 27.3789 431.859 27.3102L431.241 28.0316C431.241 28.1003 431.31 28.2034 431.447 28.3408C431.584 28.4782 431.721 28.5813 431.859 28.65C431.996 28.65 432.373 28.753 432.991 28.9592C433.609 29.0966 434.055 29.1996 434.329 29.2683C434.535 29.2683 434.81 29.3027 435.153 29.3714C435.565 29.4401 435.977 29.5088 436.388 29.5775C436.8 29.6462 437.178 29.7149 437.521 29.7836C437.864 29.8523 438.07 29.8867 438.139 29.8867C438.482 29.8867 439.099 29.921 439.992 29.9897C440.952 30.0584 441.913 30.1271 442.874 30.1958C443.904 30.2646 444.865 30.3333 445.757 30.402C446.718 30.4707 447.37 30.505 447.713 30.505L451.213 33.6998V59.4642H490.952V80.7971H474.377C474.308 80.7971 474.102 80.7284 473.759 80.591C473.485 80.4536 473.279 80.3161 473.142 80.1787C473.004 80.0413 472.764 79.8352 472.421 79.5604C472.146 79.2169 471.975 78.9764 471.906 78.839C471.906 78.6329 471.872 78.3237 471.803 77.9115C471.735 77.4305 471.666 76.9152 471.597 76.3656C471.529 75.816 471.46 75.3007 471.391 74.8197C471.323 74.3388 471.254 73.9953 471.186 73.7892C471.186 73.6518 471.117 73.4113 470.98 73.0678C470.842 72.7242 470.705 72.5525 470.568 72.5525C470.568 72.4838 470.465 72.4494 470.259 72.4494C470.122 72.3807 469.984 72.3464 469.847 72.3464C469.779 72.3464 469.676 72.3807 469.538 72.4494C469.401 72.4494 469.332 72.4838 469.332 72.5525L467.376 80.7971H435.359V70.9036H425.476ZM508.773 55.3419C508.636 55.2732 508.327 55.1701 507.847 55.0327C507.366 54.8953 507.023 54.7922 506.817 54.7235C506.68 54.7235 506.337 54.6548 505.788 54.5174C505.239 54.38 504.621 54.2426 503.935 54.1052C503.317 53.9678 502.734 53.8647 502.185 53.796C501.635 53.6586 501.292 53.5555 501.155 53.4868L498.581 50.9104C498.444 50.773 498.307 50.5669 498.169 50.2921C498.032 49.9485 497.964 49.7424 497.964 49.6737V0H559.631V46.1698H552.63V49.9829H559.631V80.7971H533.276V51.5287H524.319V80.7971H514.333C514.333 80.6597 514.333 80.3505 514.333 79.8696C514.401 79.3886 514.436 79.0451 514.436 78.839C514.504 78.7703 514.642 78.4955 514.847 78.0145C515.053 77.4649 515.156 77.1214 515.156 76.9839V73.3769V69.3577C515.156 69.0829 515.122 68.5332 515.053 67.7088C514.985 66.8843 514.916 66.0599 514.847 65.2354C514.779 64.3422 514.71 63.5178 514.642 62.762C514.573 61.9376 514.504 61.3879 514.436 61.1131C514.436 60.9757 514.367 60.5635 514.23 59.8764C514.092 59.1894 513.955 58.7428 513.818 58.5367C513.818 58.3992 513.715 58.1931 513.509 57.9183C513.372 57.5748 513.269 57.3687 513.2 57.3V73.7892C513.2 73.9266 513.132 74.3045 512.994 74.9228C512.857 75.5411 512.72 76.0221 512.583 76.3656C512.514 76.503 512.411 76.7435 512.274 77.087C512.136 77.3618 512.033 77.5336 511.965 77.6023C511.759 77.8084 511.484 78.1176 511.141 78.5298C510.798 78.8733 510.455 79.2169 510.112 79.5604C509.769 79.9039 509.46 80.2131 509.185 80.4879C508.911 80.694 508.773 80.7971 508.773 80.7971H497.964V57.9183C497.964 57.8496 498.204 57.7465 498.684 57.6091C499.165 57.4717 499.576 57.3687 499.92 57.3C499.988 57.3 500.194 57.2656 500.537 57.1969C500.949 57.1282 501.361 57.0595 501.773 56.9908C502.185 56.8534 502.562 56.7503 502.905 56.6816C503.317 56.6129 503.592 56.5786 503.729 56.5786C503.935 56.5786 504.278 56.5099 504.758 56.3724C505.239 56.235 505.719 56.0976 506.2 55.9602C506.749 55.8228 507.263 55.7198 507.744 55.651C508.224 55.5136 508.567 55.4106 508.773 55.3419ZM524.628 29.2683H533.276V25.7644H545.63C545.424 25.627 544.909 25.4552 544.085 25.2491C543.262 24.9743 542.713 24.8369 542.438 24.8369C542.301 24.8369 541.992 24.8025 541.512 24.7338C541.031 24.6651 540.482 24.5964 539.864 24.5277C539.315 24.459 538.8 24.3903 538.32 24.3216C537.84 24.2529 537.531 24.2185 537.393 24.2185C537.05 24.1498 536.639 24.1155 536.158 24.1155C535.678 24.0467 535.232 23.9437 534.82 23.8063C534.339 23.7376 533.825 23.6345 533.276 23.4971V21.6421H524.628V29.2683ZM611.693 0C611.83 0.206115 612.105 0.480935 612.516 0.82446C612.997 1.09928 613.34 1.23669 613.546 1.23669C613.82 1.23669 614.267 1.09928 614.884 0.82446C615.571 0.480935 615.982 0.206115 616.12 0H629.503V63.2773C629.366 63.2773 629.023 63.243 628.474 63.1742C627.993 63.1055 627.684 63.0368 627.547 62.9681C627.41 62.9681 626.998 62.762 626.312 62.3498C625.625 61.9376 625.214 61.7314 625.076 61.7314C624.87 61.7314 624.459 61.6971 623.841 61.6284C623.223 61.5597 622.537 61.491 621.782 61.4223C621.096 61.3536 620.375 61.2849 619.62 61.2162C618.934 61.1474 618.419 61.1131 618.076 61.1131C618.007 61.1131 617.767 61.1131 617.355 61.1131C617.012 61.1131 616.6 61.1131 616.12 61.1131C615.708 61.0444 615.262 61.01 614.781 61.01C614.37 61.01 614.026 61.01 613.752 61.01C613.477 61.01 613.1 61.01 612.619 61.01C612.208 61.01 611.796 61.0444 611.384 61.1131C610.972 61.1131 610.595 61.1131 610.252 61.1131C609.977 61.1131 609.805 61.1131 609.737 61.1131C609.668 61.1131 609.394 61.1818 608.913 61.3192C608.433 61.4566 608.09 61.594 607.884 61.7314C607.678 61.8688 607.232 62.075 606.545 62.3498C605.859 62.6246 605.447 62.8307 605.31 62.9681L604.692 63.5865C604.624 63.7239 604.589 63.8269 604.589 63.8956V64.3079C604.589 64.3766 604.589 64.4796 604.589 64.6171C604.658 64.7545 604.692 64.8575 604.692 64.9262C604.761 64.7888 604.864 64.6514 605.001 64.514C605.138 64.3766 605.241 64.3079 605.31 64.3079C605.447 64.1705 605.653 64.0331 605.928 63.8956C606.271 63.7582 606.511 63.6552 606.648 63.5865C606.854 63.4491 607.266 63.3117 607.884 63.1742C608.57 63.0368 608.982 62.9681 609.119 62.9681H612.928H616.737C616.806 62.9681 617.012 63.0025 617.355 63.0712C617.698 63.0712 618.076 63.1055 618.488 63.1742C618.899 63.243 619.277 63.3117 619.62 63.3804C620.032 63.4491 620.341 63.5178 620.547 63.5865C620.684 63.6552 620.993 63.7582 621.473 63.8956C622.022 64.0331 622.365 64.1705 622.503 64.3079C622.64 64.3766 622.949 64.5827 623.429 64.9262C623.978 65.2697 624.287 65.4759 624.356 65.5446C624.493 65.6133 624.905 65.7163 625.591 65.8537C626.346 65.9911 626.792 66.0942 626.93 66.1629C627.067 66.3003 627.273 66.4377 627.547 66.5751C627.89 66.6438 628.199 66.7469 628.474 66.8843C628.748 67.0904 629.091 67.2622 629.503 67.3996V80.7971H603.148V59.155H594.191V81.0032C593.917 81.0032 593.471 81.0032 592.853 81.0032C592.235 81.0032 591.549 80.9688 590.794 80.9001C590.108 80.9001 589.456 80.8658 588.838 80.7971C588.22 80.7971 587.774 80.7971 587.5 80.7971C587.156 80.7284 586.504 80.6253 585.544 80.4879C584.583 80.3505 583.965 80.2474 583.69 80.1787C583.553 80.11 583.141 79.8696 582.455 79.4573C581.769 79.0451 581.357 78.839 581.22 78.839C580.876 78.9077 580.396 79.1825 579.778 79.6634C579.161 80.1444 578.783 80.5223 578.646 80.7971H567.836V0H611.693ZM594.5 39.471H602.839V19.0656H594.5V39.471ZM698.759 0V21.0237H682.802V15.8709C682.733 15.8709 682.63 15.8021 682.493 15.6647C682.356 15.4586 682.253 15.3212 682.184 15.2525C682.116 15.1838 682.013 14.9777 681.875 14.6342C681.738 14.2906 681.635 14.0845 681.567 14.0158C681.498 13.9471 681.292 13.8441 680.949 13.7066C680.606 13.5692 680.4 13.4662 680.331 13.3975C680.194 13.2601 680.057 13.054 679.919 12.7791C679.782 12.4356 679.679 12.1951 679.611 12.0577L678.993 11.4394C678.924 11.302 678.718 10.9928 678.375 10.5119C678.032 9.96222 677.826 9.65305 677.758 9.58435C677.62 9.37823 677.414 9.13776 677.14 8.86294C676.934 8.58812 676.728 8.3133 676.522 8.03848C676.247 7.76366 676.007 7.42014 675.801 7.00791H675.184C675.252 7.21402 675.355 7.66061 675.493 8.34766C675.63 8.966 675.733 9.37823 675.801 9.58435C675.87 9.58435 675.973 9.6874 676.11 9.89352C676.316 10.0309 676.453 10.134 676.522 10.2027C676.522 10.2714 676.591 10.4775 676.728 10.821C676.934 11.1646 677.071 11.3707 677.14 11.4394C677.14 11.5768 677.243 11.6798 677.449 11.7486L677.758 12.0577C677.826 12.1951 677.826 12.5387 677.758 13.0883C677.689 13.5692 677.689 13.8784 677.758 14.0158C677.826 14.1532 678.135 14.4968 678.684 15.0464C679.233 15.5273 679.542 15.8021 679.611 15.8709C679.748 16.0083 679.885 16.2487 680.022 16.5923C680.228 16.8671 680.331 17.0732 680.331 17.2106V19.0656V20.4054L678.993 21.3329H664.374V29.5775H698.759V50.9104H679.508C679.508 50.773 679.508 50.5669 679.508 50.2921C679.576 49.9485 679.611 49.7424 679.611 49.6737C679.679 49.4676 679.782 49.021 679.919 48.334C680.125 47.6469 680.331 46.9255 680.537 46.1698C680.812 45.3453 681.018 44.5895 681.155 43.9025C681.361 43.2154 681.498 42.8032 681.567 42.6658C681.567 42.5971 681.567 42.494 681.567 42.3566C681.635 42.2192 681.67 42.0818 681.67 41.9444C681.67 41.8757 681.635 41.7726 681.567 41.6352C681.567 41.4978 681.567 41.3948 681.567 41.3261C681.361 41.4635 681.018 41.7726 680.537 42.2536C680.057 42.7345 679.748 43.078 679.611 43.2841C679.473 43.559 679.199 44.0743 678.787 44.83C678.444 45.5858 678.066 46.3759 677.655 47.2003C677.243 48.0248 676.865 48.8493 676.522 49.6737C676.179 50.4295 675.939 50.9448 675.801 51.2196H664.065V80.7971H637.71V0H698.759ZM727.292 34.3181C727.361 34.3181 727.395 34.2151 727.395 34.009V33.9059C727.395 33.8372 727.361 33.7685 727.292 33.6998C727.224 33.6998 726.949 33.6311 726.469 33.4937C725.988 33.2876 725.645 33.1502 725.439 33.0815C725.165 33.0128 724.65 32.9097 723.895 32.7723C723.209 32.5662 722.763 32.4631 722.557 32.4631V21.3329H705.055V0H766.722V21.0237H760.339C760.271 21.0237 760.134 20.7833 759.928 20.3023C759.79 19.8214 759.722 19.4092 759.722 19.0656C759.722 18.9969 759.722 18.8252 759.722 18.5503C759.722 18.2068 759.722 17.8633 759.722 17.5198C759.722 17.1075 759.722 16.764 759.722 16.4892C759.722 16.1457 759.722 15.9396 759.722 15.8709L759.413 15.5617C759.207 15.493 759.104 15.3899 759.104 15.2525C759.035 15.1838 758.932 14.9777 758.795 14.6342C758.658 14.2906 758.555 14.0845 758.486 14.0158C758.349 13.9471 758.109 13.8441 757.766 13.7066C757.422 13.5692 757.217 13.4662 757.148 13.3975C757.079 13.2601 756.976 13.054 756.839 12.7791C756.702 12.4356 756.599 12.1951 756.53 12.0577C756.462 12.0577 756.324 11.989 756.118 11.8516C755.981 11.6455 755.913 11.5081 755.913 11.4394C755.844 11.302 755.638 10.9928 755.295 10.5119C754.952 9.96222 754.711 9.65305 754.574 9.58435C754.437 9.37823 754.265 9.13776 754.059 8.86294C753.854 8.58812 753.648 8.3133 753.442 8.03848C753.167 7.76366 752.927 7.42014 752.721 7.00791H752.103C752.103 7.21402 752.172 7.66061 752.309 8.34766C752.515 8.966 752.653 9.37823 752.721 9.58435C752.79 9.58435 752.893 9.6874 753.03 9.89352C753.236 10.0309 753.339 10.134 753.339 10.2027C753.407 10.2714 753.51 10.4775 753.648 10.821C753.854 11.1646 753.957 11.3707 753.957 11.4394L754.574 12.0577C754.643 12.1951 754.643 12.5387 754.574 13.0883C754.574 13.5692 754.574 13.8784 754.574 14.0158C754.711 14.1532 755.02 14.4968 755.501 15.0464C756.05 15.5273 756.393 15.8021 756.53 15.8709C756.668 16.0083 756.805 16.2487 756.942 16.5923C757.079 16.8671 757.148 17.0732 757.148 17.2106C757.217 17.5541 757.285 18.2412 757.354 19.2718C757.422 20.3023 757.457 20.9894 757.457 21.3329H749.221V80.7971H743.867C743.799 80.4536 743.696 79.8352 743.559 78.942C743.421 77.9802 743.284 77.3275 743.147 76.9839C743.147 76.8465 743.044 76.4687 742.838 75.8503C742.701 75.1633 742.598 74.6823 742.529 74.4075C742.46 74.1327 742.357 73.7548 742.22 73.2739C742.083 72.7929 741.98 72.5525 741.911 72.5525L741.705 72.4494C741.637 72.4494 741.568 72.4838 741.5 72.5525C741.5 72.5525 741.465 72.5525 741.397 72.5525H741.294C741.225 72.5525 741.088 72.6555 740.882 72.8616C740.745 72.9991 740.676 73.1021 740.676 73.1708C740.676 73.3769 740.642 73.7205 740.573 74.2014C740.504 74.6823 740.436 75.1976 740.367 75.7473C740.298 76.2282 740.23 76.7091 740.161 77.1901C740.093 77.671 740.058 78.0145 740.058 78.2206C740.058 78.358 739.955 78.5985 739.749 78.942C739.612 79.2169 739.475 79.423 739.338 79.5604C739.338 79.6291 739.235 79.7321 739.029 79.8696C738.891 80.007 738.789 80.11 738.72 80.1787C738.583 80.3161 738.342 80.4536 737.999 80.591C737.725 80.7284 737.553 80.7971 737.484 80.7971H722.866V36.2762C722.866 36.1388 723.003 35.9327 723.277 35.6579C723.621 35.3144 723.895 35.1083 724.101 35.0396C724.376 34.9021 724.89 34.7647 725.645 34.6273C726.469 34.4212 727.018 34.3181 727.292 34.3181Z" fill="url(#paint0_linear_740_279)"/>
<defs>
<linearGradient id="paint0_linear_740_279" x1="0.404297" y1="40.5016" x2="766.722" y2="40.5016" gradientUnits="userSpaceOnUse">
<stop stop-color="#A5FF16"/>
<stop offset="0.510598" stop-color="#0ED4FF"/>
<stop offset="1" stop-color="white"/>
</linearGradient>
</defs>
</svg>
