<svg width="366" height="84" viewBox="0 0 366 84" fill="none" xmlns="http://www.w3.org/2000/svg">
<path d="M0 30.8224V19.0848C0 19.055 0.0746664 19.0102 0.224 18.9504C0.373333 18.8608 0.477866 18.816 0.537598 18.816C0.627198 18.7862 0.806398 18.801 1.0752 18.8608C1.37387 18.8906 1.568 18.9056 1.6576 18.9056V18.2336C1.568 18.2336 1.37387 18.2038 1.0752 18.144C0.806398 18.0842 0.627198 18.0246 0.537598 17.9648C0.477866 17.935 0.373333 17.8902 0.224 17.8304C0.0746664 17.7706 0 17.7258 0 17.696V0H11.0656V12.0064C11.0059 12.0064 10.9013 11.9914 10.752 11.9616C10.6325 11.9318 10.5579 11.9018 10.528 11.872C10.4683 11.872 10.3189 11.7974 10.08 11.648C9.87091 11.4688 9.73651 11.3642 9.67683 11.3344C9.61707 11.3046 9.55731 11.2746 9.49763 11.2448C9.46771 11.215 9.42291 11.185 9.36323 11.1552C9.27363 11.1254 9.19891 11.0954 9.13923 11.0656C9.07947 11.0656 8.96003 11.0806 8.78083 11.1104C8.63147 11.1402 8.46723 11.1702 8.28803 11.2C8.10883 11.2298 7.92963 11.2598 7.75043 11.2896C7.60107 11.3194 7.51147 11.3344 7.4816 11.3344C7.33227 11.3642 7.15307 11.3942 6.944 11.424C6.73493 11.4538 6.52587 11.4838 6.3168 11.5136C6.10773 11.5434 5.92853 11.5734 5.7792 11.6032C5.62987 11.6032 5.54027 11.6032 5.5104 11.6032C5.39093 11.6032 5.16693 11.6182 4.8384 11.648C4.53973 11.648 4.2112 11.648 3.8528 11.648C3.4944 11.648 3.15093 11.648 2.8224 11.648C2.52373 11.6182 2.31467 11.6032 2.1952 11.6032C2.22507 11.663 2.26987 11.7226 2.3296 11.7824C2.38933 11.8422 2.44907 11.872 2.5088 11.872C2.53867 11.9318 2.65813 11.9914 2.8672 12.0512C3.07627 12.081 3.2256 12.1258 3.3152 12.1856C3.37493 12.2154 3.47947 12.2454 3.6288 12.2752C3.77813 12.305 3.92747 12.335 4.0768 12.3648C4.22613 12.3946 4.36053 12.4246 4.48 12.4544C4.59947 12.4544 4.67413 12.4544 4.704 12.4544C4.8832 12.4544 5.18187 12.4694 5.6 12.4992C6.048 12.529 6.52587 12.559 7.0336 12.5888C7.54133 12.6186 8.01923 12.6486 8.46723 12.6784C8.91523 12.7082 9.22883 12.7232 9.40803 12.7232C9.46771 12.783 9.55731 12.8726 9.67683 12.992C9.82611 13.1114 9.96051 13.2458 10.08 13.3952C10.2293 13.5446 10.3637 13.6938 10.4832 13.8432C10.6325 13.9626 10.7371 14.0522 10.7968 14.112C10.8267 14.1718 10.8565 14.2314 10.8864 14.2912C10.9461 14.321 11.0059 14.3658 11.0656 14.4256C11.1253 14.5152 11.1701 14.5898 11.2 14.6496V25.7152H17.2928V24.3264H22.1312L22.4 24.0576H21.28C21.1307 24.0576 20.9067 24.0426 20.608 24.0128C20.3093 23.983 19.9957 23.953 19.6672 23.9232C19.3387 23.8934 19.04 23.8634 18.7712 23.8336C18.5024 23.8038 18.3232 23.7888 18.2336 23.7888C18.1141 23.759 17.9499 23.7142 17.7408 23.6544C17.5317 23.5946 17.4272 23.5498 17.4272 23.52V0H28.4928V30.8224H24.192V35.392C24.1024 35.392 23.9381 35.377 23.6992 35.3472C23.4901 35.3472 23.2661 35.3322 23.0272 35.3024C22.7883 35.2726 22.5493 35.2426 22.3104 35.2128C22.1013 35.183 21.952 35.153 21.8624 35.1232C21.8027 35.0934 21.5637 34.9738 21.1456 34.7648C20.7275 34.5558 20.4139 34.3914 20.2048 34.272C20.1451 34.2422 19.9957 34.1526 19.7568 34.0032C19.5477 33.8538 19.4133 33.7642 19.3536 33.7344C19.3237 33.7344 19.264 33.7494 19.1744 33.7792C19.0848 33.7792 19.0251 33.7792 18.9952 33.7792C18.9952 33.839 19.0101 33.9734 19.04 34.1824C19.0997 34.3914 19.1147 34.5258 19.0848 34.5856C19.0549 34.6454 19.0101 34.7498 18.9504 34.8992C18.8907 35.0486 18.8459 35.1232 18.816 35.1232H4.3008V30.8224H0ZM33.7327 30.1504C33.7327 30.1504 33.7476 30.1206 33.7775 30.0608V30.016C33.7775 29.9264 33.7625 29.8816 33.7327 29.8816C33.7327 29.8518 33.6281 29.807 33.4191 29.7472C33.2099 29.6874 33.0457 29.6426 32.9263 29.6128C32.8367 29.553 32.6425 29.4934 32.3439 29.4336C32.0751 29.3738 31.8959 29.329 31.8063 29.2992V0H43.2751V4.3008H47.4415V8.4224H51.8767V12.7232H53.5343V6.8992C53.6537 6.92907 53.8927 6.95894 54.2511 6.9888C54.6095 7.01867 54.9827 7.04853 55.3711 7.0784C55.7892 7.10827 56.1625 7.13814 56.4911 7.168C56.8495 7.19787 57.1033 7.2128 57.2527 7.2128C57.3721 7.2128 57.5663 7.2128 57.8351 7.2128C58.1039 7.18294 58.3876 7.168 58.6863 7.168C58.9849 7.168 59.2687 7.168 59.5375 7.168C59.8361 7.13814 60.0452 7.1232 60.1647 7.1232C60.1647 7.09333 60.1945 7.06347 60.2543 7.0336C60.314 7.00374 60.3289 6.95893 60.2991 6.8992C60.2692 6.8992 60.1497 6.86933 59.9407 6.8096C59.7316 6.72 59.5673 6.66027 59.4479 6.6304C59.3284 6.60054 59.1641 6.55573 58.9551 6.496C58.746 6.4064 58.5369 6.34667 58.3279 6.3168C58.1187 6.25707 57.9247 6.21227 57.7455 6.1824C57.5961 6.12267 57.5215 6.0928 57.5215 6.0928C57.4617 6.0928 57.2975 6.07787 57.0287 6.048C56.7599 6.01813 56.4612 5.98827 56.1327 5.9584C55.834 5.92854 55.5503 5.89867 55.2815 5.8688C55.0127 5.83893 54.8335 5.824 54.7439 5.824C54.6841 5.79413 54.5497 5.74934 54.3407 5.6896C54.1316 5.62987 53.9972 5.58507 53.9375 5.5552C53.8777 5.49547 53.818 5.45067 53.7583 5.4208C53.6985 5.36107 53.6687 5.30133 53.6687 5.2416V0H64.4207V35.1232H58.0591C58.0292 35.1232 57.9396 35.0486 57.7903 34.8992C57.6708 34.7498 57.5812 34.6454 57.5215 34.5856C57.4916 34.5258 57.4468 34.4362 57.3871 34.3168C57.3273 34.1674 57.2825 34.063 57.2527 34.0032C57.2228 33.9434 57.1631 33.7792 57.0735 33.5104C57.0137 33.2118 56.9839 33.0176 56.9839 32.928C56.9839 32.8682 56.9689 32.7488 56.9391 32.5696C56.9091 32.3606 56.8793 32.1514 56.8495 31.9424C56.8195 31.7334 56.7897 31.5392 56.7599 31.36C56.7299 31.151 56.7151 31.0166 56.7151 30.9568C56.6553 30.7478 56.5956 30.479 56.5359 30.1504C56.4761 29.792 56.4313 29.6128 56.4015 29.6128H56.1327C56.1327 29.7622 56.1177 30.0458 56.0879 30.464C56.058 30.8822 56.0281 31.3302 55.9983 31.808C55.9684 32.256 55.9385 32.689 55.9087 33.1072C55.8788 33.5254 55.8639 33.824 55.8639 34.0032C55.834 34.1824 55.7892 34.4214 55.7295 34.72C55.6697 34.9888 55.6249 35.1232 55.5951 35.1232H53.5343V30.8224H49.0991V26.7008H44.6639V22.4H43.0063V35.1232H31.8063V30.9568C31.8063 30.927 31.8809 30.8522 32.0303 30.7328C32.1796 30.5834 32.2841 30.479 32.3439 30.4192C32.4633 30.3594 32.6873 30.2998 33.0159 30.24C33.3743 30.1802 33.6132 30.1504 33.7327 30.1504ZM71.884 12.3648C71.884 12.335 71.899 12.32 71.9288 12.32C71.9288 12.32 71.914 12.2902 71.884 12.2304V12.1856C71.884 12.1258 71.8392 12.0662 71.7496 12.0064C71.69 11.9466 71.6451 11.9018 71.6152 11.872C71.4958 11.8122 71.2868 11.7226 70.988 11.6032C70.7192 11.4538 70.57 11.3642 70.54 11.3344C70.4504 11.3046 70.3012 11.2746 70.092 11.2448C69.883 11.215 69.659 11.185 69.42 11.1552C69.1812 11.1254 68.9572 11.1104 68.748 11.1104C68.539 11.0806 68.3896 11.0656 68.3 11.0656L68.0312 10.7968V0H79.2312V25.8496H86.5784C86.6384 25.999 86.6832 26.1334 86.7128 26.2528C86.7728 26.5514 86.8176 26.7456 86.8472 26.8352V27.1488V27.3728C86.8176 27.4326 86.728 27.537 86.5784 27.6864C86.4288 27.8058 86.3248 27.8954 86.2648 27.9552C86.2648 27.985 86.22 28.0746 86.1304 28.224C86.0408 28.3434 85.9512 28.4778 85.8616 28.6272C85.772 28.7766 85.6824 28.9258 85.5928 29.0752C85.5328 29.1946 85.488 29.2694 85.4584 29.2992C85.3984 29.4186 85.2192 29.6278 84.9208 29.9264C84.652 30.1952 84.4576 30.3594 84.3383 30.4192C84.3983 30.4192 84.5176 30.4342 84.6968 30.464C84.876 30.464 84.9952 30.464 85.0552 30.464C85.1152 30.464 85.2344 30.464 85.4136 30.464C85.5928 30.4342 85.6975 30.4192 85.7271 30.4192C85.7568 30.4192 85.832 30.3446 85.9512 30.1952C86.1008 30.0458 86.2048 29.9414 86.2648 29.8816C86.384 29.7622 86.5488 29.568 86.7576 29.2992C86.9664 29.0006 87.0863 28.8214 87.116 28.7616C87.1456 28.7318 87.1904 28.6122 87.2504 28.4032C87.3104 28.1942 87.3552 28.0448 87.3848 27.9552C87.4144 27.8656 87.4448 27.7312 87.4744 27.552C87.5344 27.3728 87.5936 27.1786 87.6536 26.9696C87.7136 26.7606 87.7728 26.5664 87.8328 26.3872C87.8928 26.208 87.9224 26.0736 87.9224 25.984H94.284V35.1232H68.0312V12.992C68.0312 12.9622 68.106 12.9174 68.2552 12.8576C68.4046 12.7978 68.5092 12.753 68.5688 12.7232C68.6884 12.6934 68.8974 12.6634 69.196 12.6336C69.5246 12.6038 69.868 12.5738 70.2264 12.544C70.5848 12.5142 70.9134 12.4992 71.212 12.4992C71.5406 12.4694 71.7646 12.4544 71.884 12.4544V12.3648ZM97.0816 27.3728C97.1712 27.3728 97.32 27.3578 97.5296 27.328C97.7384 27.2982 97.9472 27.2682 98.1568 27.2384C98.3952 27.2086 98.6192 27.1786 98.8288 27.1488C99.0376 27.119 99.1872 27.104 99.2768 27.104C99.396 27.0742 99.6647 27.0294 100.083 26.9696C100.501 26.9098 100.785 26.865 100.934 26.8352C101.054 26.8054 101.293 26.7606 101.651 26.7008C102.01 26.641 102.234 26.5962 102.323 26.5664L97.0816 25.9392V11.0656C97.0816 11.0358 97.1112 10.991 97.1712 10.9312C97.2303 10.8416 97.2904 10.7968 97.3504 10.7968C97.4096 10.767 97.5744 10.7222 97.8432 10.6624C98.112 10.6026 98.3208 10.5578 98.4704 10.528C98.5896 10.4682 98.8584 10.4086 99.2768 10.3488C99.6944 10.289 99.9784 10.2442 100.128 10.2144C100.187 10.2144 100.337 10.2144 100.576 10.2144C100.814 10.1846 101.069 10.1546 101.338 10.1248C101.636 10.095 101.905 10.065 102.144 10.0352C102.382 10.0054 102.532 9.97544 102.592 9.9456C102.651 9.9456 102.756 9.91576 102.906 9.856C103.054 9.7664 103.144 9.70664 103.174 9.6768C103.264 9.64696 103.488 9.60216 103.846 9.5424C104.205 9.48264 104.443 9.43784 104.563 9.408V9.1392C104.563 9.1392 104.503 9.12424 104.384 9.0944C104.264 9.06456 104.115 9.03464 103.936 9.0048C103.757 8.97496 103.562 8.94504 103.354 8.9152C103.174 8.88536 103.025 8.8704 102.906 8.8704C102.726 8.8704 102.413 8.8704 101.965 8.8704C101.517 8.84056 101.038 8.8256 100.531 8.8256C100.053 8.8256 99.5904 8.84056 99.1424 8.8704C98.6944 8.8704 98.3808 8.8704 98.2016 8.8704C98.1416 8.84056 98.0368 8.79576 97.888 8.736C97.768 8.67624 97.6784 8.61656 97.6192 8.5568C97.5888 8.5568 97.544 8.52696 97.4848 8.4672C97.4248 8.3776 97.38 8.31784 97.3504 8.288C97.2904 8.22824 97.2303 8.13864 97.1712 8.0192C97.1112 7.86987 97.0816 7.78027 97.0816 7.7504V0H123.648V9.2736H108.685V12.8576H115.629C115.688 12.8576 115.822 12.992 116.032 13.2608C116.241 13.4998 116.375 13.6938 116.435 13.8432C116.465 13.9328 116.51 14.0822 116.57 14.2912C116.629 14.4704 116.689 14.6794 116.749 14.9184C116.808 15.1574 116.853 15.3814 116.883 15.5904C116.942 15.7994 116.973 15.9488 116.973 16.0384C117.002 15.9488 117.047 15.7994 117.107 15.5904C117.197 15.3814 117.286 15.1574 117.376 14.9184C117.466 14.6794 117.54 14.4554 117.6 14.2464C117.69 14.0374 117.764 13.903 117.824 13.8432C117.883 13.6938 118.018 13.5146 118.227 13.3056C118.436 13.0966 118.57 12.992 118.63 12.992H123.648V22.2656H108.685V25.8496H123.648V35.1232H118.944C118.914 35.1232 118.869 35.0934 118.81 35.0336C118.75 34.9738 118.69 34.9142 118.63 34.8544C118.6 34.7946 118.555 34.705 118.496 34.5856C118.436 34.4362 118.391 34.3318 118.362 34.272C118.362 34.2422 118.317 34.0182 118.227 33.6C118.167 33.1818 118.122 32.8534 118.093 32.6144C118.093 32.5546 118.078 32.4352 118.048 32.256C118.018 32.0768 117.988 31.8826 117.958 31.6736C117.928 31.4646 117.898 31.2704 117.869 31.0912C117.838 30.912 117.824 30.7776 117.824 30.688C117.794 30.7178 117.734 30.7626 117.645 30.8224C117.585 30.8822 117.555 30.927 117.555 30.9568C117.525 31.0166 117.466 31.1958 117.376 31.4944C117.316 31.793 117.286 31.9872 117.286 32.0768C117.256 32.1962 117.226 32.4054 117.197 32.704C117.166 32.9728 117.137 33.2714 117.107 33.6C117.077 33.9286 117.047 34.2422 117.018 34.5408C116.987 34.8096 116.973 35.0038 116.973 35.1232H106.221C106.19 35.1232 106.071 35.0486 105.862 34.8992C105.653 34.7498 105.489 34.6454 105.37 34.5856C105.37 34.5558 105.325 34.511 105.235 34.4512C105.175 34.3914 105.13 34.3318 105.101 34.272C105.011 34.1526 104.862 33.9584 104.653 33.6896C104.443 33.4208 104.309 33.2566 104.25 33.1968C104.19 33.1072 104.115 32.9728 104.026 32.7936C103.966 32.6144 103.891 32.4352 103.802 32.256C103.712 32.0768 103.622 31.9274 103.533 31.808C103.473 31.6586 103.443 31.569 103.443 31.5392C103.413 31.3898 103.383 31.136 103.354 30.7776C103.323 30.3894 103.294 30.001 103.264 29.6128C103.234 29.1946 103.204 28.8064 103.174 28.448C103.174 28.0598 103.174 27.791 103.174 27.6416C103.144 27.761 103.099 27.985 103.04 28.3136C102.98 28.6122 102.92 28.9408 102.861 29.2992C102.801 29.6576 102.741 30.001 102.682 30.3296C102.651 30.6282 102.622 30.8374 102.592 30.9568V34.272L101.786 35.1232H97.0816V27.3728ZM146.047 0C146.107 0.089601 146.226 0.209067 146.406 0.358401C146.615 0.477867 146.764 0.537601 146.854 0.537601C146.974 0.537601 147.167 0.477867 147.436 0.358401C147.735 0.209067 147.914 0.089601 147.974 0H153.798V27.5072C153.738 27.5072 153.589 27.4922 153.35 27.4624C153.141 27.4326 153.006 27.4026 152.946 27.3728C152.887 27.3728 152.708 27.2832 152.409 27.104C152.11 26.9248 151.931 26.8352 151.871 26.8352C151.782 26.8352 151.602 26.8202 151.334 26.7904C151.065 26.7606 150.766 26.7306 150.438 26.7008C150.139 26.671 149.826 26.641 149.497 26.6112C149.198 26.5814 148.974 26.5664 148.825 26.5664C148.795 26.5664 148.69 26.5664 148.511 26.5664C148.362 26.5664 148.183 26.5664 147.974 26.5664C147.794 26.5366 147.601 26.5216 147.391 26.5216C147.212 26.5216 147.063 26.5216 146.943 26.5216C146.824 26.5216 146.66 26.5216 146.45 26.5216C146.271 26.5216 146.092 26.5366 145.913 26.5664C145.734 26.5664 145.57 26.5664 145.42 26.5664C145.301 26.5664 145.226 26.5664 145.196 26.5664C145.166 26.5664 145.047 26.5962 144.838 26.656C144.629 26.7158 144.479 26.7754 144.39 26.8352C144.3 26.895 144.106 26.9846 143.807 27.104C143.509 27.2234 143.33 27.313 143.27 27.3728L143.001 27.6416C142.971 27.7014 142.956 27.7462 142.956 27.776V27.9552C142.956 27.985 142.956 28.0298 142.956 28.0896C142.986 28.1494 143.001 28.1942 143.001 28.224C143.031 28.1642 143.076 28.1046 143.135 28.0448C143.195 27.985 143.24 27.9552 143.27 27.9552C143.33 27.8954 143.419 27.8358 143.538 27.776C143.688 27.7162 143.793 27.6714 143.852 27.6416C143.942 27.5818 144.121 27.5222 144.39 27.4624C144.689 27.4026 144.868 27.3728 144.927 27.3728H146.585H148.242C148.273 27.3728 148.362 27.3878 148.511 27.4176C148.661 27.4176 148.825 27.4326 149.004 27.4624C149.183 27.4922 149.348 27.5222 149.497 27.552C149.676 27.5818 149.81 27.6118 149.9 27.6416C149.96 27.6714 150.094 27.7162 150.303 27.776C150.542 27.8358 150.692 27.8954 150.751 27.9552C150.811 27.985 150.946 28.0746 151.154 28.224C151.394 28.3734 151.528 28.463 151.558 28.4928C151.618 28.5226 151.797 28.5674 152.095 28.6272C152.424 28.687 152.618 28.7318 152.678 28.7616C152.738 28.8214 152.827 28.881 152.946 28.9408C153.096 28.9706 153.23 29.0154 153.35 29.0752C153.47 29.1648 153.618 29.2394 153.798 29.2992V35.1232H142.329V25.7152H138.431V35.2128C138.312 35.2128 138.118 35.2128 137.849 35.2128C137.58 35.2128 137.282 35.1978 136.953 35.168C136.654 35.168 136.37 35.153 136.102 35.1232C135.833 35.1232 135.639 35.1232 135.519 35.1232C135.37 35.0934 135.086 35.0486 134.668 34.9888C134.25 34.929 133.982 34.8842 133.862 34.8544C133.802 34.8246 133.623 34.72 133.324 34.5408C133.026 34.3616 132.846 34.272 132.786 34.272C132.638 34.3018 132.428 34.4214 132.159 34.6304C131.89 34.8394 131.726 35.0038 131.666 35.1232H126.962V0H146.047ZM138.566 17.1584H142.194V8.288H138.566V17.1584ZM173.676 25.8496V22.2656H157.369V11.0656C157.369 11.0358 157.398 10.991 157.458 10.9312C157.518 10.8416 157.578 10.7968 157.638 10.7968C157.698 10.767 157.862 10.7222 158.13 10.6624C158.399 10.6026 158.608 10.5578 158.758 10.528C158.877 10.4682 159.146 10.4086 159.564 10.3488C159.982 10.289 160.266 10.2442 160.415 10.2144C160.475 10.2144 160.624 10.2144 160.863 10.2144C161.102 10.1846 161.356 10.1546 161.625 10.1248C161.923 10.095 162.192 10.065 162.431 10.0352C162.67 10.0054 162.819 9.97544 162.879 9.9456C162.939 9.9456 163.043 9.91576 163.193 9.856C163.342 9.7664 163.432 9.70664 163.462 9.6768C163.551 9.64696 163.775 9.60216 164.134 9.5424C164.492 9.48264 164.731 9.43784 164.85 9.408V9.1392C164.85 9.1392 164.79 9.12424 164.671 9.0944C164.552 9.06456 164.402 9.03464 164.223 9.0048C164.044 8.97496 163.85 8.94504 163.641 8.9152C163.462 8.88536 163.312 8.8704 163.193 8.8704C163.014 8.8704 162.7 8.8704 162.252 8.8704C161.804 8.84056 161.326 8.8256 160.818 8.8256C160.341 8.8256 159.878 8.84056 159.43 8.8704C158.982 8.8704 158.668 8.8704 158.489 8.8704C158.429 8.84056 158.325 8.79576 158.175 8.736C158.056 8.67624 157.966 8.61656 157.906 8.5568C157.877 8.5568 157.832 8.52696 157.772 8.4672C157.712 8.3776 157.667 8.31784 157.638 8.288C157.578 8.22824 157.518 8.13864 157.458 8.0192C157.398 7.86987 157.369 7.78027 157.369 7.7504V0H185.01V9.2736H168.703V12.8576H176.185C176.185 12.9174 176.214 13.0368 176.274 13.216C176.364 13.3952 176.424 13.5146 176.454 13.5744C176.483 13.5744 176.528 13.6192 176.588 13.7088C176.678 13.7686 176.722 13.8134 176.722 13.8432C176.752 13.9328 176.797 14.0822 176.857 14.2912C176.917 14.5002 176.976 14.7242 177.036 14.9632C177.096 15.1722 177.141 15.3814 177.17 15.5904C177.23 15.7994 177.26 15.9488 177.26 16.0384C177.29 15.9488 177.334 15.7994 177.394 15.5904C177.484 15.3814 177.574 15.1574 177.663 14.9184C177.753 14.6794 177.827 14.4554 177.887 14.2464C177.977 14.0374 178.051 13.903 178.111 13.8432C178.171 13.6938 178.306 13.5146 178.514 13.3056C178.723 13.0966 178.858 12.992 178.918 12.992H185.01V35.1232H179.231C179.202 35.1232 179.157 35.0934 179.097 35.0336C179.037 34.9738 178.978 34.9142 178.918 34.8544C178.888 34.7946 178.843 34.705 178.783 34.5856C178.723 34.4362 178.678 34.3318 178.649 34.272C178.649 34.2422 178.604 34.0182 178.514 33.6C178.454 33.1818 178.41 32.8534 178.38 32.6144C178.38 32.5546 178.365 32.4352 178.335 32.256C178.306 32.0768 178.275 31.8826 178.246 31.6736C178.216 31.4646 178.186 31.2704 178.156 31.0912C178.126 30.912 178.111 30.7776 178.111 30.688C178.082 30.7178 178.022 30.7626 177.932 30.8224C177.872 30.8822 177.842 30.927 177.842 30.9568C177.813 31.0166 177.753 31.1958 177.663 31.4944C177.603 31.793 177.574 31.9872 177.574 32.0768C177.544 32.1962 177.514 32.4054 177.484 32.704C177.454 32.9728 177.424 33.2714 177.394 33.6C177.365 33.9286 177.334 34.2422 177.305 34.5408C177.275 34.8096 177.26 35.0038 177.26 35.1232H166.508C166.478 35.1232 166.358 35.0486 166.15 34.8992C165.941 34.7498 165.776 34.6454 165.657 34.5856C165.657 34.5558 165.612 34.511 165.522 34.4512C165.462 34.3914 165.418 34.3318 165.388 34.272C165.298 34.1526 165.149 33.9584 164.94 33.6896C164.731 33.4208 164.597 33.2566 164.537 33.1968C164.477 33.1072 164.402 32.9728 164.313 32.7936C164.253 32.6144 164.178 32.4352 164.089 32.256C163.999 32.0768 163.91 31.9274 163.82 31.808C163.76 31.6586 163.73 31.569 163.73 31.5392C163.701 31.3898 163.67 31.136 163.641 30.7776C163.611 30.3894 163.581 30.001 163.551 29.6128C163.522 29.1946 163.491 28.8064 163.462 28.448C163.462 28.0598 163.462 27.791 163.462 27.6416C163.432 27.761 163.387 27.985 163.327 28.3136C163.267 28.6122 163.208 28.9408 163.148 29.2992C163.088 29.6576 163.029 30.001 162.969 30.3296C162.939 30.6282 162.909 30.8374 162.879 30.9568V34.272L162.073 35.1232H157.369V25.8496H173.676ZM199.141 0L199.41 0.268799C199.439 0.328534 199.454 0.507734 199.454 0.806402C199.484 1.0752 199.499 1.28427 199.499 1.4336C199.499 1.5232 199.499 1.6576 199.499 1.8368C199.499 1.98613 199.484 2.1504 199.454 2.3296C199.454 2.5088 199.439 2.67307 199.41 2.8224C199.41 2.94187 199.41 3.01654 199.41 3.0464C199.41 3.07627 199.379 3.15093 199.32 3.2704C199.26 3.36 199.2 3.46454 199.141 3.584C199.081 3.70347 199.021 3.82293 198.962 3.9424C198.902 4.06187 198.872 4.13653 198.872 4.1664C198.842 4.1664 198.827 4.18133 198.827 4.2112V4.3008V4.3904C198.827 4.42027 198.842 4.4352 198.872 4.4352C198.902 4.49493 199.006 4.55467 199.186 4.6144C199.365 4.67413 199.484 4.704 199.544 4.704V12.7232H205.637V0H216.837V23.7888H214.328C214.387 23.8486 214.522 23.953 214.731 24.1024C214.97 24.2218 215.119 24.2966 215.179 24.3264C215.209 24.3264 215.283 24.3562 215.403 24.416C215.552 24.4758 215.702 24.5354 215.851 24.5952C216.03 24.655 216.179 24.7146 216.299 24.7744C216.448 24.8342 216.538 24.879 216.568 24.9088C216.598 24.9386 216.642 24.9834 216.702 25.0432C216.792 25.103 216.837 25.1478 216.837 25.1776V35.1232H211.864C211.864 35.0336 211.789 34.8842 211.64 34.6752C211.49 34.4662 211.371 34.3318 211.282 34.272H211.102C211.042 34.272 210.982 34.272 210.923 34.272C210.863 34.2422 210.818 34.2272 210.789 34.2272C210.729 34.2272 210.669 34.2422 210.61 34.272C210.55 34.272 210.49 34.272 210.43 34.272H210.206C210.176 34.3018 210.086 34.3616 209.938 34.4512C209.818 34.5408 209.669 34.6304 209.49 34.72C209.34 34.8096 209.19 34.8992 209.042 34.9888C208.922 35.0784 208.847 35.1232 208.818 35.1232C208.698 35.153 208.489 35.183 208.19 35.2128C207.891 35.2426 207.578 35.2726 207.25 35.3024C206.95 35.3322 206.652 35.3472 206.354 35.3472C206.085 35.377 205.89 35.392 205.771 35.392V28.224C205.771 28.1642 205.846 28 205.995 27.7312C206.144 27.4624 206.249 27.2534 206.309 27.104C206.338 27.0742 206.383 27.0294 206.443 26.9696C206.502 26.88 206.547 26.8352 206.578 26.8352C206.697 26.7754 206.891 26.671 207.16 26.5216C207.458 26.3722 207.638 26.2826 207.698 26.2528C207.817 26.223 208.026 26.1782 208.325 26.1184C208.653 26.0288 208.997 25.9392 209.355 25.8496C209.714 25.76 210.042 25.6854 210.341 25.6256C210.669 25.536 210.893 25.4762 211.013 25.4464H206.309L205.637 24.9088V22.4H199.544V35.1232H191.39V31.2704C191.36 31.2704 191.301 31.3152 191.211 31.4048C191.151 31.4646 191.122 31.5094 191.122 31.5392C191.062 31.599 190.957 31.7782 190.808 32.0768C190.688 32.3456 190.598 32.5248 190.539 32.6144C190.509 32.6742 190.464 32.8234 190.405 33.0624C190.345 33.2714 190.3 33.4058 190.27 33.4656C190.27 33.4954 190.255 33.585 190.226 33.7344C190.195 33.8538 190.166 34.0032 190.136 34.1824C190.106 34.3318 190.076 34.481 190.046 34.6304C190.016 34.7498 190.002 34.8246 190.002 34.8544C189.971 34.8842 189.882 34.929 189.733 34.9888C189.613 35.0486 189.523 35.0934 189.464 35.1232C189.374 35.153 189.18 35.168 188.882 35.168C188.613 35.1978 188.434 35.2128 188.344 35.2128V0H199.141ZM246.262 19.2192V15.904H242.544V12.8576H247.517C247.427 12.7978 247.203 12.7232 246.845 12.6336C246.486 12.5142 246.247 12.4544 246.128 12.4544C246.068 12.4544 245.934 12.4394 245.725 12.4096C245.515 12.3798 245.277 12.3498 245.008 12.32C244.769 12.2902 244.545 12.2602 244.336 12.2304C244.126 12.2006 243.992 12.1856 243.933 12.1856C243.723 12.1258 243.44 12.0662 243.082 12.0064C242.723 11.9466 242.544 11.9018 242.544 11.872V0H254.013V12.7232H257.776C257.776 12.6336 257.776 12.4694 257.776 12.2304C257.806 11.9914 257.835 11.7376 257.866 11.4688C257.895 11.2 257.925 10.9462 257.955 10.7072C257.985 10.4682 258.014 10.304 258.045 10.2144C258.045 10.1546 258.074 10.065 258.134 9.9456C258.224 9.79624 258.283 9.70664 258.314 9.6768C258.343 9.64696 258.418 9.60216 258.538 9.5424C258.686 9.48264 258.791 9.43784 258.851 9.408C258.941 9.37816 259.12 9.39304 259.389 9.4528C259.687 9.48264 259.882 9.4976 259.971 9.4976V8.8704C259.882 8.84056 259.687 8.79576 259.389 8.736C259.12 8.67624 258.941 8.61656 258.851 8.5568C258.791 8.5568 258.717 8.54184 258.627 8.512C258.538 8.48216 258.448 8.45224 258.358 8.4224C258.238 8.39256 258.134 8.34776 258.045 8.288V0H269.379V2.5984C269.319 2.5984 269.214 2.58347 269.066 2.5536C268.946 2.52373 268.856 2.5088 268.797 2.5088C268.766 2.47893 268.632 2.38933 268.394 2.24C268.184 2.0608 268.05 1.95627 267.99 1.9264C267.93 1.89653 267.87 1.86667 267.811 1.8368C267.781 1.80694 267.736 1.77707 267.677 1.7472C267.587 1.71733 267.512 1.68747 267.453 1.6576C267.393 1.6576 267.274 1.67253 267.094 1.7024C266.945 1.73227 266.781 1.76213 266.602 1.792C266.422 1.82187 266.243 1.85173 266.064 1.8816C265.914 1.91147 265.825 1.9264 265.795 1.9264C265.646 1.95627 265.466 1.98614 265.258 2.016C265.048 2.04587 264.839 2.07573 264.63 2.1056C264.421 2.13547 264.242 2.16533 264.093 2.1952C263.943 2.1952 263.854 2.1952 263.824 2.1952C263.704 2.1952 263.48 2.21014 263.152 2.24C262.853 2.24 262.525 2.24 262.166 2.24C261.808 2.24 261.464 2.24 261.136 2.24C260.837 2.21014 260.628 2.1952 260.509 2.1952C260.538 2.25493 260.583 2.31467 260.643 2.3744C260.702 2.43414 260.747 2.47893 260.778 2.5088C260.837 2.53867 260.971 2.58347 261.181 2.6432C261.39 2.70293 261.539 2.74773 261.629 2.7776C261.688 2.80747 261.793 2.83734 261.942 2.8672C262.091 2.89707 262.241 2.92693 262.39 2.9568C262.539 2.98667 262.674 3.01654 262.794 3.0464C262.913 3.0464 262.987 3.0464 263.018 3.0464C263.197 3.0464 263.495 3.06134 263.914 3.0912C264.362 3.12107 264.839 3.15093 265.347 3.1808C265.854 3.21067 266.333 3.24054 266.781 3.2704C267.229 3.30027 267.542 3.3152 267.722 3.3152C267.781 3.37494 267.87 3.46454 267.99 3.584C268.139 3.70347 268.274 3.83787 268.394 3.9872C268.542 4.13653 268.677 4.28587 268.797 4.4352C268.946 4.55467 269.05 4.64427 269.11 4.704C269.14 4.76373 269.185 4.85333 269.245 4.9728C269.334 5.09227 269.379 5.18187 269.379 5.2416V15.904H265.616V19.2192H262.032V35.1232H258.314L258.045 34.8544C258.014 34.8246 257.925 34.72 257.776 34.5408C257.656 34.3616 257.507 34.1824 257.328 34.0032C257.178 33.824 257.029 33.6598 256.88 33.5104C256.76 33.3312 256.686 33.2266 256.656 33.1968C256.626 33.167 256.596 33.137 256.566 33.1072C256.566 33.0774 256.551 33.0474 256.522 33.0176C256.491 32.9878 256.446 32.9578 256.387 32.928H256.253C256.222 32.928 256.193 32.943 256.163 32.9728C256.163 33.0326 256.148 33.1222 256.118 33.2416C256.088 33.3312 256.074 33.4058 256.074 33.4656C256.103 33.585 256.148 33.7942 256.208 34.0928C256.267 34.3616 256.327 34.5258 256.387 34.5856L256.656 34.8544V34.9888V35.0784C256.656 35.1082 256.67 35.1232 256.701 35.1232H250.429V19.2192H246.262ZM274.314 30.1504C274.314 30.1504 274.329 30.1206 274.358 30.0608V30.016C274.358 29.9264 274.344 29.8816 274.314 29.8816C274.314 29.8518 274.21 29.807 274 29.7472C273.791 29.6874 273.627 29.6426 273.507 29.6128C273.418 29.553 273.224 29.4934 272.925 29.4336C272.656 29.3738 272.477 29.329 272.387 29.2992V0H285.648C285.708 0 285.798 0.0746665 285.917 0.224C286.066 0.373333 286.171 0.477867 286.23 0.537601C286.261 0.597334 286.306 0.73173 286.365 0.940802C286.425 1.14987 286.47 1.2992 286.499 1.3888C286.499 1.44853 286.514 1.568 286.544 1.7472C286.574 1.9264 286.604 2.13547 286.634 2.3744C286.664 2.58347 286.694 2.79254 286.723 3.0016C286.754 3.1808 286.768 3.28534 286.768 3.3152C286.768 3.34507 286.798 3.4048 286.858 3.4944C286.918 3.55413 286.978 3.584 287.037 3.584L287.171 3.6288H287.261C287.291 3.6288 287.306 3.61387 287.306 3.584C287.336 3.4944 287.366 3.34507 287.395 3.136C287.455 2.92694 287.515 2.71787 287.574 2.5088C287.664 2.26987 287.724 2.04587 287.754 1.8368C287.814 1.62773 287.858 1.4784 287.888 1.3888C287.918 1.2992 287.963 1.0752 288.022 0.716802C288.082 0.358401 288.127 0.119467 288.157 0H292.278L294.518 1.9264C294.549 1.95627 294.668 1.95627 294.877 1.9264C295.116 1.86667 295.385 1.792 295.683 1.7024C295.982 1.6128 296.281 1.5232 296.579 1.4336C296.878 1.31413 297.117 1.2096 297.296 1.12C297.326 1.09013 297.401 1.0304 297.52 0.940802C297.64 0.821338 297.759 0.701867 297.878 0.5824C297.998 0.462934 298.102 0.3584 298.192 0.268799C298.282 0.149332 298.342 0.059733 298.371 0H302.806V15.232L302.538 15.5008C302.478 15.5606 302.374 15.6202 302.224 15.68C302.105 15.7398 302.015 15.7696 301.955 15.7696C301.926 15.7994 301.791 15.7994 301.552 15.7696C301.343 15.7398 301.209 15.7398 301.149 15.7696C301.119 15.7994 301.059 15.8442 300.97 15.904C300.91 15.9638 300.88 16.0086 300.88 16.0384C300.94 16.0682 301.03 16.128 301.149 16.2176C301.269 16.2774 301.358 16.3072 301.418 16.3072C301.478 16.337 301.657 16.3818 301.955 16.4416C302.284 16.5014 302.478 16.5462 302.538 16.576C302.598 16.6058 302.658 16.6506 302.717 16.7104C302.777 16.7702 302.806 16.8298 302.806 16.8896V35.1232H272.387V30.9568C272.387 30.927 272.462 30.8522 272.611 30.7328C272.761 30.5834 272.866 30.479 272.925 30.4192C273.045 30.3594 273.269 30.2998 273.597 30.24C273.955 30.1802 274.194 30.1504 274.314 30.1504ZM283.722 25.7152H291.606V22.7584C291.637 22.7584 291.696 22.7434 291.786 22.7136C291.906 22.6838 291.98 22.6688 292.01 22.6688C292.07 22.6986 292.249 22.8032 292.547 22.9824C292.876 23.1318 293.07 23.2214 293.13 23.2512H293.622H294.25C294.28 23.2512 294.37 23.2362 294.518 23.2064C294.698 23.1466 294.877 23.1018 295.056 23.072C295.235 23.0422 295.4 23.0122 295.549 22.9824C295.728 22.9526 295.848 22.9376 295.907 22.9376C296.086 22.9376 296.386 22.9376 296.803 22.9376C297.222 22.9078 297.67 22.8928 298.147 22.8928C298.655 22.8928 299.118 22.8928 299.536 22.8928C299.954 22.863 300.253 22.848 300.432 22.848C300.432 22.7882 300.387 22.7286 300.298 22.6688C300.268 22.639 300.178 22.5942 300.029 22.5344C299.91 22.4746 299.82 22.4298 299.76 22.4C299.641 22.3702 299.402 22.3254 299.043 22.2656C298.685 22.176 298.461 22.1312 298.371 22.1312C298.192 22.1312 297.864 22.1162 297.386 22.0864C296.938 22.0566 296.445 22.0266 295.907 21.9968C295.37 21.967 294.862 21.937 294.384 21.9072C293.906 21.8774 293.578 21.8624 293.398 21.8624L291.606 20.2048V9.408H283.722V25.7152ZM308.039 18.2336C307.95 18.2336 307.755 18.2038 307.457 18.144C307.188 18.0842 307.009 18.0246 306.919 17.9648C306.859 17.935 306.754 17.8902 306.606 17.8304C306.456 17.7706 306.382 17.7258 306.382 17.696V0H317.447V12.0064C317.387 12.0064 317.282 11.9914 317.134 11.9616C317.014 11.9318 316.939 11.9018 316.91 11.872C316.85 11.872 316.7 11.7974 316.462 11.648C316.252 11.4688 316.118 11.3642 316.058 11.3344C315.998 11.3046 315.938 11.2746 315.879 11.2448C315.849 11.215 315.804 11.185 315.745 11.1552C315.655 11.1254 315.58 11.0954 315.521 11.0656C315.461 11.0656 315.342 11.0806 315.162 11.1104C315.013 11.1402 314.849 11.1702 314.67 11.2C314.49 11.2298 314.311 11.2598 314.132 11.2896C313.982 11.3194 313.893 11.3344 313.863 11.3344C313.714 11.3642 313.534 11.3942 313.326 11.424C313.116 11.4538 312.907 11.4838 312.698 11.5136C312.489 11.5434 312.31 11.5734 312.161 11.6032C312.011 11.6032 311.922 11.6032 311.892 11.6032C311.772 11.6032 311.548 11.6182 311.22 11.648C310.921 11.648 310.593 11.648 310.234 11.648C309.876 11.648 309.532 11.648 309.204 11.648C308.905 11.6182 308.696 11.6032 308.577 11.6032C308.606 11.663 308.651 11.7226 308.711 11.7824C308.77 11.8422 308.83 11.872 308.89 11.872C308.92 11.9318 309.039 11.9914 309.249 12.0512C309.458 12.081 309.607 12.1258 309.697 12.1856C309.756 12.2154 309.861 12.2454 310.01 12.2752C310.159 12.305 310.309 12.335 310.458 12.3648C310.607 12.3946 310.742 12.4246 310.862 12.4544C310.981 12.4544 311.055 12.4544 311.086 12.4544C311.265 12.4544 311.563 12.4694 311.982 12.4992C312.43 12.529 312.907 12.559 313.415 12.5888C313.922 12.6186 314.401 12.6486 314.849 12.6784C315.297 12.7082 315.61 12.7232 315.79 12.7232C315.849 12.783 315.938 12.8726 316.058 12.992C316.207 13.1114 316.342 13.2458 316.462 13.3952C316.61 13.5446 316.745 13.6938 316.865 13.8432C317.014 13.9626 317.118 14.0522 317.178 14.112C317.208 14.1718 317.238 14.2314 317.268 14.2912C317.327 14.321 317.387 14.3658 317.447 14.4256C317.506 14.5152 317.551 14.5898 317.582 14.6496V25.7152H323.674V24.3264H328.513L328.782 24.0576H327.662C327.512 24.0576 327.288 24.0426 326.99 24.0128C326.69 23.983 326.377 23.953 326.049 23.9232C325.72 23.8934 325.422 23.8634 325.153 23.8336C324.884 23.8038 324.705 23.7888 324.615 23.7888C324.495 23.759 324.331 23.7142 324.122 23.6544C323.913 23.5946 323.809 23.5498 323.809 23.52V0H334.874V35.1232H328.244C328.184 35.1232 327.945 35.0186 327.527 34.8096C327.109 34.6006 326.795 34.4214 326.586 34.272C326.526 34.2422 326.377 34.1526 326.138 34.0032C325.929 33.8538 325.794 33.7642 325.735 33.7344C325.705 33.7344 325.646 33.7494 325.556 33.7792C325.466 33.7792 325.406 33.7792 325.377 33.7792C325.377 33.839 325.391 33.9734 325.422 34.1824C325.481 34.3914 325.496 34.5258 325.466 34.5856C325.436 34.6454 325.391 34.7498 325.332 34.8992C325.272 35.0486 325.227 35.1232 325.198 35.1232H306.382V19.0848C306.382 19.055 306.456 19.0102 306.606 18.9504C306.754 18.8608 306.859 18.816 306.919 18.816C307.009 18.7862 307.188 18.801 307.457 18.8608C307.755 18.8906 307.95 18.9056 308.039 18.9056V18.2336ZM343.154 24.0576C343.094 24.0278 342.96 23.983 342.751 23.9232C342.542 23.8634 342.393 23.8186 342.303 23.7888C342.243 23.7888 342.094 23.759 341.855 23.6992C341.616 23.6394 341.347 23.5798 341.049 23.52C340.78 23.4602 340.526 23.4154 340.287 23.3856C340.048 23.3258 339.898 23.281 339.839 23.2512L338.719 22.1312C338.659 22.0714 338.599 21.9818 338.54 21.8624C338.48 21.713 338.45 21.6234 338.45 21.5936V0H365.286V20.0704H362.239V21.728H365.286V35.1232H353.817V22.4H349.919V35.1232H345.574C345.574 35.0634 345.574 34.929 345.574 34.72C345.603 34.511 345.618 34.3616 345.618 34.272C345.648 34.2422 345.708 34.1226 345.798 33.9136C345.887 33.6746 345.932 33.5254 345.932 33.4656V31.8976V30.1504C345.932 30.031 345.917 29.792 345.887 29.4336C345.857 29.0752 345.827 28.7168 345.798 28.3584C345.767 27.9702 345.738 27.6118 345.708 27.2832C345.678 26.9248 345.648 26.6858 345.618 26.5664C345.618 26.5066 345.588 26.3274 345.529 26.0288C345.469 25.7302 345.409 25.536 345.35 25.4464C345.35 25.3866 345.305 25.297 345.215 25.1776C345.155 25.0282 345.11 24.9386 345.081 24.9088V32.0768C345.081 32.1366 345.05 32.3008 344.991 32.5696C344.931 32.8384 344.871 33.0474 344.812 33.1968C344.782 33.2566 344.737 33.361 344.678 33.5104C344.618 33.6298 344.573 33.7046 344.543 33.7344C344.454 33.824 344.334 33.9584 344.185 34.1376C344.035 34.287 343.886 34.4362 343.737 34.5856C343.587 34.735 343.453 34.8694 343.334 34.9888C343.214 35.0784 343.154 35.1232 343.154 35.1232H338.45V25.1776C338.45 25.1478 338.554 25.103 338.764 25.0432C338.973 24.9834 339.152 24.9386 339.302 24.9088C339.331 24.9088 339.421 24.8938 339.57 24.864C339.75 24.8342 339.929 24.8042 340.108 24.7744C340.287 24.7146 340.451 24.6698 340.601 24.64C340.78 24.6102 340.899 24.5952 340.959 24.5952C341.049 24.5952 341.198 24.5654 341.407 24.5056C341.616 24.4458 341.825 24.3862 342.034 24.3264C342.273 24.2666 342.497 24.2218 342.706 24.192C342.915 24.1322 343.065 24.0874 343.154 24.0576ZM350.054 12.7232H353.817V11.2H359.193C359.103 11.1402 358.879 11.0656 358.521 10.976C358.162 10.8566 357.923 10.7968 357.804 10.7968C357.744 10.7968 357.61 10.7818 357.401 10.752C357.191 10.7222 356.953 10.6922 356.684 10.6624C356.445 10.6326 356.221 10.6026 356.012 10.5728C355.802 10.543 355.668 10.528 355.609 10.528C355.459 10.4982 355.28 10.4832 355.071 10.4832C354.862 10.4534 354.668 10.4086 354.489 10.3488C354.279 10.319 354.055 10.2742 353.817 10.2144V9.408H350.054V12.7232Z" fill="white"/>
<path d="M0 78.8224V68.2048C0 68.145 0.0303996 68.0554 0.0895996 67.936C0.1496 67.7866 0.209599 67.6822 0.268799 67.6224C0.268799 67.5926 0.313598 67.5328 0.403198 67.4432C0.433598 67.4134 0.478398 67.3834 0.537598 67.3536C0.657598 67.3238 0.881595 67.279 1.20959 67.2192C1.56799 67.1594 1.80719 67.1146 1.92639 67.0848V66.816L0 66.2336V52.3008H4.30081V48H28.4928V57.2736H11.2V60.4544C11.0808 60.3946 10.8272 60.2602 10.4384 60.0512C10.08 59.8122 9.82642 59.663 9.67682 59.6032H9.40802H9.13922C9.08002 59.6032 8.96002 59.6182 8.78082 59.648C8.63202 59.6778 8.46719 59.7078 8.28799 59.7376C8.10879 59.7674 7.9296 59.7974 7.7504 59.8272C7.6016 59.857 7.512 59.872 7.4816 59.872C7.392 59.9018 7.2432 59.9318 7.0336 59.9616C6.8544 59.9914 6.6608 60.0214 6.4512 60.0512C6.2424 60.081 6.04801 60.111 5.8688 60.1408C5.6896 60.1706 5.57041 60.1856 5.51041 60.1856H5.37601H5.24161C5.15201 60.1856 4.98801 60.1706 4.74881 60.1408C4.51041 60.111 4.25601 60.081 3.98721 60.0512C3.74881 60.0214 3.50962 59.9914 3.27042 59.9616C3.03202 59.9318 2.86722 59.9018 2.77762 59.872L2.50879 60.1856C2.50879 60.2154 2.53919 60.2602 2.59839 60.32C2.65839 60.3798 2.71842 60.4246 2.77762 60.4544C2.83762 60.4544 3.00162 60.4992 3.27042 60.5888C3.53922 60.6486 3.73361 60.6934 3.85281 60.7232C3.94241 60.7232 4.06241 60.7382 4.21121 60.768C4.39041 60.7978 4.56961 60.8278 4.74881 60.8576C4.92801 60.8874 5.09281 60.9174 5.24161 60.9472C5.39121 60.977 5.48081 60.992 5.51041 60.992C5.66001 60.992 5.9288 61.007 6.3168 61.0368C6.7352 61.0666 7.1536 61.0966 7.5712 61.1264C8.0192 61.1562 8.43762 61.1862 8.82562 61.216C9.24402 61.2458 9.52802 61.2608 9.67682 61.2608L11.2 62.6496V73.8496H28.4928V83.1232H21.28C21.2504 83.1232 21.1608 83.0934 21.0112 83.0336C20.892 82.9738 20.8024 82.9142 20.7424 82.8544C20.6832 82.7946 20.5784 82.705 20.4288 82.5856C20.3096 82.4362 20.2352 82.3318 20.2048 82.272C20.2048 82.1824 20.1904 82.048 20.16 81.8688C20.1304 81.6598 20.1008 81.4358 20.0704 81.1968C20.0408 80.9578 20.0112 80.7338 19.9808 80.5248C19.9512 80.3158 19.9216 80.1664 19.8912 80.0768C19.8912 80.017 19.8616 79.9126 19.8016 79.7632C19.7424 79.6138 19.6824 79.5392 19.6224 79.5392C19.6224 79.5094 19.5776 79.4944 19.488 79.4944C19.4288 79.4646 19.3688 79.4496 19.3088 79.4496C19.2792 79.4496 19.2344 79.4646 19.1744 79.4944C19.1152 79.4944 19.0848 79.5094 19.0848 79.5392L18.2336 83.1232H4.30081V78.8224H0ZM36.248 72.0576C36.188 72.0278 36.0536 71.983 35.8448 71.9232C35.636 71.8634 35.4864 71.8186 35.3968 71.7888C35.3368 71.7888 35.188 71.759 34.9488 71.6992C34.7096 71.6394 34.4408 71.5798 34.1424 71.52C33.8736 71.4602 33.62 71.4154 33.3808 71.3856C33.1416 71.3258 32.9928 71.281 32.9328 71.2512L31.8128 70.1312C31.7528 70.0714 31.6936 69.9818 31.6336 69.8624C31.5736 69.713 31.544 69.6234 31.544 69.5936V48H58.3792V68.0704H55.3328V69.728H58.3792V83.1232H46.9104V70.4H43.0128V83.1232H38.6672C38.6672 83.0634 38.6672 82.929 38.6672 82.72C38.6968 82.511 38.712 82.3616 38.712 82.272C38.7416 82.2422 38.8016 82.1226 38.8912 81.9136C38.9808 81.6746 39.0256 81.5254 39.0256 81.4656V79.8976V78.1504C39.0256 78.031 39.0104 77.792 38.9808 77.4336C38.9512 77.0752 38.9208 76.7168 38.8912 76.3584C38.8616 75.9702 38.8312 75.6118 38.8016 75.2832C38.772 74.9248 38.7416 74.6858 38.712 74.5664C38.712 74.5066 38.6824 74.3274 38.6224 74.0288C38.5624 73.7302 38.5032 73.536 38.4432 73.4464C38.4432 73.3866 38.3984 73.297 38.3088 73.1776C38.2488 73.0282 38.204 72.9386 38.1744 72.9088V80.0768C38.1744 80.1366 38.1448 80.3008 38.0848 80.5696C38.0248 80.8384 37.9656 81.0474 37.9056 81.1968C37.876 81.2566 37.8312 81.361 37.7712 81.5104C37.7112 81.6298 37.6664 81.7046 37.6368 81.7344C37.5472 81.824 37.428 81.9584 37.2784 82.1376C37.1288 82.287 36.98 82.4362 36.8304 82.5856C36.6808 82.735 36.5464 82.8694 36.4272 82.9888C36.308 83.0784 36.248 83.1232 36.248 83.1232H31.544V73.1776C31.544 73.1478 31.6488 73.103 31.8576 73.0432C32.0664 72.9834 32.2456 72.9386 32.3952 72.9088C32.4248 72.9088 32.5144 72.8938 32.664 72.864C32.8432 72.8342 33.0224 72.8042 33.2016 72.7744C33.3808 72.7146 33.5448 72.6698 33.6944 72.64C33.8736 72.6102 33.9928 72.5952 34.0528 72.5952C34.1424 72.5952 34.292 72.5654 34.5008 72.5056C34.7096 72.4458 34.9192 72.3862 35.128 72.3264C35.3672 72.2666 35.5912 72.2218 35.8 72.192C36.0088 72.1322 36.1584 72.0874 36.248 72.0576ZM43.1472 60.7232H46.9104V59.2H52.2864C52.1968 59.1402 51.9728 59.0656 51.6144 58.976C51.256 58.8566 51.0168 58.7968 50.8976 58.7968C50.8376 58.7968 50.7032 58.7818 50.4944 58.752C50.2856 58.7222 50.0464 58.6922 49.7776 58.6624C49.5384 58.6326 49.3144 58.6026 49.1056 58.5728C48.8968 58.543 48.7624 58.528 48.7024 58.528C48.5528 58.4982 48.3736 58.4832 48.1648 58.4832C47.956 58.4534 47.7616 58.4086 47.5824 58.3488C47.3736 58.319 47.1496 58.2742 46.9104 58.2144V57.408H43.1472V60.7232ZM61.9504 75.3728C62.04 75.3728 62.1896 75.3578 62.3984 75.328C62.6072 75.2982 62.8168 75.2682 63.0256 75.2384C63.2648 75.2086 63.4888 75.1786 63.6976 75.1488C63.9064 75.119 64.056 75.104 64.1456 75.104C64.2648 75.0742 64.5336 75.0294 64.952 74.9696C65.3704 74.9098 65.6536 74.865 65.8032 74.8352C65.9224 74.8054 66.1616 74.7606 66.52 74.7008C66.8784 74.641 67.1024 74.5962 67.192 74.5664L61.9504 73.9392V59.0656C61.9504 59.0358 61.98 58.991 62.04 58.9312C62.1 58.8416 62.1592 58.7968 62.2192 58.7968C62.2792 58.767 62.4432 58.7222 62.712 58.6624C62.9808 58.6026 63.1896 58.5578 63.3392 58.528C63.4584 58.4682 63.7272 58.4086 64.1456 58.3488C64.564 58.289 64.8472 58.2442 64.9968 58.2144C65.0568 58.2144 65.2056 58.2144 65.4448 58.2144C65.684 58.1846 65.9376 58.1546 66.2064 58.1248C66.5048 58.095 66.7736 58.065 67.0128 58.0352C67.252 58.0054 67.4008 57.9754 67.4608 57.9456C67.5208 57.9456 67.6248 57.9158 67.7744 57.856C67.924 57.7664 68.0136 57.7066 68.0432 57.6768C68.1328 57.647 68.3568 57.6022 68.7152 57.5424C69.0736 57.4826 69.3128 57.4378 69.432 57.408V57.1392C69.432 57.1392 69.372 57.1242 69.2528 57.0944C69.1336 57.0646 68.984 57.0346 68.8048 57.0048C68.6256 56.975 68.4312 56.945 68.2224 56.9152C68.0432 56.8854 67.8936 56.8704 67.7744 56.8704C67.5952 56.8704 67.2816 56.8704 66.8336 56.8704C66.3856 56.8406 65.908 56.8256 65.4 56.8256C64.9224 56.8256 64.4592 56.8406 64.0112 56.8704C63.5632 56.8704 63.2496 56.8704 63.0704 56.8704C63.0104 56.8406 62.9064 56.7958 62.7568 56.736C62.6376 56.6762 62.548 56.6166 62.488 56.5568C62.4584 56.5568 62.4136 56.527 62.3536 56.4672C62.2936 56.3776 62.2488 56.3178 62.2192 56.288C62.1592 56.2282 62.1 56.1386 62.04 56.0192C61.98 55.8699 61.9504 55.7803 61.9504 55.7504V48H88.5168V57.2736H73.5536V60.8576H80.4976C80.5576 60.8576 80.692 60.992 80.9008 61.2608C81.1096 61.4998 81.244 61.6938 81.304 61.8432C81.3336 61.9328 81.3784 62.0822 81.4384 62.2912C81.4984 62.4704 81.5576 62.6794 81.6176 62.9184C81.6776 63.1574 81.7224 63.3814 81.752 63.5904C81.812 63.7994 81.8416 63.9488 81.8416 64.0384C81.8712 63.9488 81.916 63.7994 81.976 63.5904C82.0656 63.3814 82.1552 63.1574 82.2448 62.9184C82.3344 62.6794 82.4088 62.4554 82.4688 62.2464C82.5584 62.0374 82.6328 61.903 82.6928 61.8432C82.7528 61.6938 82.8872 61.5146 83.096 61.3056C83.3048 61.0966 83.4392 60.992 83.4992 60.992H88.5168V70.2656H73.5536V73.8496H88.5168V83.1232H83.8128C83.7832 83.1232 83.7384 83.0934 83.6784 83.0336C83.6184 82.9738 83.5592 82.9142 83.4992 82.8544C83.4696 82.7946 83.4248 82.705 83.3648 82.5856C83.3048 82.4362 83.26 82.3318 83.2304 82.272C83.2304 82.2422 83.1856 82.0182 83.096 81.6C83.036 81.1818 82.9912 80.8534 82.9616 80.6144C82.9616 80.5546 82.9464 80.4352 82.9168 80.256C82.8872 80.0768 82.8568 79.8826 82.8272 79.6736C82.7976 79.4646 82.7672 79.2704 82.7376 79.0912C82.708 78.912 82.6928 78.7776 82.6928 78.688C82.6632 78.7178 82.6032 78.7626 82.5136 78.8224C82.4536 78.8822 82.424 78.927 82.424 78.9568C82.3944 79.0166 82.3344 79.1958 82.2448 79.4944C82.1848 79.793 82.1552 79.9872 82.1552 80.0768C82.1256 80.1962 82.0952 80.4054 82.0656 80.704C82.036 80.9728 82.0056 81.2714 81.976 81.6C81.9464 81.9286 81.916 82.2422 81.8864 82.5408C81.8568 82.8096 81.8416 83.0038 81.8416 83.1232H71.0896C71.06 83.1232 70.94 83.0486 70.7312 82.8992C70.5224 82.7498 70.3576 82.6454 70.2384 82.5856C70.2384 82.5558 70.1936 82.511 70.104 82.4512C70.044 82.3914 69.9992 82.3318 69.9696 82.272C69.88 82.1526 69.7304 81.9584 69.5216 81.6896C69.3128 81.4208 69.1784 81.2566 69.1184 81.1968C69.0584 81.1072 68.984 80.9728 68.8944 80.7936C68.8344 80.6144 68.76 80.4352 68.6704 80.256C68.5808 80.0768 68.4912 79.9274 68.4016 79.808C68.3416 79.6586 68.312 79.569 68.312 79.5392C68.2824 79.3898 68.252 79.136 68.2224 78.7776C68.1928 78.3894 68.1624 78.001 68.1328 77.6128C68.1032 77.1946 68.0728 76.8064 68.0432 76.448C68.0432 76.0598 68.0432 75.791 68.0432 75.6416C68.0136 75.761 67.9688 75.985 67.9088 76.3136C67.8488 76.6122 67.7896 76.9408 67.7296 77.2992C67.6696 77.6576 67.6104 78.001 67.5504 78.3296C67.5208 78.6282 67.4904 78.8374 67.4608 78.9568V82.272L66.6544 83.1232H61.9504V75.3728ZM110.916 48C110.976 48.0896 111.095 48.2091 111.274 48.3584C111.484 48.4779 111.633 48.5376 111.722 48.5376C111.842 48.5376 112.036 48.4779 112.305 48.3584C112.604 48.2091 112.783 48.0896 112.842 48H118.666V75.5072C118.607 75.5072 118.458 75.4922 118.218 75.4624C118.01 75.4326 117.875 75.4026 117.815 75.3728C117.756 75.3728 117.577 75.2832 117.278 75.104C116.979 74.9248 116.8 74.8352 116.74 74.8352C116.65 74.8352 116.471 74.8202 116.202 74.7904C115.934 74.7606 115.635 74.7306 115.306 74.7008C115.008 74.671 114.694 74.641 114.366 74.6112C114.067 74.5814 113.843 74.5664 113.694 74.5664C113.664 74.5664 113.559 74.5664 113.38 74.5664C113.231 74.5664 113.052 74.5664 112.842 74.5664C112.663 74.5366 112.47 74.5216 112.26 74.5216C112.081 74.5216 111.932 74.5216 111.812 74.5216C111.693 74.5216 111.529 74.5216 111.319 74.5216C111.14 74.5216 110.961 74.5366 110.782 74.5664C110.602 74.5664 110.438 74.5664 110.289 74.5664C110.17 74.5664 110.095 74.5664 110.065 74.5664C110.035 74.5664 109.916 74.5962 109.706 74.656C109.498 74.7158 109.348 74.7754 109.258 74.8352C109.169 74.895 108.975 74.9846 108.676 75.104C108.378 75.2234 108.198 75.313 108.138 75.3728L107.87 75.6416C107.84 75.7014 107.825 75.7462 107.825 75.776V75.9552C107.825 75.985 107.825 76.0298 107.825 76.0896C107.855 76.1494 107.87 76.1942 107.87 76.224C107.9 76.1642 107.945 76.1046 108.004 76.0448C108.064 75.985 108.109 75.9552 108.138 75.9552C108.198 75.8954 108.288 75.8358 108.407 75.776C108.557 75.7162 108.662 75.6714 108.721 75.6416C108.81 75.5818 108.99 75.5222 109.258 75.4624C109.558 75.4026 109.737 75.3728 109.796 75.3728H111.454H113.111C113.142 75.3728 113.231 75.3878 113.38 75.4176C113.53 75.4176 113.694 75.4326 113.873 75.4624C114.052 75.4922 114.217 75.5222 114.366 75.552C114.545 75.5818 114.679 75.6118 114.769 75.6416C114.829 75.6714 114.963 75.7162 115.172 75.776C115.411 75.8358 115.561 75.8954 115.62 75.9552C115.68 75.985 115.814 76.0746 116.023 76.224C116.262 76.3734 116.397 76.463 116.426 76.4928C116.486 76.5226 116.666 76.5674 116.964 76.6272C117.293 76.687 117.487 76.7318 117.546 76.7616C117.606 76.8214 117.696 76.881 117.815 76.9408C117.965 76.9706 118.099 77.0154 118.218 77.0752C118.338 77.1648 118.487 77.2394 118.666 77.2992V83.1232H107.198V73.7152H103.3V83.2128C103.181 83.2128 102.986 83.2128 102.718 83.2128C102.449 83.2128 102.15 83.1978 101.822 83.168C101.523 83.168 101.239 83.153 100.97 83.1232C100.702 83.1232 100.508 83.1232 100.388 83.1232C100.239 83.0934 99.9552 83.0486 99.5368 82.9888C99.1192 82.929 98.8504 82.8842 98.7304 82.8544C98.6712 82.8246 98.492 82.72 98.1928 82.5408C97.8944 82.3616 97.7152 82.272 97.6552 82.272C97.5064 82.3018 97.2968 82.4214 97.028 82.6304C96.7592 82.8394 96.5952 83.0038 96.5352 83.1232H91.8312V48H110.916ZM103.434 65.1584H107.063V56.288H103.434V65.1584ZM131.646 62.9184C131.676 62.9184 131.69 62.8736 131.69 62.784V62.7392C131.69 62.7094 131.676 62.6794 131.646 62.6496C131.616 62.6496 131.497 62.6198 131.287 62.56C131.078 62.4704 130.929 62.4106 130.839 62.3808C130.72 62.351 130.496 62.3062 130.167 62.2464C129.869 62.1568 129.674 62.112 129.585 62.112V57.2736H121.969V48H148.804V57.1392H146.026C145.997 57.1392 145.937 57.0346 145.847 56.8256C145.788 56.6166 145.758 56.4374 145.758 56.288C145.758 56.2582 145.758 56.1834 145.758 56.064C145.758 55.9147 145.758 55.7653 145.758 55.616C145.758 55.4368 145.758 55.2875 145.758 55.168C145.758 55.0187 145.758 54.9291 145.758 54.8992L145.623 54.7648C145.534 54.7349 145.489 54.6901 145.489 54.6304C145.459 54.6005 145.414 54.5109 145.354 54.3616C145.295 54.2123 145.25 54.1227 145.22 54.0928C145.161 54.0629 145.056 54.0181 144.906 53.9584C144.758 53.8987 144.668 53.8539 144.638 53.824C144.608 53.7643 144.563 53.6747 144.503 53.5552C144.444 53.4059 144.399 53.3013 144.369 53.2416C144.339 53.2416 144.279 53.2117 144.19 53.152C144.13 53.0624 144.1 53.0027 144.1 52.9728C144.07 52.9131 143.981 52.7787 143.831 52.5696C143.682 52.3307 143.578 52.1963 143.518 52.1664C143.458 52.0768 143.383 51.9723 143.294 51.8528C143.204 51.7333 143.114 51.6139 143.025 51.4944C142.906 51.3749 142.801 51.2256 142.711 51.0464H142.442C142.442 51.136 142.473 51.3301 142.532 51.6288C142.622 51.8976 142.682 52.0768 142.711 52.1664C142.742 52.1664 142.786 52.2112 142.846 52.3008C142.935 52.3605 142.98 52.4053 142.98 52.4352C143.01 52.4651 143.055 52.5547 143.114 52.704C143.204 52.8533 143.249 52.9429 143.249 52.9728L143.518 53.2416C143.548 53.3013 143.548 53.4507 143.518 53.6896C143.518 53.8987 143.518 54.0331 143.518 54.0928C143.578 54.1525 143.712 54.3019 143.921 54.5408C144.16 54.7499 144.31 54.8693 144.369 54.8992C144.429 54.9589 144.489 55.0635 144.548 55.2128C144.608 55.3323 144.638 55.4219 144.638 55.4816C144.668 55.6309 144.698 55.9296 144.727 56.3776C144.758 56.8256 144.772 57.1242 144.772 57.2736H141.188V83.1232H138.858C138.829 82.9738 138.784 82.705 138.724 82.3168C138.665 81.8986 138.605 81.615 138.545 81.4656C138.545 81.4058 138.5 81.2416 138.41 80.9728C138.351 80.6742 138.306 80.465 138.276 80.3456C138.246 80.2262 138.202 80.0618 138.142 79.8528C138.082 79.6438 138.038 79.5392 138.007 79.5392L137.918 79.4944C137.888 79.4944 137.858 79.5094 137.828 79.5392C137.828 79.5392 137.814 79.5392 137.783 79.5392H137.738C137.709 79.5392 137.649 79.584 137.559 79.6736C137.5 79.7334 137.47 79.7782 137.47 79.808C137.47 79.8976 137.455 80.047 137.425 80.256C137.395 80.465 137.366 80.689 137.335 80.928C137.306 81.137 137.276 81.3462 137.246 81.5552C137.216 81.7642 137.201 81.9136 137.201 82.0032C137.201 82.063 137.156 82.1674 137.066 82.3168C137.007 82.4362 136.947 82.5258 136.887 82.5856C136.887 82.6154 136.842 82.6602 136.753 82.72C136.694 82.7798 136.649 82.8246 136.618 82.8544C136.559 82.9142 136.454 82.9738 136.305 83.0336C136.186 83.0934 136.111 83.1232 136.081 83.1232H129.719V63.7696C129.719 63.7098 129.779 63.6202 129.898 63.5008C130.048 63.3514 130.167 63.2618 130.257 63.232C130.377 63.1722 130.601 63.1126 130.929 63.0528C131.287 62.9632 131.526 62.9184 131.646 62.9184ZM162.878 48V55.4816C162.878 55.5115 162.804 55.5563 162.654 55.616C162.505 55.6757 162.401 55.7205 162.341 55.7504C162.281 55.7504 162.132 55.7653 161.893 55.7952C161.684 55.8251 161.46 55.8549 161.221 55.8848C160.982 55.9147 160.743 55.9446 160.504 55.9744C160.295 56.0042 160.161 56.0192 160.101 56.0192C160.041 56.049 159.877 56.1386 159.608 56.288C159.339 56.4074 159.13 56.497 158.981 56.5568C158.951 56.5866 158.906 56.6314 158.846 56.6912C158.786 56.751 158.742 56.8106 158.712 56.8704V57.0048V57.1392C158.831 57.1392 159.041 57.1542 159.339 57.184C159.668 57.184 160.011 57.199 160.37 57.2288C160.728 57.2586 161.057 57.2886 161.355 57.3184C161.684 57.3482 161.908 57.3782 162.027 57.408C162.087 57.408 162.177 57.4378 162.296 57.4976C162.446 57.5574 162.55 57.617 162.61 57.6768C162.639 57.7066 162.67 57.7366 162.699 57.7664C162.729 57.7664 162.759 57.7814 162.789 57.8112C162.818 57.841 162.849 57.8858 162.878 57.9456V83.1232H159.832C159.802 83.1232 159.713 83.0934 159.563 83.0336C159.444 82.9738 159.354 82.9142 159.294 82.8544C159.265 82.8246 159.22 82.7798 159.16 82.72C159.1 82.6602 159.041 82.6154 158.981 82.5856C158.951 82.5558 158.862 82.4512 158.712 82.272C158.593 82.0928 158.458 81.9136 158.309 81.7344C158.159 81.5552 158.01 81.391 157.861 81.2416C157.742 81.0624 157.666 80.9578 157.637 80.928C157.577 80.8682 157.518 80.8086 157.458 80.7488C157.398 80.6592 157.353 80.6144 157.323 80.6144L157.144 80.704C157.144 80.7638 157.129 80.8534 157.099 80.9728C157.07 81.0624 157.054 81.137 157.054 81.1968C157.084 81.3162 157.129 81.5104 157.189 81.7792C157.249 82.048 157.294 82.2122 157.323 82.272L157.637 82.5856V82.72V82.8544C157.577 82.9142 157.473 82.9738 157.323 83.0336C157.204 83.0934 157.114 83.1232 157.054 83.1232H151.813V48H162.878ZM168.843 77.7472V71.3856H166.2V67.0848H166.827C166.827 67.025 166.872 66.9354 166.962 66.816C167.051 66.6666 167.082 66.577 167.051 66.5472C166.992 66.4874 166.842 66.4278 166.603 66.368C166.394 66.2784 166.26 66.2336 166.2 66.2336V48H177.4V73.7152H182.373V48H186.674C186.734 48 186.868 48.1045 187.077 48.3136C187.286 48.5227 187.421 48.7019 187.48 48.8512C187.54 48.9408 187.614 49.0752 187.704 49.2544C187.794 49.4037 187.883 49.568 187.973 49.7472C188.062 49.9264 188.138 50.0907 188.197 50.24C188.286 50.3893 188.331 50.4789 188.331 50.5088C188.362 50.6581 188.391 50.912 188.421 51.2704C188.451 51.6288 188.481 52.0171 188.51 52.4352C188.541 52.8533 188.555 53.2416 188.555 53.6C188.586 53.9584 188.6 54.2123 188.6 54.3616C188.63 54.2421 188.66 54.0331 188.69 53.7344C188.75 53.4059 188.81 53.0624 188.869 52.704C188.929 52.3456 188.989 52.0171 189.048 51.7184C189.108 51.3899 189.138 51.1659 189.138 51.0464C189.138 50.9269 189.138 50.7328 189.138 50.464C189.168 50.1653 189.182 49.8517 189.182 49.5232C189.213 49.1947 189.227 48.896 189.227 48.6272C189.258 48.3285 189.272 48.1195 189.272 48H193.573V54.6304L189.451 55.4816C189.541 55.4816 189.675 55.4965 189.854 55.5264C190.064 55.5563 190.288 55.5861 190.526 55.616C190.766 55.6459 190.99 55.6757 191.198 55.7056C191.408 55.7355 191.557 55.7504 191.646 55.7504C191.796 55.7803 191.975 55.8101 192.184 55.84C192.394 55.8699 192.602 55.8997 192.811 55.9296C193.05 55.9594 193.304 55.9894 193.573 56.0192V71.3856H190.93V77.7472H187.077V83.2128C186.928 83.2128 186.659 83.2128 186.27 83.2128C185.882 83.2128 185.479 83.1978 185.061 83.168C184.643 83.168 184.24 83.153 183.851 83.1232C183.493 83.1232 183.239 83.1232 183.09 83.1232C183.03 83.1232 182.896 83.0934 182.686 83.0336C182.478 82.9738 182.328 82.9142 182.238 82.8544L181.701 82.5856C181.642 82.5258 181.492 82.4362 181.253 82.3168C181.044 82.1674 180.91 82.063 180.85 82.0032C180.82 82.0032 180.76 82.0182 180.67 82.048C180.581 82.0778 180.522 82.0928 180.491 82.0928C180.491 82.1526 180.506 82.287 180.536 82.496C180.596 82.6752 180.611 82.7946 180.581 82.8544C180.551 82.9142 180.506 82.9738 180.446 83.0336C180.387 83.0934 180.342 83.1232 180.312 83.1232H172.696V77.7472H168.843ZM207.941 48V55.4816C207.941 55.5115 207.866 55.5563 207.717 55.616C207.567 55.6757 207.463 55.7205 207.403 55.7504C207.343 55.7504 207.194 55.7653 206.955 55.7952C206.746 55.8251 206.522 55.8549 206.283 55.8848C206.044 55.9147 205.806 55.9446 205.566 55.9744C205.358 56.0042 205.223 56.0192 205.163 56.0192C205.103 56.049 204.939 56.1386 204.67 56.288C204.402 56.4074 204.193 56.497 204.043 56.5568C204.014 56.5866 203.969 56.6314 203.909 56.6912C203.849 56.751 203.804 56.8106 203.774 56.8704V57.0048V57.1392C203.894 57.1392 204.103 57.1542 204.402 57.184C204.73 57.184 205.074 57.199 205.432 57.2288C205.79 57.2586 206.119 57.2886 206.418 57.3184C206.746 57.3482 206.97 57.3782 207.09 57.408C207.15 57.408 207.239 57.4378 207.358 57.4976C207.508 57.5574 207.612 57.617 207.672 57.6768C207.702 57.7066 207.732 57.7366 207.762 57.7664C207.791 57.7664 207.822 57.7814 207.851 57.8112C207.881 57.841 207.911 57.8858 207.941 57.9456V83.1232H204.894C204.865 83.1232 204.775 83.0934 204.626 83.0336C204.506 82.9738 204.417 82.9142 204.357 82.8544C204.327 82.8246 204.282 82.7798 204.222 82.72C204.162 82.6602 204.103 82.6154 204.043 82.5856C204.014 82.5558 203.924 82.4512 203.774 82.272C203.655 82.0928 203.521 81.9136 203.371 81.7344C203.222 81.5552 203.073 81.391 202.923 81.2416C202.804 81.0624 202.729 80.9578 202.699 80.928C202.639 80.8682 202.58 80.8086 202.52 80.7488C202.46 80.6592 202.415 80.6144 202.386 80.6144L202.206 80.704C202.206 80.7638 202.191 80.8534 202.162 80.9728C202.132 81.0624 202.117 81.137 202.117 81.1968C202.146 81.3162 202.191 81.5104 202.251 81.7792C202.311 82.048 202.356 82.2122 202.386 82.272L202.699 82.5856V82.72V82.8544C202.639 82.9142 202.535 82.9738 202.386 83.0336C202.266 83.0934 202.177 83.1232 202.117 83.1232H196.875V48H207.941ZM220.939 62.9184C220.97 62.9184 220.984 62.8736 220.984 62.784V62.7392C220.984 62.7094 220.97 62.6794 220.939 62.6496C220.91 62.6496 220.79 62.6198 220.581 62.56C220.372 62.4704 220.222 62.4106 220.133 62.3808C220.014 62.351 219.79 62.3062 219.461 62.2464C219.162 62.1568 218.968 62.112 218.878 62.112V57.2736H211.262V48H238.098V57.1392H235.32C235.29 57.1392 235.23 57.0346 235.141 56.8256C235.082 56.6166 235.051 56.4374 235.051 56.288C235.051 56.2582 235.051 56.1834 235.051 56.064C235.051 55.9147 235.051 55.7653 235.051 55.616C235.051 55.4368 235.051 55.2875 235.051 55.168C235.051 55.0187 235.051 54.9291 235.051 54.8992L234.917 54.7648C234.827 54.7349 234.782 54.6901 234.782 54.6304C234.753 54.6005 234.708 54.5109 234.648 54.3616C234.589 54.2123 234.544 54.1227 234.514 54.0928C234.454 54.0629 234.35 54.0181 234.2 53.9584C234.051 53.8987 233.962 53.8539 233.931 53.824C233.902 53.7643 233.857 53.6747 233.797 53.5552C233.738 53.4059 233.693 53.3013 233.662 53.2416C233.633 53.2416 233.573 53.2117 233.483 53.152C233.424 53.0624 233.394 53.0027 233.394 52.9728C233.364 52.9131 233.274 52.7787 233.125 52.5696C232.976 52.3307 232.871 52.1963 232.811 52.1664C232.752 52.0768 232.677 51.9723 232.587 51.8528C232.498 51.7333 232.408 51.6139 232.318 51.4944C232.199 51.3749 232.094 51.2256 232.005 51.0464H231.736C231.736 51.136 231.766 51.3301 231.826 51.6288C231.915 51.8976 231.975 52.0768 232.005 52.1664C232.035 52.1664 232.08 52.2112 232.139 52.3008C232.229 52.3605 232.274 52.4053 232.274 52.4352C232.304 52.4651 232.349 52.5547 232.408 52.704C232.498 52.8533 232.542 52.9429 232.542 52.9728L232.811 53.2416C232.842 53.3013 232.842 53.4507 232.811 53.6896C232.811 53.8987 232.811 54.0331 232.811 54.0928C232.871 54.1525 233.006 54.3019 233.214 54.5408C233.454 54.7499 233.603 54.8693 233.662 54.8992C233.722 54.9589 233.782 55.0635 233.842 55.2128C233.902 55.3323 233.931 55.4219 233.931 55.4816C233.962 55.6309 233.991 55.9296 234.021 56.3776C234.051 56.8256 234.066 57.1242 234.066 57.2736H230.482V83.1232H228.152C228.122 82.9738 228.078 82.705 228.018 82.3168C227.958 81.8986 227.898 81.615 227.838 81.4656C227.838 81.4058 227.794 81.2416 227.704 80.9728C227.645 80.6742 227.6 80.465 227.57 80.3456C227.54 80.2262 227.495 80.0618 227.435 79.8528C227.376 79.6438 227.331 79.5392 227.301 79.5392L227.211 79.4944C227.182 79.4944 227.152 79.5094 227.122 79.5392C227.122 79.5392 227.107 79.5392 227.077 79.5392H227.032C227.002 79.5392 226.942 79.584 226.853 79.6736C226.794 79.7334 226.763 79.7782 226.763 79.808C226.763 79.8976 226.749 80.047 226.718 80.256C226.689 80.465 226.659 80.689 226.629 80.928C226.599 81.137 226.57 81.3462 226.539 81.5552C226.51 81.7642 226.494 81.9136 226.494 82.0032C226.494 82.063 226.45 82.1674 226.36 82.3168C226.301 82.4362 226.241 82.5258 226.181 82.5856C226.181 82.6154 226.136 82.6602 226.046 82.72C225.987 82.7798 225.942 82.8246 225.912 82.8544C225.853 82.9142 225.748 82.9738 225.598 83.0336C225.479 83.0934 225.405 83.1232 225.374 83.1232H219.013V63.7696C219.013 63.7098 219.073 63.6202 219.192 63.5008C219.342 63.3514 219.461 63.2618 219.55 63.232C219.67 63.1722 219.894 63.1126 220.222 63.0528C220.581 62.9632 220.82 62.9184 220.939 62.9184ZM244.556 67.2192V63.904H240.838V60.8576H245.81C245.721 60.7978 245.497 60.7232 245.138 60.6336C244.78 60.5142 244.542 60.4544 244.422 60.4544C244.362 60.4544 244.228 60.4394 244.018 60.4096C243.81 60.3798 243.57 60.3498 243.302 60.32C243.063 60.2902 242.839 60.2602 242.63 60.2304C242.421 60.2006 242.286 60.1856 242.226 60.1856C242.018 60.1258 241.734 60.0662 241.375 60.0064C241.017 59.9466 240.838 59.9018 240.838 59.872V48H252.306V60.7232H256.07C256.07 60.6336 256.07 60.4694 256.07 60.2304C256.1 59.9914 256.13 59.7376 256.159 59.4688C256.19 59.2 256.219 58.9462 256.249 58.7072C256.279 58.4682 256.309 58.304 256.338 58.2144C256.338 58.1546 256.369 58.065 256.428 57.9456C256.518 57.7962 256.578 57.7066 256.607 57.6768C256.638 57.647 256.712 57.6022 256.831 57.5424C256.981 57.4826 257.086 57.4378 257.145 57.408C257.234 57.3782 257.414 57.393 257.682 57.4528C257.982 57.4826 258.175 57.4976 258.265 57.4976V56.8704C258.175 56.8406 257.982 56.7958 257.682 56.736C257.414 56.6762 257.234 56.6166 257.145 56.5568C257.086 56.5568 257.01 56.5418 256.921 56.512C256.831 56.4822 256.742 56.4522 256.652 56.4224C256.533 56.3926 256.428 56.3478 256.338 56.288V48H267.673V50.5984C267.614 50.5984 267.509 50.5835 267.359 50.5536C267.24 50.5237 267.15 50.5088 267.09 50.5088C267.061 50.4789 266.926 50.3893 266.687 50.24C266.478 50.0608 266.344 49.9563 266.284 49.9264C266.225 49.8965 266.165 49.8667 266.105 49.8368C266.075 49.8069 266.03 49.7771 265.97 49.7472C265.881 49.7173 265.806 49.6875 265.746 49.6576C265.687 49.6576 265.567 49.6725 265.388 49.7024C265.239 49.7323 265.074 49.7621 264.895 49.792C264.716 49.8219 264.537 49.8517 264.358 49.8816C264.209 49.9115 264.119 49.9264 264.089 49.9264C263.94 49.9563 263.761 49.9861 263.551 50.016C263.342 50.0459 263.134 50.0757 262.924 50.1056C262.715 50.1355 262.536 50.1653 262.386 50.1952C262.238 50.1952 262.148 50.1952 262.118 50.1952C261.998 50.1952 261.774 50.2101 261.446 50.24C261.147 50.24 260.818 50.24 260.46 50.24C260.102 50.24 259.758 50.24 259.43 50.24C259.131 50.2101 258.922 50.1952 258.802 50.1952C258.833 50.2549 258.878 50.3147 258.937 50.3744C258.997 50.4341 259.042 50.4789 259.071 50.5088C259.131 50.5387 259.266 50.5835 259.474 50.6432C259.684 50.7029 259.833 50.7477 259.922 50.7776C259.982 50.8075 260.087 50.8373 260.236 50.8672C260.386 50.8971 260.535 50.9269 260.684 50.9568C260.834 50.9867 260.968 51.0165 261.087 51.0464C261.207 51.0464 261.282 51.0464 261.311 51.0464C261.49 51.0464 261.79 51.0613 262.207 51.0912C262.655 51.1211 263.134 51.1509 263.641 51.1808C264.149 51.2107 264.626 51.2405 265.074 51.2704C265.522 51.3003 265.836 51.3152 266.015 51.3152C266.075 51.3749 266.165 51.4645 266.284 51.584C266.434 51.7035 266.568 51.8379 266.687 51.9872C266.837 52.1365 266.971 52.2859 267.09 52.4352C267.24 52.5547 267.345 52.6443 267.404 52.704C267.434 52.7637 267.479 52.8533 267.538 52.9728C267.628 53.0923 267.673 53.1819 267.673 53.2416V63.904H263.91V67.2192H260.326V83.1232H256.607L256.338 82.8544C256.309 82.8246 256.219 82.72 256.07 82.5408C255.95 82.3616 255.801 82.1824 255.622 82.0032C255.473 81.824 255.323 81.6598 255.174 81.5104C255.054 81.3312 254.98 81.2266 254.95 81.1968C254.92 81.167 254.89 81.137 254.86 81.1072C254.86 81.0774 254.846 81.0474 254.815 81.0176C254.786 80.9878 254.741 80.9578 254.681 80.928H254.546C254.517 80.928 254.487 80.943 254.457 80.9728C254.457 81.0326 254.442 81.1222 254.412 81.2416C254.382 81.3312 254.367 81.4058 254.367 81.4656C254.398 81.585 254.442 81.7942 254.502 82.0928C254.562 82.3616 254.622 82.5258 254.681 82.5856L254.95 82.8544V82.9888V83.0784C254.95 83.1082 254.965 83.1232 254.994 83.1232H248.722V67.2192H244.556Z" fill="white"/>
</svg>
