<svg width="1013" height="45" viewBox="0 0 1013 45" fill="none" xmlns="http://www.w3.org/2000/svg">
<path d="M47.5171 32.9419L48.6286 28.8012L47.8876 28.0651H11.9487C10.8372 28.0651 9.84923 27.7583 8.98472 27.1449C8.12021 26.4701 7.3792 25.6726 6.76169 24.7525C6.14419 23.7709 5.68106 22.7281 5.37231 21.6239C5.1253 20.5197 5.03268 19.5075 5.09443 18.5873L6.39119 13.9865C6.82345 12.3302 7.44095 10.6739 8.24371 9.01762C9.10822 7.36132 10.1271 5.88906 11.3004 4.60083C12.5354 3.25125 13.9248 2.14705 15.4685 1.28823C17.0741 0.429411 18.8648 0 20.8408 0H68.2653L67.8948 1.38025C67.5861 2.17773 67.1847 3.15924 66.6907 4.32478C66.1967 5.42898 65.7336 6.53318 65.3013 7.63738C64.869 8.68023 64.4677 9.6004 64.0972 10.3979C63.7884 11.134 63.634 11.5021 63.634 11.5021H19.822L18.7104 12.1462L17.5063 16.471H52.9821C54.0936 16.471 55.2051 16.747 56.3166 17.2991C57.4281 17.8512 58.3852 18.5873 59.188 19.5075C60.0525 20.4277 60.67 21.4399 61.0405 22.5441C61.4728 23.6483 61.5654 24.7525 61.3184 25.8567L58.8175 35.1503C58.5087 36.1932 57.8912 37.2667 56.965 38.3709C56.1005 39.4751 55.0816 40.4873 53.9083 41.4075C52.735 42.2663 51.5309 43.0024 50.2959 43.6159C49.0609 44.168 47.9494 44.444 46.9614 44.444H0C0.123501 43.8919 0.401379 43.0024 0.833634 41.7755C1.32764 40.4873 1.85252 39.1991 2.40828 37.9108C2.96403 36.6226 3.45804 35.4877 3.89029 34.5062C4.32255 33.4634 4.56955 32.9419 4.6313 32.9419H47.5171Z" fill="#6008C3"/>
<path d="M60.712 44.444L94.7057 7.26931C95.5085 6.47183 96.4039 5.64368 97.3919 4.78486C98.3799 3.92604 99.3988 3.15923 100.449 2.48445C101.56 1.74831 102.672 1.16554 103.783 0.736131C104.956 0.245377 106.13 0 107.303 0H133.886L122.03 44.444H110.452L113.416 33.31H84.98L74.4206 44.444H60.712ZM119.252 11.6861H105.265C105.08 11.6861 104.493 12.1462 103.505 13.0664C102.579 13.9252 101.56 14.9374 100.449 16.1029C99.3988 17.2071 98.3799 18.3113 97.3919 19.4155C96.4039 20.4584 95.7555 21.1945 95.4467 21.6239H116.565L119.252 11.6861Z" fill="#6008C3"/>
<path d="M139.445 0H151.116L178.44 28.8012L186.128 0H197.614L185.758 44.444H173.902L147.133 15.6428L139.445 44.444H127.589L139.445 0Z" fill="#6008C3"/>
<path d="M203.216 0H252.029C252.956 0 253.882 0.276049 254.808 0.828147C255.796 1.38025 256.63 2.08571 257.309 2.94453C258.05 3.80335 258.606 4.75419 258.976 5.79704C259.347 6.77855 259.409 7.76006 259.162 8.74157L252.029 35.1503C251.721 36.3772 251.041 37.5734 249.992 38.739C249.004 39.8432 247.861 40.8247 246.564 41.6835C245.268 42.5423 243.909 43.2171 242.489 43.7079C241.069 44.1986 239.803 44.444 238.691 44.444H191.359L203.216 0ZM206.272 32.9419H240.729L246.472 11.7781H212.015L206.272 32.9419Z" fill="#6008C3"/>
<path d="M304.5 32.9419L305.611 28.8012L304.87 28.0651H268.931C267.82 28.0651 266.832 27.7583 265.967 27.1449C265.103 26.4701 264.362 25.6726 263.744 24.7525C263.127 23.7709 262.664 22.7281 262.355 21.6239C262.108 20.5197 262.015 19.5075 262.077 18.5873L263.374 13.9865C263.806 12.3302 264.424 10.6739 265.226 9.01762C266.091 7.36132 267.11 5.88906 268.283 4.60083C269.518 3.25125 270.908 2.14705 272.451 1.28823C274.057 0.429411 275.848 0 277.824 0H325.248L324.878 1.38025C324.569 2.17773 324.167 3.15924 323.673 4.32478C323.179 5.42898 322.716 6.53318 322.284 7.63738C321.852 8.68023 321.45 9.6004 321.08 10.3979C320.771 11.134 320.617 11.5021 320.617 11.5021H276.805L275.693 12.1462L274.489 16.471H309.965C311.076 16.471 312.188 16.747 313.299 17.2991C314.411 17.8512 315.368 18.5873 316.171 19.5075C317.035 20.4277 317.653 21.4399 318.023 22.5441C318.456 23.6483 318.548 24.7525 318.301 25.8567L315.8 35.1503C315.492 36.1932 314.874 37.2667 313.948 38.3709C313.083 39.4751 312.064 40.4873 310.891 41.4075C309.718 42.2663 308.514 43.0024 307.279 43.6159C306.044 44.168 304.932 44.444 303.944 44.444H256.983C257.106 43.8919 257.384 43.0024 257.816 41.7755C258.31 40.4873 258.835 39.1991 259.391 37.9108C259.947 36.6226 260.441 35.4877 260.873 34.5062C261.305 33.4634 261.552 32.9419 261.614 32.9419H304.5Z" fill="#6008C3"/>
<path d="M350.762 11.5021H327.791L330.848 0H389.017L385.96 11.5021H362.618L353.819 44.444H341.963L350.762 11.5021Z" fill="#6008C3"/>
<path d="M394.618 0H443.432C444.359 0 445.285 0.276049 446.211 0.828147C447.199 1.38025 448.033 2.08571 448.712 2.94453C449.453 3.80335 450.009 4.75419 450.379 5.79704C450.75 6.77855 450.812 7.76006 450.565 8.74157L443.432 35.1503C443.124 36.3772 442.444 37.5734 441.395 38.739C440.407 39.8432 439.264 40.8247 437.967 41.6835C436.671 42.5423 435.312 43.2171 433.892 43.7079C432.472 44.1986 431.206 44.444 430.094 44.444H393.6C392.365 44.444 391.191 44.168 390.08 43.6159C388.968 43.0638 388.011 42.3583 387.208 41.4995C386.406 40.5793 385.819 39.5365 385.448 38.3709C385.078 37.2054 385.047 35.9785 385.356 34.6903L394.618 0ZM397.953 31.9298L398.694 32.9419H432.132L437.875 11.7781H403.418L397.953 31.9298Z" fill="#6008C3"/>
<path d="M458.389 0H505.906C508.068 0 509.735 0.429411 510.908 1.28823C512.081 2.14705 512.884 3.25125 513.316 4.60083C513.749 5.88906 513.903 7.36132 513.779 9.01762C513.656 10.6739 513.378 12.3302 512.946 13.9865L511.649 18.5873C511.402 19.4462 510.877 20.4277 510.075 21.5319C509.272 22.6361 508.315 23.6789 507.203 24.6604C506.092 25.5806 504.857 26.3781 503.498 27.0529C502.201 27.7277 500.935 28.0651 499.7 28.0651H493.031L504.702 44.444H489.419L478.026 28.0651H462.743L458.389 44.444H446.533L458.389 0ZM467.189 11.5021L465.892 16.563H499.237L500.812 15.4588L501.738 12.1462L500.719 11.5021H467.189Z" fill="#6008C3"/>
<path d="M522.16 0H534.757L547.354 33.402L577.55 0H590.147L578.291 44.444H566.713L573.197 20.5197L551.152 44.444H537.536L528.459 20.5197L521.975 44.444H510.304L522.16 0Z" fill="#6008C3"/>
<path d="M633.004 0H680.521C682.682 0 684.349 0.42941 685.522 1.28823C686.696 2.14705 687.499 3.25125 687.931 4.60082C688.363 5.88905 688.517 7.36132 688.394 9.01762C688.27 10.6739 687.993 12.3302 687.56 13.9865L686.264 18.5873C686.017 19.4462 685.492 20.4277 684.689 21.5319C683.886 22.6361 682.929 23.6789 681.817 24.6604C680.706 25.5806 679.471 26.3781 678.112 27.0529C676.816 27.7277 675.55 28.065 674.315 28.065H667.646L679.317 44.444H664.033L652.64 28.065H637.357L633.004 44.444H621.147L633.004 0ZM641.803 11.5021L640.506 16.563H673.852L675.426 15.4588L676.353 12.1462L675.334 11.5021H641.803Z" fill="#6008C3"/>
<path d="M683.621 44.444L717.615 7.26931C718.418 6.47183 719.313 5.64368 720.301 4.78486C721.289 3.92604 722.308 3.15923 723.358 2.48444C724.47 1.74831 725.581 1.16554 726.693 0.73613C727.866 0.245376 729.039 0 730.212 0H756.796L744.94 44.444H733.362L736.326 33.31H707.889L697.33 44.444H683.621ZM742.161 11.6861H728.175C727.989 11.6861 727.403 12.1462 726.415 13.0663C725.488 13.9252 724.47 14.9373 723.358 16.1029C722.308 17.2071 721.289 18.3113 720.301 19.4155C719.313 20.4583 718.665 21.1945 718.356 21.6239H739.475L742.161 11.6861Z" fill="#6008C3"/>
<path d="M762.354 0H820.709C820.585 0.552098 820.276 1.47226 819.782 2.76049C819.288 4.04872 818.764 5.33696 818.208 6.62519C817.714 7.91342 817.22 9.04829 816.726 10.0298C816.293 11.0113 816.046 11.5021 815.985 11.5021H771.154L765.781 31.6537L766.152 32.9419H810.242C810.365 32.9419 810.365 33.4327 810.242 34.4142C810.18 35.3957 810.057 36.5306 809.871 37.8188C809.686 39.107 809.501 40.3953 809.316 41.6835C809.13 42.9104 808.976 43.8306 808.853 44.444H761.335C760.039 44.444 758.804 44.1373 757.63 43.5238C756.519 42.9104 755.593 42.1129 754.852 41.1314C754.111 40.0886 753.586 38.923 753.277 37.6348C752.968 36.3465 752.999 35.0276 753.37 33.6781L762.354 0Z" fill="#6008C3"/>
<path d="M826.306 0H884.66C884.537 0.552098 884.228 1.47226 883.734 2.76049C883.24 4.04872 882.715 5.33696 882.159 6.62519C881.665 7.91342 881.171 9.04829 880.677 10.0298C880.245 11.0113 879.998 11.5021 879.936 11.5021H835.105L833.809 16.563H876.695C876.571 17.1151 876.262 18.0352 875.768 19.3235C875.274 20.5504 874.749 21.8386 874.194 23.1882C873.638 24.4764 873.144 25.6113 872.712 26.5928C872.279 27.5743 872.032 28.065 871.971 28.065H830.659L829.733 31.6537L830.104 32.9419H874.194C874.317 32.9419 874.317 33.4327 874.194 34.4142C874.132 35.3957 874.008 36.5306 873.823 37.8188C873.638 39.107 873.453 40.3953 873.267 41.6835C873.082 42.9104 872.928 43.8306 872.804 44.444H825.287C823.99 44.444 822.755 44.1373 821.582 43.5238C820.471 42.9104 819.544 42.1129 818.803 41.1314C818.062 40.0886 817.537 38.923 817.229 37.6348C816.92 36.3465 816.951 35.0276 817.321 33.6781L826.306 0Z" fill="#6008C3"/>
<path d="M890.258 0H937.775C939.936 0 941.603 0.42941 942.777 1.28823C943.95 2.14705 944.753 3.25125 945.185 4.60082C945.617 5.88905 945.772 7.36132 945.648 9.01762C945.525 10.6739 945.247 12.3302 944.814 13.9865L943.518 18.5873C943.271 19.4462 942.746 20.4277 941.943 21.5319C941.14 22.6361 940.183 23.6789 939.072 24.6604C937.96 25.5806 936.725 26.3781 935.367 27.0529C934.07 27.7277 932.804 28.065 931.569 28.065H924.9L936.571 44.444H921.287L909.894 28.065H894.611L890.258 44.444H878.402L890.258 0ZM899.057 11.5021L897.76 16.563H931.106L932.68 15.4588L933.607 12.1462L932.588 11.5021H899.057Z" fill="#6008C3"/>
<path d="M991.542 32.9419L992.654 28.8012L991.913 28.065H955.974C954.862 28.065 953.874 27.7583 953.01 27.1449C952.145 26.4701 951.404 25.6726 950.787 24.7525C950.169 23.7709 949.706 22.7281 949.397 21.6239C949.15 20.5197 949.058 19.5075 949.119 18.5873L950.416 13.9865C950.848 12.3302 951.466 10.6739 952.269 9.01762C953.133 7.36132 954.152 5.88905 955.325 4.60082C956.56 3.25125 957.95 2.14705 959.493 1.28823C961.099 0.42941 962.89 0 964.866 0H1012.29L1011.92 1.38025C1011.61 2.17773 1011.21 3.15923 1010.72 4.32478C1010.22 5.42898 1009.76 6.53318 1009.33 7.63737C1008.89 8.68023 1008.49 9.6004 1008.12 10.3979C1007.81 11.134 1007.66 11.5021 1007.66 11.5021H963.847L962.735 12.1462L961.531 16.471H997.007C998.118 16.471 999.23 16.747 1000.34 17.2991C1001.45 17.8512 1002.41 18.5873 1003.21 19.5075C1004.08 20.4277 1004.69 21.4399 1005.07 22.5441C1005.5 23.6483 1005.59 24.7525 1005.34 25.8567L1002.84 35.1503C1002.53 36.1932 1001.92 37.2667 1000.99 38.3709C1000.13 39.4751 999.106 40.4873 997.933 41.4075C996.76 42.2663 995.556 43.0024 994.321 43.6159C993.086 44.168 991.974 44.444 990.986 44.444H944.025C944.148 43.8919 944.426 43.0024 944.859 41.7755C945.353 40.4873 945.877 39.1991 946.433 37.9108C946.989 36.6226 947.483 35.4877 947.915 34.5062C948.347 33.4634 948.594 32.9419 948.656 32.9419H991.542Z" fill="#6008C3"/>
</svg>
